<?xml version="1.0" encoding="UTF-8" standalone="no"?>
<!DOCTYPE svg PUBLIC "-//W3C//DTD SVG 1.1//EN"
 "http://www.w3.org/Graphics/SVG/1.1/DTD/svg11.dtd">
<!-- Generated by graphviz version 2.43.0 (0)
 -->
<!-- Title: T Pages: 1 -->
<svg width="567pt" height="842pt"
 viewBox="0.00 0.00 567.20 842.20" xmlns="http://www.w3.org/2000/svg" xmlns:xlink="http://www.w3.org/1999/xlink">
<g id="graph0" class="graph" transform="scale(1 1) rotate(0) translate(21.6 820.6)">
<title>T</title>
<polygon fill="white" stroke="transparent" points="-21.6,21.6 -21.6,-820.6 545.6,-820.6 545.6,21.6 -21.6,21.6"/>
<g id="clust1" class="cluster">
<title>cluster_stop0</title>
<path fill="white" stroke="#6b7f96" stroke-width="2" stroke-dasharray="5,2" d="M216,-693C216,-693 364,-693 364,-693 370,-693 376,-699 376,-705 376,-705 376,-779 376,-779 376,-785 370,-791 364,-791 364,-791 216,-791 216,-791 210,-791 204,-785 204,-779 204,-779 204,-705 204,-705 204,-699 210,-693 216,-693"/>
<text text-anchor="middle" x="238.5" y="-776.6" font-family="Helvetica,sans-Serif" font-weight="bold" font-size="13.00" fill="#6b7f96">STOP 0</text>
</g>
<g id="clust2" class="cluster">
<title>cluster_stop1</title>
<path fill="white" stroke="#5a9367" stroke-width="2" stroke-dasharray="5,2" d="M203,-556C203,-556 377,-556 377,-556 383,-556 389,-562 389,-568 389,-568 389,-642 389,-642 389,-648 383,-654 377,-654 377,-654 203,-654 203,-654 197,-654 191,-648 191,-642 191,-642 191,-568 191,-568 191,-562 197,-556 203,-556"/>
<text text-anchor="middle" x="225.5" y="-639.6" font-family="Helvetica,sans-Serif" font-weight="bold" font-size="13.00" fill="#5a9367">STOP 1</text>
</g>
<g id="clust3" class="cluster">
<title>cluster_stop2</title>
<path fill="white" stroke="#b0a04a" stroke-width="2" stroke-dasharray="5,2" d="M206,-419C206,-419 374,-419 374,-419 380,-419 386,-425 386,-431 386,-431 386,-505 386,-505 386,-511 380,-517 374,-517 374,-517 206,-517 206,-517 200,-517 194,-511 194,-505 194,-505 194,-431 194,-431 194,-425 200,-419 206,-419"/>
<text text-anchor="middle" x="228.5" y="-502.6" font-family="Helvetica,sans-Serif" font-weight="bold" font-size="13.00" fill="#b0a04a">STOP 2</text>
</g>
<g id="clust4" class="cluster">
<title>cluster_stop3</title>
<path fill="white" stroke="#c9932a" stroke-width="2" stroke-dasharray="5,2" d="M169,-282C169,-282 411,-282 411,-282 417,-282 423,-288 423,-294 423,-294 423,-368 423,-368 423,-374 417,-380 411,-380 411,-380 169,-380 169,-380 163,-380 157,-374 157,-368 157,-368 157,-294 157,-294 157,-288 163,-282 169,-282"/>
<text text-anchor="middle" x="191.5" y="-365.6" font-family="Helvetica,sans-Serif" font-weight="bold" font-size="13.00" fill="#c9932a">STOP 3</text>
</g>
<g id="clust5" class="cluster">
<title>cluster_stop4</title>
<path fill="white" stroke="#c96a4a" stroke-width="2" stroke-dasharray="5,2" d="M20,-145C20,-145 474,-145 474,-145 480,-145 486,-151 486,-157 486,-157 486,-231 486,-231 486,-237 480,-243 474,-243 474,-243 20,-243 20,-243 14,-243 8,-237 8,-231 8,-231 8,-157 8,-157 8,-151 14,-145 20,-145"/>
<text text-anchor="middle" x="42.5" y="-228.6" font-family="Helvetica,sans-Serif" font-weight="bold" font-size="13.00" fill="#c96a4a">STOP 4</text>
</g>
<g id="clust7" class="cluster">
<title>cluster_stop5</title>
<path fill="white" stroke="#c0392b" stroke-width="2" stroke-dasharray="5,2" d="M302,-8C302,-8 504,-8 504,-8 510,-8 516,-14 516,-20 516,-20 516,-94 516,-94 516,-100 510,-106 504,-106 504,-106 302,-106 302,-106 296,-106 290,-100 290,-94 290,-94 290,-20 290,-20 290,-14 296,-8 302,-8"/>
<text text-anchor="middle" x="324.5" y="-91.6" font-family="Helvetica,sans-Serif" font-weight="bold" font-size="13.00" fill="#c0392b">STOP 5</text>
</g>
<!-- s0_parochial -->
<g id="node1" class="node">
<title>s0_parochial</title>
<path fill="#dfe7ef" stroke="#6b7f96" d="M355.5,-761C355.5,-761 224.5,-761 224.5,-761 218.5,-761 212.5,-755 212.5,-749 212.5,-749 212.5,-713 212.5,-713 212.5,-707 218.5,-701 224.5,-701 224.5,-701 355.5,-701 355.5,-701 361.5,-701 367.5,-707 367.5,-713 367.5,-713 367.5,-749 367.5,-749 367.5,-755 361.5,-761 355.5,-761"/>
<text text-anchor="middle" x="290" y="-746.2" font-family="Helvetica,sans-Serif" font-size="11.00" fill="#1b2733">Parochial</text>
<text text-anchor="middle" x="290" y="-734.2" font-family="Helvetica,sans-Serif" font-size="11.00" fill="#1b2733">community + nation</text>
<text text-anchor="middle" x="290" y="-722.2" font-family="Helvetica,sans-Serif" font-size="11.00" fill="#1b2733">→ Local Rotary Club</text>
<text text-anchor="middle" x="290" y="-710.2" font-family="Helvetica,sans-Serif" font-size="11.00" fill="#1b2733">(common&#45;sense default)</text>
</g>
<!-- s1_all_humans -->
<g id="node2" class="node">
<title>s1_all_humans</title>
<path fill="#cfe6cf" stroke="#5a9367" d="M368.5,-624C368.5,-624 211.5,-624 211.5,-624 205.5,-624 199.5,-618 199.5,-612 199.5,-612 199.5,-576 199.5,-576 199.5,-570 205.5,-564 211.5,-564 211.5,-564 368.5,-564 368.5,-564 374.5,-564 380.5,-570 380.5,-576 380.5,-576 380.5,-612 380.5,-612 380.5,-618 374.5,-624 368.5,-624"/>
<text text-anchor="middle" x="290" y="-609.2" font-family="Helvetica,sans-Serif" font-size="11.00" fill="#1e3a24">All present</text>
<text text-anchor="middle" x="290" y="-597.2" font-family="Helvetica,sans-Serif" font-size="11.00" fill="#1e3a24">humans</text>
<text text-anchor="middle" x="290" y="-585.2" font-family="Helvetica,sans-Serif" font-size="11.00" fill="#1e3a24">→ GiveWell top charity (AMF)</text>
<text text-anchor="middle" x="290" y="-573.2" font-family="Helvetica,sans-Serif" font-size="11.00" fill="#1e3a24">(Alexander Berger)</text>
</g>
<!-- s0_parochial&#45;&gt;s1_all_humans -->
<g id="edge1" class="edge">
<title>s0_parochial&#45;&gt;s1_all_humans</title>
<path fill="none" stroke="#9aa6b3" d="M290,-700.71C290,-681.25 290,-655.47 290,-634.24"/>
<polygon fill="#9aa6b3" stroke="#9aa6b3" points="293.5,-634.24 290,-624.24 286.5,-634.24 293.5,-634.24"/>
<text text-anchor="middle" x="347" y="-664.8" font-family="Helvetica,sans-Serif" font-size="9.00" fill="#5b6675">drop nationality discount</text>
</g>
<!-- s2_animals -->
<g id="node3" class="node">
<title>s2_animals</title>
<path fill="#e6e2c0" stroke="#b0a04a" d="M366.5,-487C366.5,-487 213.5,-487 213.5,-487 207.5,-487 201.5,-481 201.5,-475 201.5,-475 201.5,-439 201.5,-439 201.5,-433 207.5,-427 213.5,-427 213.5,-427 366.5,-427 366.5,-427 372.5,-427 378.5,-433 378.5,-439 378.5,-439 378.5,-475 378.5,-475 378.5,-481 372.5,-487 366.5,-487"/>
<text text-anchor="middle" x="290" y="-472.2" font-family="Helvetica,sans-Serif" font-size="11.00" fill="#3a3410">Farmed</text>
<text text-anchor="middle" x="290" y="-460.2" font-family="Helvetica,sans-Serif" font-size="11.00" fill="#3a3410">animals count</text>
<text text-anchor="middle" x="290" y="-448.2" font-family="Helvetica,sans-Serif" font-size="11.00" fill="#3a3410">→ The Humane League</text>
<text text-anchor="middle" x="290" y="-436.2" font-family="Helvetica,sans-Serif" font-size="11.00" fill="#3a3410">(Peter Singer, Lewis Bollard)</text>
</g>
<!-- s1_all_humans&#45;&gt;s2_animals -->
<g id="edge2" class="edge">
<title>s1_all_humans&#45;&gt;s2_animals</title>
<path fill="none" stroke="#9aa6b3" d="M290,-563.71C290,-544.25 290,-518.47 290,-497.24"/>
<polygon fill="#9aa6b3" stroke="#9aa6b3" points="293.5,-497.24 290,-487.24 286.5,-497.24 293.5,-497.24"/>
<text text-anchor="middle" x="347.5" y="-527.8" font-family="Helvetica,sans-Serif" font-size="9.00" fill="#5b6675">add animal welfare range</text>
</g>
<!-- s3_inverts -->
<g id="node4" class="node">
<title>s3_inverts</title>
<path fill="#f6e0c0" stroke="#c9932a" d="M402.5,-350C402.5,-350 177.5,-350 177.5,-350 171.5,-350 165.5,-344 165.5,-338 165.5,-338 165.5,-302 165.5,-302 165.5,-296 171.5,-290 177.5,-290 177.5,-290 402.5,-290 402.5,-290 408.5,-290 414.5,-296 414.5,-302 414.5,-302 414.5,-338 414.5,-338 414.5,-344 408.5,-350 402.5,-350"/>
<text text-anchor="middle" x="290" y="-335.2" font-family="Helvetica,sans-Serif" font-size="11.00" fill="#5a3f10">Invertebrates</text>
<text text-anchor="middle" x="290" y="-323.2" font-family="Helvetica,sans-Serif" font-size="11.00" fill="#5a3f10">count</text>
<text text-anchor="middle" x="290" y="-311.2" font-family="Helvetica,sans-Serif" font-size="11.00" fill="#5a3f10">→ Shrimp Welfare Project &#160;(UNSTABLE) &#160;▼</text>
<text text-anchor="middle" x="290" y="-299.2" font-family="Helvetica,sans-Serif" font-size="11.00" fill="#5a3f10">(Brian Tomasik)</text>
</g>
<!-- s2_animals&#45;&gt;s3_inverts -->
<g id="edge3" class="edge">
<title>s2_animals&#45;&gt;s3_inverts</title>
<path fill="none" stroke="#9aa6b3" d="M290,-426.71C290,-407.25 290,-381.47 290,-360.24"/>
<polygon fill="#9aa6b3" stroke="#9aa6b3" points="293.5,-360.24 290,-350.24 286.5,-360.24 293.5,-360.24"/>
<text text-anchor="middle" x="351.5" y="-390.8" font-family="Helvetica,sans-Serif" font-size="9.00" fill="#5b6675">add invertebrate sentience</text>
</g>
<!-- s4_soil -->
<g id="node5" class="node">
<title>s4_soil</title>
<path fill="#f2ccc0" stroke="#c96a4a" d="M280,-213C280,-213 28,-213 28,-213 22,-213 16,-207 16,-201 16,-201 16,-165 16,-165 16,-159 22,-153 28,-153 28,-153 280,-153 280,-153 286,-153 292,-159 292,-165 292,-165 292,-201 292,-201 292,-207 286,-213 280,-213"/>
<text text-anchor="middle" x="154" y="-198.2" font-family="Helvetica,sans-Serif" font-size="11.00" fill="#5a2410">Soil animals</text>
<text text-anchor="middle" x="154" y="-186.2" font-family="Helvetica,sans-Serif" font-size="11.00" fill="#5a2410">count (branch A)</text>
<text text-anchor="middle" x="154" y="-174.2" font-family="Helvetica,sans-Serif" font-size="11.00" fill="#5a2410">→ GiveWell top charity (AMF) &#160;(sign uncertain)</text>
<text text-anchor="middle" x="154" y="-162.2" font-family="Helvetica,sans-Serif" font-size="11.00" fill="#5a2410">(Brian Tomasik)</text>
</g>
<!-- s3_inverts&#45;&gt;s4_soil -->
<g id="edge4" class="edge">
<title>s3_inverts&#45;&gt;s4_soil</title>
<path fill="none" stroke="#c0392b" stroke-dasharray="5,2" d="M255.5,-290C238.25,-275.5 221,-261 221,-261 221,-261 203.31,-240.67 186.11,-220.9"/>
<polygon fill="#c0392b" stroke="#c0392b" points="188.53,-218.36 179.33,-213.11 183.25,-222.95 188.53,-218.36"/>
<text text-anchor="middle" x="275.5" y="-253.8" font-family="Helvetica,sans-Serif" font-size="9.00" fill="#5b6675">count soil / wild animals</text>
</g>
<!-- s4_future -->
<g id="node6" class="node">
<title>s4_future</title>
<path fill="#f2ccc0" stroke="#c96a4a" d="M466,-213C466,-213 340,-213 340,-213 334,-213 328,-207 328,-201 328,-201 328,-165 328,-165 328,-159 334,-153 340,-153 340,-153 466,-153 466,-153 472,-153 478,-159 478,-165 478,-165 478,-201 478,-201 478,-207 472,-213 466,-213"/>
<text text-anchor="middle" x="403" y="-198.2" font-family="Helvetica,sans-Serif" font-size="11.00" fill="#5a2410">Future</text>
<text text-anchor="middle" x="403" y="-186.2" font-family="Helvetica,sans-Serif" font-size="11.00" fill="#5a2410">people count</text>
<text text-anchor="middle" x="403" y="-174.2" font-family="Helvetica,sans-Serif" font-size="11.00" fill="#5a2410">→ ALLFED</text>
<text text-anchor="middle" x="403" y="-162.2" font-family="Helvetica,sans-Serif" font-size="11.00" fill="#5a2410">(Ajeya Cotra, Toby Ord)</text>
</g>
<!-- s3_inverts&#45;&gt;s4_future -->
<g id="edge5" class="edge">
<title>s3_inverts&#45;&gt;s4_future</title>
<path fill="none" stroke="#c0392b" stroke-dasharray="5,2" d="M314.52,-289.71C331.4,-269.54 353.96,-242.59 372.07,-220.95"/>
<polygon fill="#c0392b" stroke="#c0392b" points="374.79,-223.15 378.53,-213.24 369.43,-218.66 374.79,-223.15"/>
<text text-anchor="middle" x="408.5" y="-253.8" font-family="Helvetica,sans-Serif" font-size="9.00" fill="#5b6675">stop discounting the future</text>
</g>
<!-- s5_astro -->
<g id="node7" class="node">
<title>s5_astro</title>
<path fill="#eeb3b3" stroke="#c0392b" d="M496,-76C496,-76 310,-76 310,-76 304,-76 298,-70 298,-64 298,-64 298,-28 298,-28 298,-22 304,-16 310,-16 310,-16 496,-16 496,-16 502,-16 508,-22 508,-28 508,-28 508,-64 508,-64 508,-70 502,-76 496,-76"/>
<text text-anchor="middle" x="403" y="-61.2" font-family="Helvetica,sans-Serif" font-size="11.00" fill="#5a1410">Astronomical</text>
<text text-anchor="middle" x="403" y="-49.2" font-family="Helvetica,sans-Serif" font-size="11.00" fill="#5a1410">stakes</text>
<text text-anchor="middle" x="403" y="-37.2" font-family="Helvetica,sans-Serif" font-size="11.00" fill="#5a1410">→ AI safety (Redwood Research)</text>
<text text-anchor="middle" x="403" y="-25.2" font-family="Helvetica,sans-Serif" font-size="11.00" fill="#5a1410">(Nick Bostrom, Eliezer Yudkowsky)</text>
</g>
<!-- s4_future&#45;&gt;s5_astro -->
<g id="edge6" class="edge">
<title>s4_future&#45;&gt;s5_astro</title>
<path fill="none" stroke="#9aa6b3" d="M403,-152.71C403,-133.25 403,-107.47 403,-86.24"/>
<polygon fill="#9aa6b3" stroke="#9aa6b3" points="406.5,-86.24 403,-76.24 399.5,-86.24 406.5,-86.24"/>
<text text-anchor="middle" x="463.5" y="-116.8" font-family="Helvetica,sans-Serif" font-size="9.00" fill="#5b6675">accept astronomical waste</text>
</g>
</g>
</svg>
