<?xml version="1.0" encoding="UTF-8" standalone="no"?>
<!DOCTYPE svg PUBLIC "-//W3C//DTD SVG 1.1//EN"
 "http://www.w3.org/Graphics/SVG/1.1/DTD/svg11.dtd">
<!-- Generated by graphviz version 2.43.0 (0)
 -->
<!-- Title: T Pages: 1 -->
<svg width="895pt" height="910pt"
 viewBox="0.00 0.00 895.20 910.20" xmlns="http://www.w3.org/2000/svg" xmlns:xlink="http://www.w3.org/1999/xlink">
<g id="graph0" class="graph" transform="scale(1 1) rotate(0) translate(21.6 888.6)">
<title>T</title>
<polygon fill="white" stroke="transparent" points="-21.6,21.6 -21.6,-888.6 873.6,-888.6 873.6,21.6 -21.6,21.6"/>
<g id="clust1" class="cluster">
<title>cluster_stop0</title>
<path fill="white" stroke="#6b7f96" stroke-width="2" stroke-dasharray="5,2" d="M124,-761C124,-761 272,-761 272,-761 278,-761 284,-767 284,-773 284,-773 284,-847 284,-847 284,-853 278,-859 272,-859 272,-859 124,-859 124,-859 118,-859 112,-853 112,-847 112,-847 112,-773 112,-773 112,-767 118,-761 124,-761"/>
<text text-anchor="middle" x="146.5" y="-844.6" font-family="Helvetica,sans-Serif" font-weight="bold" font-size="13.00" fill="#6b7f96">STOP 0</text>
</g>
<g id="clust2" class="cluster">
<title>cluster_stop1</title>
<path fill="white" stroke="#5a9367" stroke-width="2" stroke-dasharray="5,2" d="M102,-612C102,-612 294,-612 294,-612 300,-612 306,-618 306,-624 306,-624 306,-710 306,-710 306,-716 300,-722 294,-722 294,-722 102,-722 102,-722 96,-722 90,-716 90,-710 90,-710 90,-624 90,-624 90,-618 96,-612 102,-612"/>
<text text-anchor="middle" x="124.5" y="-707.6" font-family="Helvetica,sans-Serif" font-weight="bold" font-size="13.00" fill="#5a9367">STOP 1</text>
</g>
<g id="clust3" class="cluster">
<title>cluster_stop2</title>
<path fill="white" stroke="#b0a04a" stroke-width="2" stroke-dasharray="5,2" d="M50,-455C50,-455 198,-455 198,-455 204,-455 210,-461 210,-467 210,-467 210,-561 210,-561 210,-567 204,-573 198,-573 198,-573 50,-573 50,-573 44,-573 38,-567 38,-561 38,-561 38,-467 38,-467 38,-461 44,-455 50,-455"/>
<text text-anchor="middle" x="72.5" y="-558.6" font-family="Helvetica,sans-Serif" font-weight="bold" font-size="13.00" fill="#b0a04a">STOP 2</text>
</g>
<g id="clust4" class="cluster">
<title>cluster_stop3</title>
<path fill="white" stroke="#c9a72a" stroke-width="2" stroke-dasharray="5,2" d="M241,-459C241,-459 415,-459 415,-459 421,-459 427,-465 427,-471 427,-471 427,-557 427,-557 427,-563 421,-569 415,-569 415,-569 241,-569 241,-569 235,-569 229,-563 229,-557 229,-557 229,-471 229,-471 229,-465 235,-459 241,-459"/>
<text text-anchor="middle" x="263.5" y="-554.6" font-family="Helvetica,sans-Serif" font-weight="bold" font-size="13.00" fill="#c9a72a">STOP 3</text>
</g>
<g id="clust5" class="cluster">
<title>cluster_stop4</title>
<path fill="white" stroke="#c9932a" stroke-width="2" stroke-dasharray="5,2" d="M232,-306C232,-306 424,-306 424,-306 430,-306 436,-312 436,-318 436,-318 436,-404 436,-404 436,-410 430,-416 424,-416 424,-416 232,-416 232,-416 226,-416 220,-410 220,-404 220,-404 220,-318 220,-318 220,-312 226,-306 232,-306"/>
<text text-anchor="middle" x="254.5" y="-401.6" font-family="Helvetica,sans-Serif" font-weight="bold" font-size="13.00" fill="#c9932a">STOP 4</text>
</g>
<g id="clust6" class="cluster">
<title>cluster_stop9</title>
<path fill="white" stroke="#c0392b" stroke-width="2" stroke-dasharray="5,2" d="M216,-157C216,-157 408,-157 408,-157 414,-157 420,-163 420,-169 420,-169 420,-255 420,-255 420,-261 414,-267 408,-267 408,-267 216,-267 216,-267 210,-267 204,-261 204,-255 204,-255 204,-169 204,-169 204,-163 210,-157 216,-157"/>
<text text-anchor="middle" x="238.5" y="-252.6" font-family="Helvetica,sans-Serif" font-weight="bold" font-size="13.00" fill="#c0392b">STOP 9</text>
</g>
<g id="clust7" class="cluster">
<title>cluster_stop10</title>
<path fill="white" stroke="#6a3fa0" stroke-width="2" stroke-dasharray="5,2" d="M404,-8C404,-8 832,-8 832,-8 838,-8 844,-14 844,-20 844,-20 844,-106 844,-106 844,-112 838,-118 832,-118 832,-118 404,-118 404,-118 398,-118 392,-112 392,-106 392,-106 392,-20 392,-20 392,-14 398,-8 404,-8"/>
<text text-anchor="middle" x="431" y="-103.6" font-family="Helvetica,sans-Serif" font-weight="bold" font-size="13.00" fill="#6a3fa0">STOP 10</text>
</g>
<g id="clust9" class="cluster">
<title>cluster_stop12</title>
<path fill="white" stroke="#4a2a78" stroke-width="2" stroke-dasharray="5,2" d="M20,-8C20,-8 168,-8 168,-8 174,-8 180,-14 180,-20 180,-20 180,-106 180,-106 180,-112 174,-118 168,-118 168,-118 20,-118 20,-118 14,-118 8,-112 8,-106 8,-106 8,-20 8,-20 8,-14 14,-8 20,-8"/>
<text text-anchor="middle" x="47" y="-103.6" font-family="Helvetica,sans-Serif" font-weight="bold" font-size="13.00" fill="#4a2a78">STOP 12</text>
</g>
<g id="clust10" class="cluster">
<title>cluster_stop13</title>
<path fill="white" stroke="#4a2a78" stroke-width="2" stroke-dasharray="5,2" d="M212,-8C212,-8 360,-8 360,-8 366,-8 372,-14 372,-20 372,-20 372,-106 372,-106 372,-112 366,-118 360,-118 360,-118 212,-118 212,-118 206,-118 200,-112 200,-106 200,-106 200,-20 200,-20 200,-14 206,-8 212,-8"/>
<text text-anchor="middle" x="239" y="-103.6" font-family="Helvetica,sans-Serif" font-weight="bold" font-size="13.00" fill="#4a2a78">STOP 13</text>
</g>
<!-- w0 -->
<g id="node1" class="node">
<title>w0</title>
<g id="a_node1"><a xlink:href="https://www.squiggle-language.com/playground#code=eJylVmFz4jYQ%2FSs7TDsFSoghuV6PDh8IOJfMcb0Mob3phMxE2GusRpY8kozD5fLfu7JJgGDazNRfMNbq7e5b7Vs91kKMWCbsUIVY69WOj6Hf78NUMy7BKgg0%2B7ail1zCLOt6nVPIlRbhkmMOuQd1Y1UKXsNtmknaPDAmS1LLlYQgJoweeJAyrYKYM1FY%2BCyIgW3MuAEGVysb03vEBQI53iybY7Axs8DC0LRAI0XLJRpQugDTeEToLEGLmhv6bmMsHf9kIMpkUGD8BoFKUmW4XGwMaK8MkRDpEzcFmrFMhkwoiZAQHaINdy%2FZ%2Bss7F6rbjg8pBpY2LpnIEFRUIGyIaRdgZ2gszLMVZM6N22hwO7EejFXABBiVpXDPbRCjLHd%2B9H%2F3J4OpP4L5ChYoUTOL7XT1XAEMud2hqEmLLZDKloE4FgmpwBpxTbECRpH7IYrR0a%2F0gvhJNU%2BYXsGcXEQ84PTegjP%2F%2FMvEp%2Fz1ul458kVsiTpiQyh3JmJ%2BV1ZNqIVUOqEkPng%2FwvAS6kpTrkcqOkrYQnKbhQhnX6b%2BsEHxuEQ%2FlXmOmFhdof7DhNCHx5kESFGlAi9QpBi%2BrHht751z6LXfOZschZgjRfKRyucgShOvU9p4HWcUqEzSYYhYYDMmzpi8%2F7OokjM9OeCpWQHdhHoHjg7BNWbyaSYX4U4iLhbvdB2M151JlkR7BifrjLwuhct4smfwnE2Xcrax2FnvtLtu9fQ9sZmnu0tdz3Nr708piJnMuQjn2cLs2vxS2vzaLWyYEBGGFbUYLDQPSBMyOgNDZpmxWqUxktUQJX19Jv5kHWpRHcGXaK7ZsmB1pIRg%2BjLa2l3uKeLvOvuw9DvmkVs68QrPQ77kgn9j7lz7MnQFIVi5B%2FN8LoqSU%2BffX8dM4wQTte3fpYxHnSJnevE%2BOOsoowzQZW0G9tqyewfZ8TZPYe29et7IS%2FO%2FaWjuZP7z21DfQkzzX4hoVqRdHGHSv1ypikPwMCGwCYZZsE%2FoyZrQTvf%2FEVrt42Cs5fi4yUeD8V9ADGunwSlp6w%2B3vW1dC3c0z%2FJkPRc2mhYoWiTFI35faTdtZ69GGKSZNU46uXUqFig3M%2Fpw4zJ4BGpy7MGsti%2Fms1oL8vCF2B4kyGS9UgUblHQHnlq7kK7CpX6LVTXYtgA5DK8S4yuJG7g5TelobldQH3w%2Bb1Qj7khWNeTg8jMcw3CN5UurMaVZipk2MU8PwG4LXTXslCp0kSWMhu8Y2SLDaqQdSaxGuo5psKVAaUfUC3Cl1d%2FE4YFybMtoNdxXklK6lBjCMFCPyxBTmu50gEI0B4jcF%2BADbI7H5%2F7oAGuvBPpQPcCwCF1dJ2U3w4TuGkwH8YHY9pp%2BA3zr2kzTmHN3pT6MubFtjdRrBuvFH6O0PVvVyzZoweP3h%2B%2Fw0N7y8dSg4Th3l58%2BrIFuvNt1904rr0%2FTi8vrTQv2IHc3Pk5sz5%2FvUNTcnKIw1IBbNzLy4Cy2vc9k7ekfWUauEg%3D%3D" xlink:title="Parochial\ncommunity + nation\n→ Local soup kitchen\n(common&#45;sense default)" target="_blank">
<path fill="#dfe7ef" stroke="#6b7f96" d="M263.5,-829C263.5,-829 132.5,-829 132.5,-829 126.5,-829 120.5,-823 120.5,-817 120.5,-817 120.5,-781 120.5,-781 120.5,-775 126.5,-769 132.5,-769 132.5,-769 263.5,-769 263.5,-769 269.5,-769 275.5,-775 275.5,-781 275.5,-781 275.5,-817 275.5,-817 275.5,-823 269.5,-829 263.5,-829"/>
<text text-anchor="middle" x="198" y="-814.2" font-family="Helvetica,sans-Serif" font-size="11.00" fill="#1b2733">Parochial</text>
<text text-anchor="middle" x="198" y="-802.2" font-family="Helvetica,sans-Serif" font-size="11.00" fill="#1b2733">community + nation</text>
<text text-anchor="middle" x="198" y="-790.2" font-family="Helvetica,sans-Serif" font-size="11.00" fill="#1b2733">→ Local soup kitchen</text>
<text text-anchor="middle" x="198" y="-778.2" font-family="Helvetica,sans-Serif" font-size="11.00" fill="#1b2733">(common&#45;sense default)</text>
</a>
</g>
</g>
<!-- w1 -->
<g id="node2" class="node">
<title>w1</title>
<g id="a_node2"><a xlink:href="https://www.squiggle-language.com/playground#code=eJylVm1z4jYQ%2Fis7TDsllBCb5HoNHT4QIC9zXC9DaG86R%2BYi7DVWI0seScbhcvnvXdkkQDBtZuovGGv32d1ntY%2F0WAsxYpmwfRVirVM7OoJutwsTzbgEqyDQ7NuSXnIJ06zt%2BSeQKy3CBcccch%2FqxqoU%2FAPnNJXk3DMmS1LLlYQgJowOeJAyrYKYM%2BEg%2FNM2%2BBAx%2FZXlbPk1zhImTeE6ZEEMbO3PDTC4XtqY3iMuECij9bI5AhszCywMTRM0UhlcogGlCzCNhxSWJWhRc0PfbYxlRj8ZiDIZFBi%2FQaCSVBku52sD8pUhEiJ94mVqxjIZMqEkQkI8iRbcvdAwXNy5VJ07PqQYWHJcMJEhqKhAWDPWKsDO0FiYZUvIXBjnaHCzsA5c8AV%2BRiHAkUs5aW6XUO99PD8oES6Gvw%2FHvclwALMlzFGiZhZb6fK5RRhyu0VVgxabIJUtE3JsElKBNeCacgaMIvdDVKNrg9Jz4inVPGF6CTMKEfGA03sTzobnn8ZD4kEzUSDkyOexJQqJFaHcpon5Xdk9oeZS6YQ6f%2Br9CP0rqCtNNR%2Bq6DBhc8ltFiKcfZoM%2B64yo7L0A7dBjHLAxPIa9R8mhC48TiVAiioVeIkixfBlxWt571xAr%2FXO2eTE2Qwpkwtqo4MoTTy%2FtPF8ZxSoTNKmiFhgMybOmLz%2Fs%2BiWMz3eE6lRAd2Aug%2BH%2B%2BAOpvJpKufhViEuF%2B9klYzXnkqWRDsGx6uKvDaly3iyY%2FBcTZtqtrHYWvdbbbd68p7YzNPtpbbnubX3J5TEVOZchLNsbrZtfiltfm0XNkyICMOKXvTmmgckGhntgT6zzFit0hjJqo%2BSvj4Tf7xKteiOoF1tbtiiYHWghGD6KtrwLn2K%2FNvOPizjjnjklo69InKfL7jg35jb10MZuoYQrNyBed4XRctJAe5vaIxwjInajO9KxkO%2FqJlevFNnHWVUAbqqTc%2FeWHbvIH1v%2FRTW3qvnjbw0%2FpuGxlblP78N9S3ENP6FiEZF2cUWJh3MlarYBA9jAhtjmAW7hB6vCPXb%2F4%2FQ6hh7cy2PkS%2F5oDf6C4hh7bQ4JY394bazqWvhluZZnqzOh7WmBYoWSfGI31caTu7s1RkHaWaNk05unYoFyp0dXfjiKngEGnLswLQ2UgHpoNM4uC9FblprQh6%2BENuBBJmsV6rgARXtw1NzG9J1uNRvsawG2xSg%2FRjVZ0014pZkVUP2rj7CEfRXWENpNaZ0pmKmTczTPbCbQlcNO6EOXbrrAsII2TzDaqQtSXRI3g7STUwHWwpUNt1DEK61%2Bps43NOOTRmthvtMUkqXE0MYBupxmWJKpzxtoBDNHiJ3BbgavTcanQ8He1h7JdB7EK7AsAhdX8flNMOY7hxMB%2FGe3HaGfg1868ZM0zHn7kxdGHFjWxpp1gzWiz9GaXu2rJdj0ITH7w%2Ff4aG1EePpgA7HmbsEdWEF9MW7XU3vpPIaNbm8ulmPYAdyd%2FPjxPbs%2BS5Fw80pC0MDuHEzowjOYjP6VNae%2FgGlUbiP" xlink:title="All present humans\ncount equally\n[1]\n→ GiveWell top charity (AMF)\n(Alexander Berger, Peter Singer)" target="_blank">
<path fill="#cfe6cf" stroke="#5a9367" d="M286,-692C286,-692 110,-692 110,-692 104,-692 98,-686 98,-680 98,-680 98,-632 98,-632 98,-626 104,-620 110,-620 110,-620 286,-620 286,-620 292,-620 298,-626 298,-632 298,-632 298,-680 298,-680 298,-686 292,-692 286,-692"/>
<text text-anchor="middle" x="198" y="-677.2" font-family="Helvetica,sans-Serif" font-size="11.00" fill="#1e3a24">All present humans</text>
<text text-anchor="middle" x="198" y="-665.2" font-family="Helvetica,sans-Serif" font-size="11.00" fill="#1e3a24">count equally</text>
<text text-anchor="middle" x="198" y="-653.2" font-family="Helvetica,sans-Serif" font-size="11.00" fill="#1e3a24">[1]</text>
<text text-anchor="middle" x="198" y="-641.2" font-family="Helvetica,sans-Serif" font-size="11.00" fill="#1e3a24">→ GiveWell top charity (AMF)</text>
<text text-anchor="middle" x="198" y="-629.2" font-family="Helvetica,sans-Serif" font-size="11.00" fill="#1e3a24">(Alexander Berger, Peter Singer)</text>
</a>
</g>
</g>
<!-- w0&#45;&gt;w1 -->
<g id="edge1" class="edge">
<title>w0&#45;&gt;w1</title>
<path fill="none" stroke="#9aa6b3" d="M198,-768.78C198,-749.57 198,-724.03 198,-702.21"/>
<polygon fill="#9aa6b3" stroke="#9aa6b3" points="201.5,-702.17 198,-692.17 194.5,-702.17 201.5,-702.17"/>
<text text-anchor="middle" x="264" y="-732.8" font-family="Helvetica,sans-Serif" font-size="9.00" fill="#5b6675">drop the nationality discount</text>
</g>
<!-- w1_2 -->
<g id="node3" class="node">
<title>w1_2</title>
<g id="a_node3"><a xlink:href="https://viewer.diagrams.net/?lightbox=1&nav=1&chrome=0#Uhttps%3A%2F%2Fraw.githubusercontent.com%2Fmorganrivers%2Ftrain_to_crazy_town%2Fmain%2Fdiagram%2Ftrain_tree__w1_2.drawio" xlink:title="Animals count\n(neuron&#45;weighted)\n[1+2]\n→ The Humane League\n▼ 63 more worldviews" target="_blank">
<path fill="#e6e2c0" stroke="#b0a04a" stroke-width="2.4" stroke-dasharray="5,2" d="M185.5,-539C185.5,-539 62.5,-539 62.5,-539 56.5,-539 50.5,-533 50.5,-527 50.5,-527 50.5,-479 50.5,-479 50.5,-473 56.5,-467 62.5,-467 62.5,-467 185.5,-467 185.5,-467 191.5,-467 197.5,-473 197.5,-479 197.5,-479 197.5,-527 197.5,-527 197.5,-533 191.5,-539 185.5,-539"/>
<path fill="none" stroke="#b0a04a" stroke-width="2.4" stroke-dasharray="5,2" d="M189.5,-543C189.5,-543 58.5,-543 58.5,-543 52.5,-543 46.5,-537 46.5,-531 46.5,-531 46.5,-475 46.5,-475 46.5,-469 52.5,-463 58.5,-463 58.5,-463 189.5,-463 189.5,-463 195.5,-463 201.5,-469 201.5,-475 201.5,-475 201.5,-531 201.5,-531 201.5,-537 195.5,-543 189.5,-543"/>
<text text-anchor="middle" x="124" y="-524.2" font-family="Helvetica,sans-Serif" font-size="11.00" fill="#3a3410">Animals count</text>
<text text-anchor="middle" x="124" y="-512.2" font-family="Helvetica,sans-Serif" font-size="11.00" fill="#3a3410">(neuron&#45;weighted)</text>
<text text-anchor="middle" x="124" y="-500.2" font-family="Helvetica,sans-Serif" font-size="11.00" fill="#3a3410">[1+2]</text>
<text text-anchor="middle" x="124" y="-488.2" font-family="Helvetica,sans-Serif" font-size="11.00" fill="#3a3410">→ The Humane League</text>
<text text-anchor="middle" x="124" y="-476.2" font-family="Helvetica,sans-Serif" font-size="11.00" fill="#3a3410">▼ 63 more worldviews</text>
</a>
</g>
</g>
<!-- w1&#45;&gt;w1_2 -->
<g id="edge2" class="edge">
<title>w1&#45;&gt;w1_2</title>
<path fill="none" stroke="#9aa6b3" d="M168.16,-619.63C155.67,-604.83 144,-591 144,-591 144,-591 139.8,-572.73 135.25,-552.94"/>
<polygon fill="#9aa6b3" stroke="#9aa6b3" points="138.66,-552.13 133.01,-543.17 131.83,-553.7 138.66,-552.13"/>
<text text-anchor="middle" x="209" y="-583.8" font-family="Helvetica,sans-Serif" font-size="9.00" fill="#5b6675">add an animal welfare range</text>
</g>
<!-- w1_3 -->
<g id="node4" class="node">
<title>w1_3</title>
<g id="a_node4"><a xlink:href="https://www.squiggle-language.com/playground#code=eJylVm1z4jYQ%2Fis7mXZKaEJsyN01dPhAgLxMuV6GpL3phEwi7DVWI0seScbhcvnvXdkQIJg2M%2FUXjLV6dvdZ7aN93gsxYpmwPRXiXnvv6Ag6nQ7caMYlWAWBZt%2Fm9JJLGGdNzz%2BGXGkRzjjmkPv3LagZq1Jo7bttY0nbu8ZkSWq5khDEhNIGD1KmVRBzJhyIf9IEHyKm71nO5vdxljBplgstiDKbaVx8vk%2BYtajvc27j%2B5CbQGXScjktPA1YEANbueMGGFzNbUzvERcIlMJq2RyBjZkFFobmADRS3lyiAaULMI2HFCVLkNxxQ99tjGUCPxmKSQYFxq8QqCRVhkJYGdBeGSIh0iduCjRjmQyZUBIhIWJFAx5eeRvMHlyobjs%2BpRhY2jhjIkNQUYGworhRgJ2isTDJ5pA5N26jwfXE2nDOZ%2FgVhQBXC4pJczuHWvfz2X6JcD74fTDq3gz6MJnDFCVqZrGRzpc1xZDbDarqtHgAUtkyIMcmIRVYfa4pZsAocj9ENboyKD0lnlLNE6bnMCEXEQ84vR%2FA6eDsy2hAPGgmCoQc%2BTR2VSRWhHKnLOYPZfWEmkqlEzooJ96P0LuEmtKU86GKDhM2ldxmIcLpl5tBz2VmVJb%2Bxm0Qo%2BwzMb9C%2FYcJoQPPYwmQokoFXqBIMXxd8RreB%2BfQa3xwNjlxNkGK5JzK6CBKE88vbTzfGRVnDnXEApsxccrk459FtZxpa4enegV0HWo%2BHO6C2x%2FLl7GchhuJuFi840UwXnMsWRJtGbQWGXlNCpfxZMtgmU2Tcrax2Fj3G023evyJ2MzTzaWm57m1T8cUxFjmXISTbGo2bT6WNr80CxsmRIRhRS26U80DUpmMzkCPWWasVmmMZNVDSV%2BXxLcWoRbVEXSqzTWbFaz2lRBMX0Zru8s9RfxNZx%2BWfoc8ckstr%2FDc4zMu%2BDfmzvVAhq4gBCu3YJbnoig5KcDjNbURjjBR6%2F5dynjoFznTi3firEvFclmbrr227NFB%2Bt7qKay9N887ean%2FNw31jcx%2Ffh%2Fqe4ip%2FwsR9Yq0iyNMOpgrVXEInkYENsIwC7YJbS0I9Zv%2Fj9BqHztjLa%2BR27zfHf4FxLB2WpySxv5w117XtXBD8yxPFvfDStMCRYukeMTvGw2n7ezNlQhpZo2TTm6digXK3R0duHUZPAM1ObZhvDdUAemg0zh4LEVuvHcAefhKbBsSZLJWqYL7lLQPLwebkK7CpX6LeTXYugDtxqi%2Ba6oRNySrGrJ7%2BRmOoLfAGkirMaU7FTNtYp7ugF0XumrYG6rQhRsjEIbIphlWI21IokPytpCuY7rYUqC0aWxBuNLqb%2BJwRznWZbQa7itJKQ0nhjAM1OIyxJRueTpAIZodRG4LcDV6dzg8G%2FR3sPZGoAviSMc%2BVtQEDIvQ1XZUdjSMaO5gOoh3xLfV%2BKvw7lyrabrq3NzUgSE3tqGR%2Bs1grfhjlLan81rZCgfw%2FP3pOzw11ny87NMFOXGDUAcWQLfe3aKDbypHqZuLy%2BtVG7Yhd9MfJ8Yny3mKGpxTFIaacG06Iw%2FOYt37WO69%2FAPkM8vh" xlink:title="Future humans count\n(discounted)\n[1+3]\n→ GiveWell top charity (AMF)\n(Frank Ramsey, Tyler Cowen)" target="_blank">
<path fill="#f2e3b3" stroke="#c9a72a" d="M406.5,-539C406.5,-539 249.5,-539 249.5,-539 243.5,-539 237.5,-533 237.5,-527 237.5,-527 237.5,-479 237.5,-479 237.5,-473 243.5,-467 249.5,-467 249.5,-467 406.5,-467 406.5,-467 412.5,-467 418.5,-473 418.5,-479 418.5,-479 418.5,-527 418.5,-527 418.5,-533 412.5,-539 406.5,-539"/>
<text text-anchor="middle" x="328" y="-524.2" font-family="Helvetica,sans-Serif" font-size="11.00" fill="#57450e">Future humans count</text>
<text text-anchor="middle" x="328" y="-512.2" font-family="Helvetica,sans-Serif" font-size="11.00" fill="#57450e">(discounted)</text>
<text text-anchor="middle" x="328" y="-500.2" font-family="Helvetica,sans-Serif" font-size="11.00" fill="#57450e">[1+3]</text>
<text text-anchor="middle" x="328" y="-488.2" font-family="Helvetica,sans-Serif" font-size="11.00" fill="#57450e">→ GiveWell top charity (AMF)</text>
<text text-anchor="middle" x="328" y="-476.2" font-family="Helvetica,sans-Serif" font-size="11.00" fill="#57450e">(Frank Ramsey, Tyler Cowen)</text>
</a>
</g>
</g>
<!-- w1&#45;&gt;w1_3 -->
<g id="edge3" class="edge">
<title>w1&#45;&gt;w1_3</title>
<path fill="none" stroke="#9aa6b3" d="M242.76,-619.63C261.5,-604.83 279,-591 279,-591 279,-591 291.06,-569.59 303.21,-548.01"/>
<polygon fill="#9aa6b3" stroke="#9aa6b3" points="306.35,-549.57 308.21,-539.14 300.25,-546.13 306.35,-549.57"/>
<text text-anchor="middle" x="357.5" y="-583.8" font-family="Helvetica,sans-Serif" font-size="9.00" fill="#5b6675">count future people, discounted</text>
</g>
<!-- w1_3_4 -->
<g id="node5" class="node">
<title>w1_3_4</title>
<g id="a_node5"><a xlink:href="https://www.squiggle-language.com/playground#code=eJylVmFz4jYQ%2FSs7mXZKKCE2cL2GDh8IIZfMcb1MkvamEzKcsNdYjSx5JBmHy%2BW%2Fd2VDgGDazJQvcaTV29230tt9OggxYpmwAxXiQffg%2BBh6vR7casYlWAWBZt8W9JFLGGctz%2B9ArrQI5xxzyP1Je9KBmrEqhc6hOziWBNA3JktSy5WEICacLniQMq2CmDPhYPyTFvgQMT1hOVtM4ixh0qw22hBlNtO4XJ4kzFrUk5zbeBJyE6hMWi5nK%2FMOSLW5Ptk6XcQzZEEMbB0UN8DgamFj%2Bo64QKBU19vmGGzMLLAwNA3QSPxwiQaULsA0HlEuLEEKihtatzGWaf5kKHIZFBi%2FQaCSVBkX6IsBnZUhEiIt8TI0Y5kMmVASIaECiCZ8feF3OP%2FqQnXH8THFwNLBORMZgooKhHUpmgXYKRoL02wBmXPjDhrcTKwL%2FUswLEK7gNo1hrlSIVyTEdNBfFhifBj%2BPrzu3w7PYLqAGUrUzGIzXayqjyG3W2TVabNBNbBlSI5PQiqwzrimqAGjyP0hstEVQukZMZVqnjC9gCm5iHjA6bsBp8Pzz9dDYkIzUSDkyGexqyrxIpS7jzH%2FWtZPqJlUOqELdeL9CINLqClNWR%2Bp6ChhM8ltFiKcfr4dDlxmRmXpR26DGOUZE4sr1H%2BYEHrwNJYAKapU4AWKFMOXHa%2FpvXMOveY7Z5OjEFOkSD5QIR1EaeL5pY3nO6PiDqKOWGAzJk6ZfPizqJczbe%2FxVK%2BArkPNh6N9cIdj%2BTyWs3ArEReL11kG47XGkiXRjkF7mZHXonAZT3YMVtm0KGcbi619v9lyu533xGaebm%2B1PM%2Ftve9QEGOZcxFOs5nZtvmltPm1VdgwISIMK2rRn2kekB5ldAcGzDJjtUpjJKsBSlpdEd9ehlpUR%2FA5mhs2L1g9U0IwfRltnC7PFPG3nH1Y%2Bh3xyG21vcLzgM%2B54N%2BYu9dDGbqCEKzcgVndi6LkpAEPNzHTeI2J2vTvUsYjv8iZPrwTZ11qk8va9O2NZQ8O0vfWv8Lae%2FV7Iy%2F1%2F6ahvpX5z29DfQsx9X8hol6RdnGFdSlBu5fg8ZrASKCyYJfQ9pJQv%2FX%2FCK32sTfWspHc5Wf90V9ADGunximp7A%2F33U1dC7c0z%2FJk2SHWmhYo2iTFI35fqTgdZ69aJ6SZNU46uXUqFijXPXpw5zJ4Anrk2IXxwUgFpINO4%2BChFLnxQQPy8IXYLiTIZK1SBQ8paR%2BeG9uQrsKlfotFNdimAO3H%2BELiBm4%2BoHQ0d42n%2F%2Bn8sBpxS7KqIfuXn%2BAYBkusobQaU%2BqqmGkT83QP7KbQVcPeUoUu3MCAMEI2y7AaaUsSHZK3g3QTU2NLgdKm8QbhSqu%2FicM95diU0Wq4LySlNJ4YwjBQi8sQU%2BrzdIFCNHuI3BXgavT%2BaHQ%2BPNvD2iuB3leP%2FQNFNe7Oo18D37tnpqnNuampByNubFMjvTWDteIfo7Q9XdTKZ9CAp%2B%2BP3%2BGxueHj%2BZCa49SNQT1YAt1598vXe1s5SN1eXN6sn2AXcjf7cWJ7upqm6HFzisLQA9yYzciDs9j0PpYHz%2F8AWgbaVg%3D%3D" xlink:title="No pure&#45;time discount\n(astronomical stakes)\n[1+3+4]\n→ AI safety (Redwood Research)\n(Toby Ord, Nick Bostrom)" target="_blank">
<path fill="#f6e0c0" stroke="#c9932a" d="M416,-386C416,-386 240,-386 240,-386 234,-386 228,-380 228,-374 228,-374 228,-326 228,-326 228,-320 234,-314 240,-314 240,-314 416,-314 416,-314 422,-314 428,-320 428,-326 428,-326 428,-374 428,-374 428,-380 422,-386 416,-386"/>
<text text-anchor="middle" x="328" y="-371.2" font-family="Helvetica,sans-Serif" font-size="11.00" fill="#5a3f10">No pure&#45;time discount</text>
<text text-anchor="middle" x="328" y="-359.2" font-family="Helvetica,sans-Serif" font-size="11.00" fill="#5a3f10">(astronomical stakes)</text>
<text text-anchor="middle" x="328" y="-347.2" font-family="Helvetica,sans-Serif" font-size="11.00" fill="#5a3f10">[1+3+4]</text>
<text text-anchor="middle" x="328" y="-335.2" font-family="Helvetica,sans-Serif" font-size="11.00" fill="#5a3f10">→ AI safety (Redwood Research)</text>
<text text-anchor="middle" x="328" y="-323.2" font-family="Helvetica,sans-Serif" font-size="11.00" fill="#5a3f10">(Toby Ord, Nick Bostrom)</text>
</a>
</g>
</g>
<!-- w1_3&#45;&gt;w1_3_4 -->
<g id="edge4" class="edge">
<title>w1_3&#45;&gt;w1_3_4</title>
<path fill="none" stroke="#9aa6b3" d="M328,-466.98C328,-445.9 328,-418.84 328,-396.17"/>
<polygon fill="#9aa6b3" stroke="#9aa6b3" points="331.5,-396.09 328,-386.09 324.5,-396.09 331.5,-396.09"/>
<text text-anchor="middle" x="392.5" y="-426.8" font-family="Helvetica,sans-Serif" font-size="9.00" fill="#5b6675">drop the pure&#45;time discount</text>
</g>
<!-- w1_3_4_9 -->
<g id="node6" class="node">
<title>w1_3_4_9</title>
<g id="a_node6"><a xlink:href="https://www.squiggle-language.com/playground#code=eJylVmFz4jYQ%2FSs7TDslNCEGcr1Chw8EyCVzXC9DaG86IcMJe43VyJJHkuNwufz3rmwIEEybmfIljnb1dvet9LRPlQBDlgrbVwFWOpXTU%2Bh2uzDRjEuwCnzNvi3pI5MwTZte4wwypUXwwDGDrDFrzc5mbagaqxJoH7mtU0kQPWPSOLFcSfAjQuqABwnTyo84Ew6o0W5CA0KmZyxjy1mUxkyataEFYWpTjavlWcysRT3LuI1mATe%2BSqXlcrF2PwOpttdnO7vXXm0Q%2FMFZuZwZHqeCufTybIfMj4BtUuYGGFwvbUTfIRcIRMXGbE7BRswCCwJzDBqJPy7RgNI5mMYTqpTFSClzQ%2Bs2woKEnwzVJf0c4zfwVZwo48p4caC9MkBCpCVucjRjmQyYUBIhpgaJOnx94X%2F48NWl6rbjY4K%2BpY0PTKQIKswRNq2q52DnaCzM0yWkLozbaHC7sA70rsCwEO0SqmMMMqUCGJMT0350VGB8GP4%2BHPcmwwHMl7BAiZpZrCfL9enAgNsdsmpkPKYO2SIlxych5VgDrilrwDB0f4hsdI1QekFMJZrHTC9hTiFC7nP6Pobz4cXn8ZCY0EzkCBnyReR6TrwI5c5rxL8W%2FRNqIZWO6bi1vR%2BhfwVVpanqExWexGwhuU0DhPPPk2HfVWZUmnzk1o9QDphYXqP%2BwwTQhaepBEhQJQIvUSQYvFi8uvfOBfTq75xPhkLMkTL5QI10EIWL1yh8vIZzyk8o6pD5NmXinMn7P%2FN%2BOdfWgUi1EugaVBtwcgjuaCqfp3IR7BTicvHOVsl4zalkcbjn0FpV5DUpXcbjPYd1NU2q2UZix96oN5317D2xmSW7pqbnOdv7M0piKjMugnm6MLs%2BvxQ%2BvzZzHyZEiEFJL3oLzX3Sq5TOQJ9ZZqxWSYTk1UdJq2viW6tU8%2B7Q1Udzwx5yVgdKCKavwq3dxZ48%2F6bzD4q4Ix46U8vLI%2FdJPwT%2FluvGUAauIQQr92DW5yJvOWnA%2FU3ENI4xVtvxXcl40shrpg%2Bv7bwL5XJVm569sezeQTa8zS%2F39l793shL7b9pqO1U%2FvPbUN9CTO1fiKiVlJ0fYV1I0P4heBwTGAlU6u8T2loR2mj%2BP0LLYxzMtXhIbrNBb%2FQXEMPaqXFCKvvDXWdb14IdzbM8Xr0QG03zFRlJ8YjfVypO29mrhxWS1Bonndw6FfOVez26cOsqeAK65NiBaWWkfNJBp3FwX4jctHIMWfBCbAdiZLJaqoJHVHQDno93IV2HC%2F0Wy3KwbQE6jPGFxA3c9EDlaO4ent6ni6NyxB3JKofsXX2CU%2BivsIbSakzoVcVUm4gnB2C3ha4cdkIdunTjBMII2SLFcqQdSXRI3h7STUQPWwJUNg0%2FCNda%2FU0cHmjHtoyWw30hKaXxxBCGgWpUpJjQO08HKEBzgMh9AS5H741GF8PBAdZeCXSOUC%2FryOGRohx579pvQ9%2B5q6bpqXOTUxdG3Ni6RrpvBqv5P0Zpe76sFlfhGJ6%2BP36Hx%2FpWlOcjeiDnbhTqwgro1rtb3eBJ6TA1uby62VzDDmRu%2FuPE%2BHw9UdEF55SFoUu4NZ9RBOexHX0qK8%2F%2FAK5B5ko%3D" xlink:title="Living in\na simulation\n[1+3+4+9]\n→ AI safety (Redwood Research)\n(Nick Bostrom)" target="_blank">
<path fill="#eeb3b3" stroke="#c0392b" d="M400,-237C400,-237 224,-237 224,-237 218,-237 212,-231 212,-225 212,-225 212,-177 212,-177 212,-171 218,-165 224,-165 224,-165 400,-165 400,-165 406,-165 412,-171 412,-177 412,-177 412,-225 412,-225 412,-231 406,-237 400,-237"/>
<text text-anchor="middle" x="312" y="-222.2" font-family="Helvetica,sans-Serif" font-size="11.00" fill="#5a1410">Living in</text>
<text text-anchor="middle" x="312" y="-210.2" font-family="Helvetica,sans-Serif" font-size="11.00" fill="#5a1410">a simulation</text>
<text text-anchor="middle" x="312" y="-198.2" font-family="Helvetica,sans-Serif" font-size="11.00" fill="#5a1410">[1+3+4+9]</text>
<text text-anchor="middle" x="312" y="-186.2" font-family="Helvetica,sans-Serif" font-size="11.00" fill="#5a1410">→ AI safety (Redwood Research)</text>
<text text-anchor="middle" x="312" y="-174.2" font-family="Helvetica,sans-Serif" font-size="11.00" fill="#5a1410">(Nick Bostrom)</text>
</a>
</g>
</g>
<!-- w1_3_4&#45;&gt;w1_3_4_9 -->
<g id="edge5" class="edge">
<title>w1_3_4&#45;&gt;w1_3_4_9</title>
<path fill="none" stroke="#9aa6b3" d="M324.17,-313.79C322,-293.86 319.26,-268.73 316.93,-247.34"/>
<polygon fill="#9aa6b3" stroke="#9aa6b3" points="320.39,-246.74 315.83,-237.18 313.43,-247.5 320.39,-246.74"/>
<text text-anchor="middle" x="409" y="-277.8" font-family="Helvetica,sans-Serif" font-size="9.00" fill="#5b6675">take the simulation argument seriously</text>
</g>
<!-- w1_3_4_10 -->
<g id="node8" class="node">
<title>w1_3_4_10</title>
<g id="a_node8"><a xlink:href="https://www.squiggle-language.com/playground#code=eJylVmFz4jYQ%2FSs7mXYKNCE2JL2GDh8IkEvmuF4mSXvTCRki7DVWI0seSY7D5fLfu7IhQDBtZsonI63e7r6V3u7zXogRy4TtqxD3OnuHh9DtduFGMy7BKgg0%2Bzanj1zCOGt5%2FhHkSovwkWMOuT9pT44mvgc1Y1UKvld3h8eSQHrGZElquZIQxITVAQ9SplUQcyYclH%2FSAh8ipicsZ%2FNJnCVMmuVGG6LMZhoXy5OEWYt6knMbT0JuApVJy%2BVsaX4EUq2vTzZOv3qjCFAbJScsijAoDF0eRbxDFsTAVkFzAwwu5zam74gLBKJjtW0OwcbMAgtDsw8aiUMu0YDSBZjGA8qVJUhBc0PrNsaShp8MZSaDAuM3CFSSKuMSeTWgszJEQqQlbgo0Y5kMmVASIaEiiSbcv9Zg%2BHjvQnXH8SmlpOjgIxMZgooKhFW5mgXYKRoL02wOmXPjDhpcT6wDvQswLEI7h9oVhrlSIVyREdNBXC8xPg5%2FH171boYDmM5hhhI1s9hM58sbgiG3G2Q1aHOfamTLkByfhFRgDbimqAGLigCRja4QSs%2BIqVTzhOk5TMlFxANO3%2FtwOjz7cjUkJjQTBUKOfBa7YhIvQrk7G%2FP7sn5CzaTSCV24E%2B9H6F9ATWnK%2BkBFBwmbSW6zEOH0y82w7zIzKks%2FcRvEKAdMzC9R%2F2FC6MLzWALdHJUKPEeRYvi64zW9Y%2BfQax47mxyFmCJF8pEK6SBKE88vbTzfGRV3FHXEApsxccrkw59FvZxpe4enRgV0A2o%2BHOyCq4%2Fly1jOwo1EXCze0SIYrzWWLIm2DNqLjLwWhct4smWwzKZFOdtYbOz7zZbbPfpAbObp5lbL89zehyMKYixzLsJpNjObNr%2BUNr%2B2ChsmRIRhRS16M80D0qyM7kCfWWasVmmMZNVHSatL4tuLUIvqCP6I5po9FqwOlBBMX0Rrp8szRfwtZx%2BWfkc8clttr%2FDc549c8G%2FM3euhDF1BCFZuwSzvRVFy0oCH65hpvMJErft3KeOBX%2BRMH96Jsy61y2VtevbasgcH6XurX2Htvfm9k5fGf9PQ2Mj85%2FehvoeYxr8Q0ahIu7jCupSg7UvwdEVgJFBZsE1oe0Go3%2Fp%2FhFb72Blr2Uhu80Fv9BcQw9qpMbUc%2BOGus65r4YbmWZ4sOsRK0wJFm6R4xO8bFafj7E1rhTSzxkknt07FAuW6RxduXQbPQI8cOzDeG6mAdNBpHDyUIjfe24c8fCW2AwkyWatUwTol7cPL%2Fiakq3Cp32JeDbYuQLsxvpK4gRsgKB3NXePpfT6rVyNuSFY1ZO%2FiMxxCf4E1lFZjSl0VM21inu6AXRe6atgbqtC5GygQRshmGVYjbUiiQ%2FK2kK5jamwpUNo0%2FiBcavU3cbijHOsyWg33laSUxhNDGAZqcRliSn2eLlCIZgeR2wJcjd4bjc6Ggx2svRFoh9AmHTuuqMnuoaIae%2Bvhb4Lfueemqd256akLI25sUyO9OYO14o9R2p7Oa%2BVz2Ifn70%2Ff4am55uelTk1y6sahLiyAbr27xSu%2BqRyobs4vrldPsQO5mwE5sT5dTlX0yDlFYeghrs1o5MFZrHsfy72XfwCEEehM" xlink:title="Person&#45;affecting\nview\n[1+3+4+10]\n→ AI safety (Redwood Research)\n(Jan Narveson, Melinda Roberts)" target="_blank">
<path fill="#d7c6e6" stroke="#6a3fa0" d="M824,-88C824,-88 648,-88 648,-88 642,-88 636,-82 636,-76 636,-76 636,-28 636,-28 636,-22 642,-16 648,-16 648,-16 824,-16 824,-16 830,-16 836,-22 836,-28 836,-28 836,-76 836,-76 836,-82 830,-88 824,-88"/>
<text text-anchor="middle" x="736" y="-73.2" font-family="Helvetica,sans-Serif" font-size="11.00" fill="#2c1650">Person&#45;affecting</text>
<text text-anchor="middle" x="736" y="-61.2" font-family="Helvetica,sans-Serif" font-size="11.00" fill="#2c1650">view</text>
<text text-anchor="middle" x="736" y="-49.2" font-family="Helvetica,sans-Serif" font-size="11.00" fill="#2c1650">[1+3+4+10]</text>
<text text-anchor="middle" x="736" y="-37.2" font-family="Helvetica,sans-Serif" font-size="11.00" fill="#2c1650">→ AI safety (Redwood Research)</text>
<text text-anchor="middle" x="736" y="-25.2" font-family="Helvetica,sans-Serif" font-size="11.00" fill="#2c1650">(Jan Narveson, Melinda Roberts)</text>
</a>
</g>
</g>
<!-- w1_3_4&#45;&gt;w1_3_4_10 -->
<g id="edge6" class="edge">
<title>w1_3_4&#45;&gt;w1_3_4_10</title>
<path fill="none" stroke="#9aa6b3" d="M426.14,-313.91C467.83,-299 507,-285 507,-285 507,-285 670,-136 670,-136 670,-136 685.6,-116.38 701.64,-96.21"/>
<polygon fill="#9aa6b3" stroke="#9aa6b3" points="704.53,-98.2 708.01,-88.2 699.05,-93.85 704.53,-98.2"/>
<text text-anchor="middle" x="747" y="-198.8" font-family="Helvetica,sans-Serif" font-size="9.00" fill="#5b6675">give merely&#45;possible future people no weight</text>
</g>
<!-- w1_3_4_9_10 -->
<g id="node7" class="node">
<title>w1_3_4_9_10</title>
<g id="a_node7"><a xlink:href="https://www.squiggle-language.com/playground#code=eJylVmFz4jYQ%2FSs7TDslNCE2cHcNHT4QQi6Zcr1MQnvTCRlO2GusRpY8khyHy%2BW%2Fd2VDgGDazJRPRlo97XsrvdVTLcSIZcIOVIi1bu34GHq9How14xKsgkCzbwv6yCVMspbndyBXWoQPHHPI%2FWl72pmeTH0P6saqFHzvwC2fSILpG5MlqeVKQhATWhc8SJlWQcyZcGD%2BSQt8iJiespwtpnGWMGlWE22IMptpXA5PE2Yt6mnObTwNuQlUJi2X81V4B6TaHJ9urV5FnYDgD26Wy6nhSSZYkd4qF8oPtVFyyqIIgwLG8SzYDFkQA1tT4gYYXC1sTN8RFwgk13raHIONmQUWhuYQNJLGXKIBpQswjUekBEuQKHFD4zbGUqSfDPGWQYHxKwQqSZVxNF8CaK0MkRBpiJsCzVgmQyaUREioiKIJX19qNHz46lJ1y%2FExJVK08IGJDEFFBcK6nM0C7BSNhVm2gMxt4xYa3CTWhf4lGBahXUD9GsNcqRCuKYjpID4oMT4Ofx9e98fDM5gtYI4SNbPYTBerE4Qht1tiNWjykCpoy5ScnoRUYJ1xTVkDFhUBEhtdIZSek1Kp5gnTC5jRFhEPOH0fwunw%2FPP1kJTQTBQIOfJ57IpJugjlznTMv5b1E2oulU7oOJ54P8LgEupKE%2BsjFR0lbC65zUKE08%2Fj4cAxMypLf%2BM2iFGeMbG4Qv2HCaEHTxMJdHJUKvACRYrhy4zX9N65Db3mOxeToxAzpEw%2BUiEdRBni%2BWWM57ug4gSjjlhgMyZOmbz%2Fs6iXC23v2alRAd2Aug9H%2B%2BAOJvJ5IufhFhGXi9dZJuO1JpIl0U5Ae8nIa1G6jCc7ASs2LeJsY7E17zdbbrbzgdTM0%2B2plue5uQ8dSmIicy7CWTY32zHvy5hfWkUMEyLCsKIW%2FbnmAXlaRmdgwCwzVqs0RooaoKTRlfDtZapFdcga0Nywh0LVMyUE05fRxupyTZF%2Fy8WH5b4jHrmptlfsPCB%2FEfxb4StDGbqCEKzcgVmdi6Lk5AH3NzHTeI2J2tzfUcYjv%2BBMH96Jiy6dzbE2fXtj2b2D9L31r4j2Xv3eqEvjv2VobDH%2F%2BW2obxGm8S9CNCpoF0dYlxa0ewgerwmMDCoLdgVtLwX1W%2F9P0Oo99uZaNpLb%2FKw%2F%2BgtIYe3cmFoO%2FHDX3fS1cMvzLE%2BWHWLtaYGiSXI80veVi9Ny9qrxQppZ46yTW%2BdigXLdowe3jsET0CXHLkxqIxWQDzqPg%2FvS5Ca1Q8jDF2G7kCCT9UoXPCDSPjwfbkO6Cpf%2BLRbVYJsGtB%2FjC5kbuOcF0dHcNZ7%2Bp%2FODasQty6qG7F9%2BgmMYLLGG0mpMqatipk3M0z2wm0ZXDTumCl245wbCCNk8w2qkLUt0SN4O0k1MjS0Fok2PI4Qrrf4mDfeUY9NGq%2BG%2BkJXS88QQhoF6XKaYUp%2BnAxSi2SPkrgFXo%2FdHo%2FPh2R7VXhm0Q2iTj72vqMn%2BR0U19s7F3wa%2Fc9dNU7tzr6cejLixTY105wzWiz9GaXu6qJfX4RCevj9%2Bh8fmxj7PB9QkZ%2B451IMl0K13t7zF48oH1fji8mZ9FbuQuzcgJ9Vnq1cVXXJOWRi6iBtvNNrBRWzuPpG1538Ak2fzgQ%3D%3D" xlink:title="Person&#45;affecting\nview\n[1+3+4+9+10]\n→ AI safety (Redwood Research)\n(Jan Narveson, Melinda Roberts)" target="_blank">
<path fill="#d7c6e6" stroke="#6a3fa0" d="M588,-88C588,-88 412,-88 412,-88 406,-88 400,-82 400,-76 400,-76 400,-28 400,-28 400,-22 406,-16 412,-16 412,-16 588,-16 588,-16 594,-16 600,-22 600,-28 600,-28 600,-76 600,-76 600,-82 594,-88 588,-88"/>
<text text-anchor="middle" x="500" y="-73.2" font-family="Helvetica,sans-Serif" font-size="11.00" fill="#2c1650">Person&#45;affecting</text>
<text text-anchor="middle" x="500" y="-61.2" font-family="Helvetica,sans-Serif" font-size="11.00" fill="#2c1650">view</text>
<text text-anchor="middle" x="500" y="-49.2" font-family="Helvetica,sans-Serif" font-size="11.00" fill="#2c1650">[1+3+4+9+10]</text>
<text text-anchor="middle" x="500" y="-37.2" font-family="Helvetica,sans-Serif" font-size="11.00" fill="#2c1650">→ AI safety (Redwood Research)</text>
<text text-anchor="middle" x="500" y="-25.2" font-family="Helvetica,sans-Serif" font-size="11.00" fill="#2c1650">(Jan Narveson, Melinda Roberts)</text>
</a>
</g>
</g>
<!-- w1_3_4_9&#45;&gt;w1_3_4_9_10 -->
<g id="edge7" class="edge">
<title>w1_3_4_9&#45;&gt;w1_3_4_9_10</title>
<path fill="none" stroke="#9aa6b3" d="M389.51,-164.82C422.28,-149.95 453,-136 453,-136 453,-136 463.82,-116.89 475.08,-97.02"/>
<polygon fill="#9aa6b3" stroke="#9aa6b3" points="478.19,-98.63 480.07,-88.2 472.09,-95.18 478.19,-98.63"/>
<text text-anchor="middle" x="559" y="-128.8" font-family="Helvetica,sans-Serif" font-size="9.00" fill="#5b6675">give merely&#45;possible future people no weight</text>
</g>
<!-- w1_3_4_9_12 -->
<g id="node9" class="node">
<title>w1_3_4_9_12</title>
<g id="a_node9"><a xlink:href="https://www.squiggle-language.com/playground#code=eJylVmFv4kYQ%2FSujqFUJTYhtuF5DxQcC5BId14tI2lMVIt9ij%2FE2611rdx2Hy%2BW%2Fd9aGBBLSIpUvGO%2FMm5k3w5t92IsxYYWwAxXjXnfv6Ah6vR5cacYlWAWRZt8W9FBKmBaB53egVFrEdxxLKP2wHXbC49APoGGsysEP9p37VBJM35giyy1XEqKU0LrgQc60ilLOhAPzjwPwIWE6ZCVbhGmRMWlWB21ICltoXL4OM2Yt6rDkNg1jbiJVSMvlfGXeAanW34cb3iurYxD8zp1yGRqeFYJV6a1yCSBTmgluFyE3oVQ21MhEVcyIRSmw54q4AQYXC5vSc8IFArH1fGyOwKbMAotjcwAaiWIu0YDSFZjGQyKCZUgVcUPvbYo1Rz8ZKltGFcZvEKksV8ZV%2BWRAvjJGQqRX3FRoxjIZM6EkUvoxihZ8fWrR6O6rS9W5432OkSXHOyYKBJVUCM%2FdbFVgJ2gszIoFFC6MczS4XliXeCa%2Fmng3DZrJW%2FczIS5riA%2Bj30eT%2FtVoCLMFzFGiZhZb%2BWLlgTG3G1w16fDA4dYZOToJqcIack1JAyaJ%2ByKu0fVB6TkRlWueMb2AGYVIeMTp%2BQBORqefJ6O6jxVCiXyeuokgWoRyE53yr3X7hJpLpTMaxmPvRxicQ0NpKvpQJYcZm0tuixjh5PPVaLBP%2BRhV5B%2B5jVKUQyYWF6j%2FMDH04GEqAXJUucAzFDnGTydey3vnAnqtd86mRCFmSJl8oD46iNrE82sbz3dG1fyiTlhkCyZOiNw%2Fq3Y50%2FYbkZpboJvQ8OHwLbj9qXycynm8UYjLxessk%2FGCqWRZ8sqgvazICyhdxrNXBqtqAqrZpmLj3G8F7rTzntgs882jwPPc2fsOJTGVJRfxrJibTZtfaptfg8qGCZFgvKUX%2FbnmESlaQTMwYJYZq1WeIlkNUNLbFfHtZapVd0gY0Fyyu4rVoRKC6fNkzbv2qfIPnH1cxx3zxB21vSrygNRF8G%2BVqoxk7BpCsPIVzGouqpaTBNxepkzjBDO1Ht%2BVjId%2BVTM9eMfOutY1V7Xp20vLbh2k7z1%2FKmvvxWdHXpr%2FTUNzo%2FKfd0PdhZjmvxDR3FJ2NcIkhKVSW4bgfkJgE4yL6DWh7SWhfvD%2FCN0e481c6z1yXQ7747%2BAGNZOjHMS2R9uuuu6Fm9onuXZckE8a1qk6JAUj%2Fh9IeLkzl6sXcgLa5x0cqfPtCDd8ujBtavgAehPjl2Y7o1VRDroNA5ua5Gb7h1AGT8R67b348Gmk%2BthrdBisaP5F1IqcDcFyk3TooVG%2F9Pp%2Fg7O%2FfNPcASDpddIWo057UIstEl5vgPAFVF45m4DCGNk8wJ38LlMacfkQEnTLQXhQqu%2FqdgdHL%2BQftGVwJC1gUZah81pt1LXYjQ7FTwen46GOzEDhiXouJzUfweY0NZmOkrfinPjpnG1uXsw5sa2NNJIGmxUP4zS9mTRqKflAB6%2B33%2BH%2B9Ya0uM%2B7ZCZuyz0VleAa%2B9mOeRXW68bV2fnl8%2BT2oXS3ZA48TNb3TnoP8ApC0NzunaDoQjOYj36VO49%2FgPPvaXK" xlink:title="Morality is not real\n(anti&#45;realism)\n[1+3+4+9+12]\n→ nothing — ranking flat\n(J. L. Mackie)" target="_blank">
<path fill="#c9b3dd" stroke="#4a2a78" d="M160,-88C160,-88 28,-88 28,-88 22,-88 16,-82 16,-76 16,-76 16,-28 16,-28 16,-22 22,-16 28,-16 28,-16 160,-16 160,-16 166,-16 172,-22 172,-28 172,-28 172,-76 172,-76 172,-82 166,-88 160,-88"/>
<text text-anchor="middle" x="94" y="-73.2" font-family="Helvetica,sans-Serif" font-size="11.00" fill="#201040">Morality is not real</text>
<text text-anchor="middle" x="94" y="-61.2" font-family="Helvetica,sans-Serif" font-size="11.00" fill="#201040">(anti&#45;realism)</text>
<text text-anchor="middle" x="94" y="-49.2" font-family="Helvetica,sans-Serif" font-size="11.00" fill="#201040">[1+3+4+9+12]</text>
<text text-anchor="middle" x="94" y="-37.2" font-family="Helvetica,sans-Serif" font-size="11.00" fill="#201040">→ nothing — ranking flat</text>
<text text-anchor="middle" x="94" y="-25.2" font-family="Helvetica,sans-Serif" font-size="11.00" fill="#201040">(J. L. Mackie)</text>
</a>
</g>
</g>
<!-- w1_3_4_9&#45;&gt;w1_3_4_9_12 -->
<g id="edge8" class="edge">
<title>w1_3_4_9&#45;&gt;w1_3_4_9_12</title>
<path fill="none" stroke="#c0392b" stroke-dasharray="5,2" d="M250.98,-164.82C225.19,-149.95 201,-136 201,-136 201,-136 174.11,-115.14 147.29,-94.34"/>
<polygon fill="#c0392b" stroke="#c0392b" points="149.42,-91.56 139.38,-88.2 145.13,-97.09 149.42,-91.56"/>
<text text-anchor="middle" x="244.5" y="-128.8" font-family="Helvetica,sans-Serif" font-size="9.00" fill="#5b6675">deny moral realism</text>
</g>
<!-- w1_3_4_9_13 -->
<g id="node10" class="node">
<title>w1_3_4_9_13</title>
<g id="a_node10"><a xlink:href="https://www.squiggle-language.com/playground#code=eJylVmFT4zYQ%2FSs7zHUa0hDshLsr6eRDSMLBNNdjAu1NhzA%2BxV7HKrLkkWRM4PjvXdkJJBBa0uZLbO%2Fu0%2B5b6WnvdyKMWS5sX0W409nZ34dutwsXmnEJVkGo2d2cHgoJk7zl%2BQdQKC2iG44FFH7QDg6Cw8BvQ81YlYHf3nXhE0kwPWPyNLNcSQgTQuuABxnTKkw4Ew7MP2yBDzHTASvYPEjylEmzNLQhzm2ucfE5SJm1qIOC2ySIuAlVLi2Xs6X7AUi1%2Bj1Yi156HYLgN87KZWB4mgtWprfMpQ1TJewdRchg6ggo6xiyMAH2VAw3wOBsbhN6jrlAIKKezGYfbMIssCgyDdBI7HKJBpQuwTTuEQcsRSqGG%2FpuE6zo%2BdFQxTIsMX6BUKWZMq7ARweKlRESIn3ipkQzlsmICSURUmqfaMK3x%2B4Mb765VF043mYYWgq8YSJHUHGJ8NTIZgl2hMbCNJ9D7pZxgQZXC%2BsQxRRXce42gmby2r3GRGMF8Wn423DcuxgOYDqHGUrUzGIzmy8jMOJ2jas6GRsOt8rI0UlIE%2FnYhxHeoIAu%2BLj3AYCWcLXGArFsfiaQGSZdtMpniW24XhSD3ujP%2FXeTqnsDrql2wDh2f9QydO1UekZ8Z5qnTM9hSpnGPOT03ICj4fGX8ZD41EyUCAVygqbliF2h3JlI%2BLdqFwg1k0qntJ0PvR%2Bgfwo1pYm7PRXvpWwmuc0jhKMvF8P%2BLpVlVJ79ym2YoBwwMT9D%2FbuJqLb7iQTIUFE1JygyjB4tXtN77xb0mu%2BdT4FCTJEy%2BUTbwUFULp5f%2BXi%2BcypPAOqYhTZn4oh69EfZdefafmWl%2BgboOtR82HsNbnciHyZyFq0V4nLxDhbJeK2JZGn8wqG9qMhrUbqMpy8cltW0qGabiDW732w568FHYrPI1k0tz3O2jweUxEQWXETTfGbWfT5UPj%2B3Sh8mRIzRhl70ZpqHpIk57YE%2Bs8xYrbIEyauPkr4uiW8vUi27Q9KC5pzdlKwOlBBMn8Yr0VVMmX%2FL%2BUfVuiMeO1PbK1fukz4Jflfq0lBGriEEK1%2FALPdF2XJSkuvzhGkcY6pW168Ojl%2FWTA%2FeofOulNFVbXr23LJrB%2Bl7T7%2FS23v2eyMv9X%2Bnob5W%2BU9vQ30LMfV%2FIKK%2BoexyC5OeFkpt2AS3YwIbY5SHLwltLwj1W%2F%2BP0M1rvJprdR1dlgIHxLB2mp6RVr%2B76qzqWrSmeZani3vmSdNCRUZSPJT22V1A4ezZxQ1Zbo2TTu5knq5Ydwd14dJVcA90yLEDk52RCkkHncbBdSVyk50GFNEjsR14puoPjXUE19BKrsX8v8R%2BJQ0DN4VQ1prbOdR6n493t0XqnX6GfegvIIbSaszo5sVcm4Rn26JdEO0nbgZBGCGb5bgtwHlCl1QGVBsNSghnWv1FBG2L8pXUkO5GQ6EGakmVUEYXPu2BCM32JI1Gx8PB9tSCYTG6zoyrYwdjGjKYDpM3ZXDljsBy6ujCiBvb1GTVBmvli1HaHs1r1RZtwP332%2B9w21yBfdili2vqBp3ucny59K4WJ%2Bti46h0cXJ6%2FnQ8OlC46Y4TjdPlvEQHj1MWhg7HyvRFKziP1dUncufhbxjv7ko%3D" xlink:title="Boltzmann brain\n(hedonic solipsism)\n[1+3+4+9+13]\n→ nothing — ranking flat\n(Ludwig Boltzmann)" target="_blank">
<path fill="#c9b3dd" stroke="#4a2a78" d="M352,-88C352,-88 220,-88 220,-88 214,-88 208,-82 208,-76 208,-76 208,-28 208,-28 208,-22 214,-16 220,-16 220,-16 352,-16 352,-16 358,-16 364,-22 364,-28 364,-28 364,-76 364,-76 364,-82 358,-88 352,-88"/>
<text text-anchor="middle" x="286" y="-73.2" font-family="Helvetica,sans-Serif" font-size="11.00" fill="#201040">Boltzmann brain</text>
<text text-anchor="middle" x="286" y="-61.2" font-family="Helvetica,sans-Serif" font-size="11.00" fill="#201040">(hedonic solipsism)</text>
<text text-anchor="middle" x="286" y="-49.2" font-family="Helvetica,sans-Serif" font-size="11.00" fill="#201040">[1+3+4+9+13]</text>
<text text-anchor="middle" x="286" y="-37.2" font-family="Helvetica,sans-Serif" font-size="11.00" fill="#201040">→ nothing — ranking flat</text>
<text text-anchor="middle" x="286" y="-25.2" font-family="Helvetica,sans-Serif" font-size="11.00" fill="#201040">(Ludwig Boltzmann)</text>
</a>
</g>
</g>
<!-- w1_3_4_9&#45;&gt;w1_3_4_9_13 -->
<g id="edge9" class="edge">
<title>w1_3_4_9&#45;&gt;w1_3_4_9_13</title>
<path fill="none" stroke="#c0392b" stroke-dasharray="5,2" d="M304.82,-164.63C301.81,-149.83 299,-136 299,-136 299,-136 296.11,-117.57 293.06,-98.08"/>
<polygon fill="#c0392b" stroke="#c0392b" points="296.52,-97.54 291.51,-88.2 289.6,-98.62 296.52,-97.54"/>
<text text-anchor="middle" x="373.5" y="-128.8" font-family="Helvetica,sans-Serif" font-size="9.00" fill="#5b6675">only this moment&#39;s feeling is real</text>
</g>
</g>
</svg>
