<?xml version="1.0" encoding="UTF-8" standalone="no"?>
<!DOCTYPE svg PUBLIC "-//W3C//DTD SVG 1.1//EN"
 "http://www.w3.org/Graphics/SVG/1.1/DTD/svg11.dtd">
<!-- Generated by graphviz version 2.43.0 (0)
 -->
<!-- Title: T Pages: 1 -->
<svg width="1521pt" height="1059pt"
 viewBox="0.00 0.00 1521.20 1059.20" xmlns="http://www.w3.org/2000/svg" xmlns:xlink="http://www.w3.org/1999/xlink">
<g id="graph0" class="graph" transform="scale(1 1) rotate(0) translate(21.6 1037.6)">
<title>T</title>
<polygon fill="white" stroke="transparent" points="-21.6,21.6 -21.6,-1037.6 1499.6,-1037.6 1499.6,21.6 -21.6,21.6"/>
<g id="clust1" class="cluster">
<title>cluster_stop0</title>
<path fill="white" stroke="#6b7f96" stroke-width="2" stroke-dasharray="5,2" d="M855,-910C855,-910 1003,-910 1003,-910 1009,-910 1015,-916 1015,-922 1015,-922 1015,-996 1015,-996 1015,-1002 1009,-1008 1003,-1008 1003,-1008 855,-1008 855,-1008 849,-1008 843,-1002 843,-996 843,-996 843,-922 843,-922 843,-916 849,-910 855,-910"/>
<text text-anchor="middle" x="877.5" y="-993.6" font-family="Helvetica,sans-Serif" font-weight="bold" font-size="13.00" fill="#6b7f96">STOP 0</text>
</g>
<g id="clust2" class="cluster">
<title>cluster_stop1</title>
<path fill="white" stroke="#5a9367" stroke-width="2" stroke-dasharray="5,2" d="M833,-761C833,-761 1025,-761 1025,-761 1031,-761 1037,-767 1037,-773 1037,-773 1037,-859 1037,-859 1037,-865 1031,-871 1025,-871 1025,-871 833,-871 833,-871 827,-871 821,-865 821,-859 821,-859 821,-773 821,-773 821,-767 827,-761 833,-761"/>
<text text-anchor="middle" x="855.5" y="-856.6" font-family="Helvetica,sans-Serif" font-weight="bold" font-size="13.00" fill="#5a9367">STOP 1</text>
</g>
<g id="clust3" class="cluster">
<title>cluster_stop2</title>
<path fill="white" stroke="#b0a04a" stroke-width="2" stroke-dasharray="5,2" d="M752,-604C752,-604 902,-604 902,-604 908,-604 914,-610 914,-616 914,-616 914,-710 914,-710 914,-716 908,-722 902,-722 902,-722 752,-722 752,-722 746,-722 740,-716 740,-710 740,-710 740,-616 740,-616 740,-610 746,-604 752,-604"/>
<text text-anchor="middle" x="774.5" y="-707.6" font-family="Helvetica,sans-Serif" font-weight="bold" font-size="13.00" fill="#b0a04a">STOP 2</text>
</g>
<g id="clust4" class="cluster">
<title>cluster_stop3</title>
<path fill="white" stroke="#c9a72a" stroke-width="2" stroke-dasharray="5,2" d="M946,-608C946,-608 1120,-608 1120,-608 1126,-608 1132,-614 1132,-620 1132,-620 1132,-706 1132,-706 1132,-712 1126,-718 1120,-718 1120,-718 946,-718 946,-718 940,-718 934,-712 934,-706 934,-706 934,-620 934,-620 934,-614 940,-608 946,-608"/>
<text text-anchor="middle" x="968.5" y="-703.6" font-family="Helvetica,sans-Serif" font-weight="bold" font-size="13.00" fill="#c9a72a">STOP 3</text>
</g>
<g id="clust5" class="cluster">
<title>cluster_stop4</title>
<path fill="white" stroke="#c9932a" stroke-width="2" stroke-dasharray="5,2" d="M937,-455C937,-455 1129,-455 1129,-455 1135,-455 1141,-461 1141,-467 1141,-467 1141,-553 1141,-553 1141,-559 1135,-565 1129,-565 1129,-565 937,-565 937,-565 931,-565 925,-559 925,-553 925,-553 925,-467 925,-467 925,-461 931,-455 937,-455"/>
<text text-anchor="middle" x="959.5" y="-550.6" font-family="Helvetica,sans-Serif" font-weight="bold" font-size="13.00" fill="#c9932a">STOP 4</text>
</g>
<g id="clust6" class="cluster">
<title>cluster_stop9</title>
<path fill="white" stroke="#c0392b" stroke-width="2" stroke-dasharray="5,2" d="M351,-306C351,-306 543,-306 543,-306 549,-306 555,-312 555,-318 555,-318 555,-404 555,-404 555,-410 549,-416 543,-416 543,-416 351,-416 351,-416 345,-416 339,-410 339,-404 339,-404 339,-318 339,-318 339,-312 345,-306 351,-306"/>
<text text-anchor="middle" x="373.5" y="-401.6" font-family="Helvetica,sans-Serif" font-weight="bold" font-size="13.00" fill="#c0392b">STOP 9</text>
</g>
<g id="clust7" class="cluster">
<title>cluster_stop11</title>
<path fill="white" stroke="#4a2a78" stroke-width="2" stroke-dasharray="5,2" d="M701,-157C701,-157 1129,-157 1129,-157 1135,-157 1141,-163 1141,-169 1141,-169 1141,-255 1141,-255 1141,-261 1135,-267 1129,-267 1129,-267 701,-267 701,-267 695,-267 689,-261 689,-255 689,-255 689,-169 689,-169 689,-163 695,-157 701,-157"/>
<text text-anchor="middle" x="728" y="-252.6" font-family="Helvetica,sans-Serif" font-weight="bold" font-size="13.00" fill="#4a2a78">STOP 11</text>
</g>
<g id="clust9" class="cluster">
<title>cluster_stop12</title>
<path fill="white" stroke="#4a2a78" stroke-width="2" stroke-dasharray="5,2" d="M399,-8C399,-8 1403,-8 1403,-8 1409,-8 1415,-14 1415,-20 1415,-20 1415,-106 1415,-106 1415,-112 1409,-118 1403,-118 1403,-118 399,-118 399,-118 393,-118 387,-112 387,-106 387,-106 387,-20 387,-20 387,-14 393,-8 399,-8"/>
<text text-anchor="middle" x="426" y="-103.6" font-family="Helvetica,sans-Serif" font-weight="bold" font-size="13.00" fill="#4a2a78">STOP 12</text>
</g>
<g id="clust11" class="cluster">
<title>cluster_stop14</title>
<path fill="white" stroke="#4a2a78" stroke-width="2" stroke-dasharray="5,2" d="M20,-157C20,-157 168,-157 168,-157 174,-157 180,-163 180,-169 180,-169 180,-255 180,-255 180,-261 174,-267 168,-267 168,-267 20,-267 20,-267 14,-267 8,-261 8,-255 8,-255 8,-169 8,-169 8,-163 14,-157 20,-157"/>
<text text-anchor="middle" x="47" y="-252.6" font-family="Helvetica,sans-Serif" font-weight="bold" font-size="13.00" fill="#4a2a78">STOP 14</text>
</g>
<g id="clust12" class="cluster">
<title>cluster_stop15</title>
<path fill="white" stroke="#4a2a78" stroke-width="2" stroke-dasharray="5,2" d="M212,-157C212,-157 360,-157 360,-157 366,-157 372,-163 372,-169 372,-169 372,-255 372,-255 372,-261 366,-267 360,-267 360,-267 212,-267 212,-267 206,-267 200,-261 200,-255 200,-255 200,-169 200,-169 200,-163 206,-157 212,-157"/>
<text text-anchor="middle" x="239" y="-252.6" font-family="Helvetica,sans-Serif" font-weight="bold" font-size="13.00" fill="#4a2a78">STOP 15</text>
</g>
<!-- w0 -->
<g id="node1" class="node">
<title>w0</title>
<g id="a_node1"><a xlink:href="https://www.squiggle-language.com/playground#code=eJx1VW1v2kgQ%2FisjdFUhIsTQtL2j4gME50WlbZRyV53iSFnsMd7retfaXeO4af77zdokQDCf4jAzz7w9z%2BxjK8KY5cKeqQhbw9bJCYxGI5hrxiVYBaFmv0r6KCQE%2BcDrn0KhtIhWHAsoPGgbqzLwOi4okBQ8NiZPM8uVhDAhjCF4kDGtwoQzUXn4LEyAbdy4AQbXpU3oO%2BYCgRJvzOYEbMIssCgyXdBI1XKJBpSuwDQeEzpL0aLmhn63CdaJ3xqIcxlWGJ8gVGmmDJfLjQPFyggJkX7ipkIzlsmICSURUhqH6MH9S7f%2B6t6V6sLxIcPQUuCKiRxBxRXCZjC9CmyCxsIiLyF3aVygwe3GhjBTIRNgVJ7BT27DBGUdeeF%2F9W%2FGc38KixKWKFEzi72sfN4ARtzujOiIjF2QytaFuCkSUoU15ZpqBYxj94dGjG78Si9pPpnmKdMlLChFzENO312Y%2BOffbnzqX6%2F3VSBfJpZGR9MQynEi4ff11oRaSqVTauIv7w2cXUFbaer1WMXHKVtKbvMIYfJt7p91qB7X6Oe6zykT5TXqv00EI3gMJECGKhN4iSLD6MXi9bz3LqHXe%2B98ChRigVTJBa3PQdQuXr%2F28frOKVS5JDLELLQ5ExMmf%2F5Tbcm5vjuQ6agB%2BgjafTg%2BBNcJ5FMgl9FOI64W73RdjDcIJEvjPYd36468AZXLeLrn8NzNgHq2idix93sDZz39SNMssl3TwPOc7eMpFRHIgotokS%2FNrs%2BH2ufPQeXDhIhxv4XBy8hJHIVSrz0qu0Pw1hzzb4vpePYvsBVqJ4uM6P7H3XCbatEODS1P11Ld0CxUZCQSorSv5ETh7NVVgSy3xrGZW0esUDkZj%2BDW7fcRaO44hKC1r6%2Bg1YUiemlnCCky2W4kZocY0Ien7i7kBV9hLSlRNoNtc8JheI0YP4hv4E4ntaO5LaE9%2FnLeaUbcYVEz5PjqC5zA2RrLl1ZjRucNc20Snh2A3eZeM%2BycNnSZp4zu4QzZMsdmpB2WNiN9T%2BjWZEBtx0wjXGv1H83wwDq2md0M94PYTe%2BEIQwD7aQuMaODSwSK0BwY5L4mDkxzNjv3pwem9kozh%2FYBhsXo9npTawhu6PwzHSYHatuT2gb4zslM0%2BVxz9cIZtzYnkbSmsF29Y9R2k7Kdi2DLjz%2BfvgND72tHE8dulcL9x6NYA10692t1TtvfNHml1ffNxIcQuEeYU7TXjw%2FayRuTlUYEuDWI0kZnMd29kC2nv4HzvjYeg%3D%3D" xlink:title="Parochial\ncommunity + nation\n→ Local soup kitchen\n(common&#45;sense default)" target="_blank">
<path fill="#dfe7ef" stroke="#6b7f96" d="M994.5,-978C994.5,-978 863.5,-978 863.5,-978 857.5,-978 851.5,-972 851.5,-966 851.5,-966 851.5,-930 851.5,-930 851.5,-924 857.5,-918 863.5,-918 863.5,-918 994.5,-918 994.5,-918 1000.5,-918 1006.5,-924 1006.5,-930 1006.5,-930 1006.5,-966 1006.5,-966 1006.5,-972 1000.5,-978 994.5,-978"/>
<text text-anchor="middle" x="929" y="-963.2" font-family="Helvetica,sans-Serif" font-size="11.00" fill="#1b2733">Parochial</text>
<text text-anchor="middle" x="929" y="-951.2" font-family="Helvetica,sans-Serif" font-size="11.00" fill="#1b2733">community + nation</text>
<text text-anchor="middle" x="929" y="-939.2" font-family="Helvetica,sans-Serif" font-size="11.00" fill="#1b2733">→ Local soup kitchen</text>
<text text-anchor="middle" x="929" y="-927.2" font-family="Helvetica,sans-Serif" font-size="11.00" fill="#1b2733">(common&#45;sense default)</text>
</a>
</g>
</g>
<!-- w1 -->
<g id="node2" class="node">
<title>w1</title>
<g id="a_node2"><a xlink:href="https://www.squiggle-language.com/playground#code=eJx1Ve9v2zYQ%2FVcOxoY5geNIbrquHvzBjpUfmLsGqbdiiIKGlk4WV4oUSMqKluZ%2F31FyYjuWP0Xx3T3evXuPfOrEmLBC2HMVY2fYOT2F0WgEc824BKsg0uy%2Fij5KCWEx8PwzKJUW8YpjCaUPXWNVDv6RKwolFY%2BNKbLcciUhSgljCB7kTKso5Uw4CP%2FjAHxImP7GSlZ9S4uMSVOXBixKgW3quQEGN5VN6TvhAoE62oTNKdiUWWBxbHqgkcbgEg0oXYNpPKFjWYYWNTf0u02x6egXA0khoxrjd4hUlivD5XKTQLUyRkKkn3jTmrFMxkwoiZART6IPD680BKsH16orx8ccI0uFKyYKBJXUCBvG%2BjXYBI2FRVFB4Y5xhQa3BxvCJV%2FhVxQCHLnUk%2Ba2gu7408VRg3AZ%2FBncjufBFBYVLFGiZhb7efWyIoy53aHqmII9kMo2DTk2CanGmnJNPQMmiftDVKNbg9JL4inXPGO6ggUdkfCI03cPJsHF59uAeNBM1Agl8mVqiUJiRSgnmpQ%2FNNsTaimVzmjzH72f4fwaukrTzCcqOcnYUnJbxAiTz%2FPg3E1mVJH%2FwW2UopwyUd2g%2FsvEMIKnUALkqHKBVyhyjF8jXt977w70%2Bu9dTkmcLZA6uaQ1OogmxfObHM93SZEqJIkiYZEtmJgw%2Bf3velsu9d2Bk45boI%2Bh68PJIbijUD6HchnvDOJ68c7WzXiDULIs2Ut4t57IG1C7jGd7CS%2FTDGhmm4qduN8fuOjZB2KzzHdDA89zsQ9n1EQoSy7iRbE0uzm%2FNjm%2FDeocJkSC%2ByMMXiknk5RKvc2o4w7BW2ssuCun49k%2FwFaonT1ykv1P98NtqcU7MrQ8W1t2I7NIUZBEiNK%2BsRWVszfXDuSFNU7N3DphRcrZeQR3br9PQLzjEMLOTEUkTSc7%2BN7oLuz0oIxfxxlChkx2W4V5RArw4bm3C%2Bms21hKVO1g25o4jNFu%2F3bEHRW1Q46vP8EpnK%2BxAmk15nTNYaFNyvMDsNvaa4ed04au3A2OMEO2LLAdaUelDsnbQ%2FqS0l2TA41NTwPCjVb%2FEocH1rGt7Ha4r6Ruei8MYRjopk2LOV28JKAYzQEi9z3Rjj6ezS6C6QHW3njmAMI1GJag2%2Btt4yG4pWeA6Sg90Nue1TbA985mmm4e94yNYMaN7Wskrxns1v8Ype2k6jY26MHTj8cf8NjfOuP5iO6rhXuXRrAGuvPu1%2B6dt75s86vrLxsLDqF0jzEnthcvzxuZm1MXhgy49VjSCS5j%2B%2FRQdp7%2FB6%2Ba4vc%3D" xlink:title="All present humans\ncount equally\n[1]\n→ GiveWell top charity (AMF)\n(Alexander Berger, Peter Singer)" target="_blank">
<path fill="#cfe6cf" stroke="#5a9367" d="M1017,-841C1017,-841 841,-841 841,-841 835,-841 829,-835 829,-829 829,-829 829,-781 829,-781 829,-775 835,-769 841,-769 841,-769 1017,-769 1017,-769 1023,-769 1029,-775 1029,-781 1029,-781 1029,-829 1029,-829 1029,-835 1023,-841 1017,-841"/>
<text text-anchor="middle" x="929" y="-826.2" font-family="Helvetica,sans-Serif" font-size="11.00" fill="#1e3a24">All present humans</text>
<text text-anchor="middle" x="929" y="-814.2" font-family="Helvetica,sans-Serif" font-size="11.00" fill="#1e3a24">count equally</text>
<text text-anchor="middle" x="929" y="-802.2" font-family="Helvetica,sans-Serif" font-size="11.00" fill="#1e3a24">[1]</text>
<text text-anchor="middle" x="929" y="-790.2" font-family="Helvetica,sans-Serif" font-size="11.00" fill="#1e3a24">→ GiveWell top charity (AMF)</text>
<text text-anchor="middle" x="929" y="-778.2" font-family="Helvetica,sans-Serif" font-size="11.00" fill="#1e3a24">(Alexander Berger, Peter Singer)</text>
</a>
</g>
</g>
<!-- w0&#45;&gt;w1 -->
<g id="edge1" class="edge">
<title>w0&#45;&gt;w1</title>
<path fill="none" stroke="#9aa6b3" d="M929,-917.78C929,-898.57 929,-873.03 929,-851.21"/>
<polygon fill="#9aa6b3" stroke="#9aa6b3" points="932.5,-851.17 929,-841.17 925.5,-851.17 932.5,-851.17"/>
<text text-anchor="middle" x="995" y="-881.8" font-family="Helvetica,sans-Serif" font-size="9.00" fill="#5b6675">drop the nationality discount</text>
</g>
<!-- w1_2 -->
<g id="node3" class="node">
<title>w1_2</title>
<g id="a_node3"><a xlink:href="https://viewer.diagrams.net/?lightbox=1&nav=1&chrome=0#Uhttps%3A%2F%2Fraw.githubusercontent.com%2Fmorganrivers%2Ftrain_to_crazy_town%2Fmain%2Fdiagram%2Ftrain_tree__w1_2.drawio" xlink:title="Animals count\n(neuron&#45;weighted)\n[1+2]\n→ The Humane League\n▼ 111 more worldviews" target="_blank">
<path fill="#e6e2c0" stroke="#b0a04a" stroke-width="2.4" stroke-dasharray="5,2" d="M890,-688C890,-688 764,-688 764,-688 758,-688 752,-682 752,-676 752,-676 752,-628 752,-628 752,-622 758,-616 764,-616 764,-616 890,-616 890,-616 896,-616 902,-622 902,-628 902,-628 902,-676 902,-676 902,-682 896,-688 890,-688"/>
<path fill="none" stroke="#b0a04a" stroke-width="2.4" stroke-dasharray="5,2" d="M894,-692C894,-692 760,-692 760,-692 754,-692 748,-686 748,-680 748,-680 748,-624 748,-624 748,-618 754,-612 760,-612 760,-612 894,-612 894,-612 900,-612 906,-618 906,-624 906,-624 906,-680 906,-680 906,-686 900,-692 894,-692"/>
<text text-anchor="middle" x="827" y="-673.2" font-family="Helvetica,sans-Serif" font-size="11.00" fill="#3a3410">Animals count</text>
<text text-anchor="middle" x="827" y="-661.2" font-family="Helvetica,sans-Serif" font-size="11.00" fill="#3a3410">(neuron&#45;weighted)</text>
<text text-anchor="middle" x="827" y="-649.2" font-family="Helvetica,sans-Serif" font-size="11.00" fill="#3a3410">[1+2]</text>
<text text-anchor="middle" x="827" y="-637.2" font-family="Helvetica,sans-Serif" font-size="11.00" fill="#3a3410">→ The Humane League</text>
<text text-anchor="middle" x="827" y="-625.2" font-family="Helvetica,sans-Serif" font-size="11.00" fill="#3a3410">▼ 111 more worldviews</text>
</a>
</g>
</g>
<!-- w1&#45;&gt;w1_2 -->
<g id="edge2" class="edge">
<title>w1&#45;&gt;w1_2</title>
<path fill="none" stroke="#9aa6b3" d="M884.79,-768.63C866.29,-753.83 849,-740 849,-740 849,-740 844.38,-721.73 839.38,-701.94"/>
<polygon fill="#9aa6b3" stroke="#9aa6b3" points="842.75,-701.01 836.91,-692.17 835.96,-702.73 842.75,-701.01"/>
<text text-anchor="middle" x="914" y="-732.8" font-family="Helvetica,sans-Serif" font-size="9.00" fill="#5b6675">add an animal welfare range</text>
</g>
<!-- w1_3 -->
<g id="node4" class="node">
<title>w1_3</title>
<g id="a_node4"><a xlink:href="https://www.squiggle-language.com/playground#code=eJx1VW1z4jYQ%2Fis7TDuFDCEGcr0eHT5AcF6mXC%2BTo73phAwR9hqrJ0seScZxc%2FnvXdkkQDCfMNrVs2%2FPo31uhBixTNgLFWJj0Dg7g%2BFwCDPNuASrINDsv4I%2BcgnzrOd1zyFXWoRrjjnk3UUfmsaqFPotd20u6frImCxJLVcSgphQBuBByrQKYs6EA%2Bl%2B6kEXIqYXLGfFIs4SJs2roQ9RZjONm%2BNFwqxFvci5jRchN4HKpOVyVUbyWRAD24bjBhjcFjam74gLBCphazZnYGNmgYWhaYNGqptLNKB0CabxlLJkCVI4bujcxlgV8IuhnGRQYvwOgUpSZSiFrQPdlSESIh1xU6IZy2TIhJIICTVWdODxrW%2F%2B%2BtGl6q7jU4qBpYtrJjIEFZUI2xZ3SrAxGgvLrIDMhXEXDe4WNoArvsZvKAS4WVBOmtsCmqPPl60K4cr%2F078bzfwJLAtYoUTNLHbS4nWmGHK716oTMrZBKlsl5LpJSCXWhGvKGTCK3A%2B1Gt0YlF5Rn1LNE6YLWFKIiAecvtsw9i%2B%2F3PnUB81EiZAjX8VuitQVoRzLYv5YTU%2BolVQ6IaJ88n6GixtoKk01n6roNGEryW0WIoy%2FzPwLV5lRWfoHt0GMcsJEcYv6LxPCEJ7nEiBFlQq8RpFi%2BGbxOt4HF9DrfHA%2BOfVsiZTJFY3RQVQuXrfy8brOqeQc6ogFNmNizOT3v8tpOdf%2BkUgnNdAn0OzC6TG41ly%2BzOUq3CvE5eKdb5LxenPJkujAob%2BpyOtRuownBw6v1fSoZhuLPXu303PW84%2FUzTzdN%2FU8z9k%2BnlMSc5lzES6zldn3%2BbXy%2Ba1X%2BjAhIjwsoffWchJJrtR7j9LuELwNx%2Fz7fDKa%2FgNsjdrJIyXa%2F%2FQw2KVauEdDy5ONZLc0CxQZiYQo7TtZ0XX27pWCNLPGsZlbR6xAOTkP4d7N9xmo7ziAeWOqAqKmox18r3g3b7QhD9%2FKGUCCTDZridkiBnThpb0P6aRbSUoU9WC7nDiOUS%2F%2FesQ9FtVDjm4%2BwxlcbLB8aTWm9Mxhpk3M0yOwu9yrh53RhK7dy44wRbbKsB5pj6UOyTtA%2BhrTW5MClU2bBOFWq3%2Bph0fGscvserhvxG7aF4YwDDTjKsWUHl4iUIjmSCMPNVGPPppOL%2F3Jka6900yJQE9PzUjAsAjdaO8qGcEdbQKmg%2FhIegdq22b34JSm6fFxm2wIU25sRyPJzWCz%2FGOUtuOiWSmhDc8%2Fnn7AU2cnxkuLnqylW01D2ADdew8bAc9ql9vs%2BubrVoUDyN0%2B5tTw5euGI31zysKQBnf2JUVwHrvR57Lx8j8LP%2FXf" xlink:title="Future humans count\n(discounted)\n[1+3]\n→ GiveWell top charity (AMF)\n(Frank Ramsey, Tyler Cowen)" target="_blank">
<path fill="#f2e3b3" stroke="#c9a72a" d="M1111.5,-688C1111.5,-688 954.5,-688 954.5,-688 948.5,-688 942.5,-682 942.5,-676 942.5,-676 942.5,-628 942.5,-628 942.5,-622 948.5,-616 954.5,-616 954.5,-616 1111.5,-616 1111.5,-616 1117.5,-616 1123.5,-622 1123.5,-628 1123.5,-628 1123.5,-676 1123.5,-676 1123.5,-682 1117.5,-688 1111.5,-688"/>
<text text-anchor="middle" x="1033" y="-673.2" font-family="Helvetica,sans-Serif" font-size="11.00" fill="#57450e">Future humans count</text>
<text text-anchor="middle" x="1033" y="-661.2" font-family="Helvetica,sans-Serif" font-size="11.00" fill="#57450e">(discounted)</text>
<text text-anchor="middle" x="1033" y="-649.2" font-family="Helvetica,sans-Serif" font-size="11.00" fill="#57450e">[1+3]</text>
<text text-anchor="middle" x="1033" y="-637.2" font-family="Helvetica,sans-Serif" font-size="11.00" fill="#57450e">→ GiveWell top charity (AMF)</text>
<text text-anchor="middle" x="1033" y="-625.2" font-family="Helvetica,sans-Serif" font-size="11.00" fill="#57450e">(Frank Ramsey, Tyler Cowen)</text>
</a>
</g>
</g>
<!-- w1&#45;&gt;w1_3 -->
<g id="edge3" class="edge">
<title>w1&#45;&gt;w1_3</title>
<path fill="none" stroke="#9aa6b3" d="M959.4,-768.63C972.12,-753.83 984,-740 984,-740 984,-740 996.06,-718.59 1008.21,-697.01"/>
<polygon fill="#9aa6b3" stroke="#9aa6b3" points="1011.35,-698.57 1013.21,-688.14 1005.25,-695.13 1011.35,-698.57"/>
<text text-anchor="middle" x="1062.5" y="-732.8" font-family="Helvetica,sans-Serif" font-size="9.00" fill="#5b6675">count future people, discounted</text>
</g>
<!-- w1_3_4 -->
<g id="node5" class="node">
<title>w1_3_4</title>
<g id="a_node5"><a xlink:href="https://www.squiggle-language.com/playground#code=eJx1VW1z4jYQ%2Fis7TDuFDCGGcL0eHT5AcF6mXC%2BTo73phAwR9hqrJ0seScZxc%2FnvXdkkQDCfMNrVo2d3n919boQYsUzYCxViY9A4O4PhcAgzzbgEqyDQ7L%2BCPnIJ86zndfuQKy3CNccc8u7ifNGHprEqhX7LXZxLAhgZkyWp5UpCEBPOADxImVZBzJlwMN1PPehCxPSC5axYxFnCpHk1nEOU2Uzj5niRMGtRL3Ju40XITaAyablcvbr3Qard88Xe7ZKPz4IY2JYUN8DgtrAxfUdcIFCoW7M5AxszCywMTRs0Un64RANKl2AaTykWliCR4obObYxVmL8YYi6DEuN3CFSSKuOIvjnQXRkiIdIRr6gZy2TIhJIICRVAdODxLb%2F%2B%2BtFRddfxKcXA0sU1ExmCikqEbSk6JdgYjYVlVkDmnnEXDe4GNoDRDRgWoS2geYdhrlQId%2BTEdBC3Kowr%2F0%2F%2FbjTzJ7AsYIUSNbPYSYvX6mPI7V6yTsjYphrYipLLJyGVWBOuiTVgFLkfSja6Qii9okylmidMF7CkJyIecPpuw9i%2F%2FHLnUyY0EyVCjnwVu6pSXoRyeoz5Y1U%2FoVZS6YQE9cn7GS5uoKk0RX2qotOErSS3WYgw%2FjLzL1xkRmXpH9wGMcoJE8Ut6r9MCEN4nkuAFFUq8BpFiuGbxet4H9yDXueD88lRiCUSkysqpIOoXLxu5eN1nVOpQdQRC2zGxJjJ73%2BX9XKu50deOqmBPoFmF06PwbXm8mUuV%2BFeII6L19%2BQ8XpzyZLowOF8E5HXI7qMJwcOr9H0KGYbiz17t9Nz1v5Hymae7pt6nudsH%2FtEYi5zLsJltjL7Pr9WPr%2F1Sh8mRISHIfTeUq4rfb7zKO0OwdtozL%2FPJ6PpP8DWqF2DpCT8nx4Gu1IL92RoebJp2q3MAkVGEiFK%2B66x6Dp7N80gzaxxaubWCStQrqGHcO%2Fq%2BwyUdxzAvDFVAUnTyQ6%2BV7qbN9qQh2%2FhDCBBJpu1wmyRArrw0t6HvOJrrFpKFPVgu5o4jvGN9AZuZFM4mrtZMPp82apH3FNRPeTo5jOcwcUGy5dWY0qDDjNtYp4egd3VXj3sjCp07WY4whTZKsN6pD2VOiTvAOlrTLMmBQqbNg7CrVb%2FUg6PlGNX2fVw30jdtDEMYRhoxhXFlEYvCShEcySRhz1Rjz6aTi%2F9yZGsveuZY%2FU4PuPrcQ9abQv84NpM0%2BRxi2wIU25sRyP1msFm%2BccobcdFs2qDNjz%2FePoBT52dN15aNK%2BWbjMNYQN07z1sundWu9tm1zdfty04gNytY07ZXr4uOGpuTiwMNeDOuqQXnMfu63PZePkfdKAEzQ%3D%3D" xlink:title="No pure&#45;time discount\n(astronomical stakes)\n[1+3+4]\n→ AI safety (Redwood Research)\n(Toby Ord, Nick Bostrom)" target="_blank">
<path fill="#f6e0c0" stroke="#c9932a" d="M1121,-535C1121,-535 945,-535 945,-535 939,-535 933,-529 933,-523 933,-523 933,-475 933,-475 933,-469 939,-463 945,-463 945,-463 1121,-463 1121,-463 1127,-463 1133,-469 1133,-475 1133,-475 1133,-523 1133,-523 1133,-529 1127,-535 1121,-535"/>
<text text-anchor="middle" x="1033" y="-520.2" font-family="Helvetica,sans-Serif" font-size="11.00" fill="#5a3f10">No pure&#45;time discount</text>
<text text-anchor="middle" x="1033" y="-508.2" font-family="Helvetica,sans-Serif" font-size="11.00" fill="#5a3f10">(astronomical stakes)</text>
<text text-anchor="middle" x="1033" y="-496.2" font-family="Helvetica,sans-Serif" font-size="11.00" fill="#5a3f10">[1+3+4]</text>
<text text-anchor="middle" x="1033" y="-484.2" font-family="Helvetica,sans-Serif" font-size="11.00" fill="#5a3f10">→ AI safety (Redwood Research)</text>
<text text-anchor="middle" x="1033" y="-472.2" font-family="Helvetica,sans-Serif" font-size="11.00" fill="#5a3f10">(Toby Ord, Nick Bostrom)</text>
</a>
</g>
</g>
<!-- w1_3&#45;&gt;w1_3_4 -->
<g id="edge4" class="edge">
<title>w1_3&#45;&gt;w1_3_4</title>
<path fill="none" stroke="#9aa6b3" d="M1033,-615.98C1033,-594.9 1033,-567.84 1033,-545.17"/>
<polygon fill="#9aa6b3" stroke="#9aa6b3" points="1036.5,-545.09 1033,-535.09 1029.5,-545.09 1036.5,-545.09"/>
<text text-anchor="middle" x="1097.5" y="-575.8" font-family="Helvetica,sans-Serif" font-size="9.00" fill="#5b6675">drop the pure&#45;time discount</text>
</g>
<!-- w1_3_4_9 -->
<g id="node6" class="node">
<title>w1_3_4_9</title>
<g id="a_node6"><a xlink:href="https://www.squiggle-language.com/playground#code=eJx1lW1z4jYQx7%2FKDtNOIUOIIVzvQocXJHEeplwvk%2BN60wkZIuw1Vk%2BWPJKM4%2Bby3buygUAwr0K8q5%2F24b%2Brl0aIEcuEvVAhNgaNkxMYDocw0YxLsAoCzf4r6EcuYZr1vG4fcqVFuOSYQ96dnc76szNoGqtSOGu5o1NJiJExWZJariQEMZEG4EHKtApizoQDdc960IWI6RnLWTGLs4RJszacQpTZTOPq8yxh1qKe5dzGs5CbQGXScrlYu%2FdBqu3vs53Ta68zEHzprFzODE8ywVx4ZbQ%2BC2JgbyFzAwzuChvT74gLBCrFm9mcgI2ZBRaGpg0aqX5cogGlS5jGY8qUJUghc0PfbYxVEX4zlJcMSsYfEKgkVcalsXGgszJEItInbkqasUyGTCiJkFCDRAeeNvX3l08uVHccn1MMLB1cMpEhqKgkvLWqU8LO0ViYZwVk7hp30OB2YgMY3YJhEdoCmvcY5kqFcE9OTAdxq2Jc%2B3%2F596OJfwnzAhYoUTOLnbRYqwNDbneKdUTGNnXIViG5ehKpZF1yTVEDRpH7Q8VG1wilF1SpVPOE6QLmdEXEA06%2F23DuX32596kSmomSkCNfxK7nVBehnF5j%2FlT1T6iFVDohuZ15v8LFLTSVpqyPVXScsIXkNgsRzr9M%2FAuXmVFZ%2Bie3QYzykoniDvU3E8IQXqYSIEWVCrxBkWK4sXgd74O70Ot8cD45CjFHiuSaGukQlYvXrXy8rnMqFYo6YoHNmDhn8sffZb%2Bc6%2BmBm45q0EfQ7MLxIVxrKl%2BnchHuJOJi8fqrYLzeVLIk2nM4XWXk9ShcxpM9h3U2PcrZxmLH3u30nLX%2FkaqZp7umnuc528c%2BBTGVORfhPFuYXZ%2FfK59PvdKHCRHhfgq9Tcl1pc93HqXdEbyVxvyH%2FHI0%2FgfYErUbkJSE%2F8vjYFtq4Y4MLU9WQ%2Fsms0CRkUSI0r4bLDrO3u06SDNrnJq5dcIKlBvoITy4%2Fr4A1R0HMG2MVUDSdLKDH5Xupo025OEmnQEkyGSzVpgtUkAXXtu7yGu%2BxGqkRFEP29bEYcZ30hu4hU7paO52wejzVaueuKOieuTo9jOcwMWK5UurMaVFh5k2MU8PYLe1V4%2BdUIdu3IZHGCNbZFhP2lGpI3l7pK8x7ZoUKG16jxDutPqXanigHdvKrsd9J3XTi2GIYaAZVyGmtHpJQCGaA4Xcn4l6%2Bmg8vvIvD1Tt3cyUhE5dRw5v%2BXry3rBtox%2FdqGnaPu4xG8KYG9vRSPNmsFn%2BY5S250WzGoU2vPx8%2FgnPna1bXlu0s%2BbudRrCCvTgPa4meFL7vk1ubr%2B%2BjeEAcvckc6r4fP3I0YBzisLQEG49mXSD89i%2BfSobr%2F8DOh0QwQ%3D%3D" xlink:title="Living in\na simulation\n[1+3+4+9]\n→ AI safety (Redwood Research)\n(Nick Bostrom)" target="_blank">
<path fill="#eeb3b3" stroke="#c0392b" d="M535,-386C535,-386 359,-386 359,-386 353,-386 347,-380 347,-374 347,-374 347,-326 347,-326 347,-320 353,-314 359,-314 359,-314 535,-314 535,-314 541,-314 547,-320 547,-326 547,-326 547,-374 547,-374 547,-380 541,-386 535,-386"/>
<text text-anchor="middle" x="447" y="-371.2" font-family="Helvetica,sans-Serif" font-size="11.00" fill="#5a1410">Living in</text>
<text text-anchor="middle" x="447" y="-359.2" font-family="Helvetica,sans-Serif" font-size="11.00" fill="#5a1410">a simulation</text>
<text text-anchor="middle" x="447" y="-347.2" font-family="Helvetica,sans-Serif" font-size="11.00" fill="#5a1410">[1+3+4+9]</text>
<text text-anchor="middle" x="447" y="-335.2" font-family="Helvetica,sans-Serif" font-size="11.00" fill="#5a1410">→ AI safety (Redwood Research)</text>
<text text-anchor="middle" x="447" y="-323.2" font-family="Helvetica,sans-Serif" font-size="11.00" fill="#5a1410">(Nick Bostrom)</text>
</a>
</g>
</g>
<!-- w1_3_4&#45;&gt;w1_3_4_9 -->
<g id="edge5" class="edge">
<title>w1_3_4&#45;&gt;w1_3_4_9</title>
<path fill="none" stroke="#9aa6b3" d="M932.93,-472.9C828.48,-446.7 665.14,-405.72 557.1,-378.62"/>
<polygon fill="#9aa6b3" stroke="#9aa6b3" points="557.7,-375.16 547.15,-376.12 556,-381.95 557.7,-375.16"/>
<text text-anchor="middle" x="864" y="-426.8" font-family="Helvetica,sans-Serif" font-size="9.00" fill="#5b6675">take the simulation argument seriously</text>
</g>
<!-- w1_3_4_11 -->
<g id="node8" class="node">
<title>w1_3_4_11</title>
<g id="a_node8"><a xlink:href="https://www.squiggle-language.com/playground#code=eJx1lW1z4jYQx7%2FKDtNOIUOIDVyvR4cXJHEeplwvk6O96YQMEfYaq2dLHkmO4%2Bby3buyeXIw78C7%2Bmkf%2Frt6bQUYsiw2FzLA1qh1dgbj8RhminEBRoKv2H8F%2FcgFzLO%2B4w4hlyoOnjnmkLuLwWK4cF1oayNTcN2OPTwXBJlonSWp4VKAHxFrBA6kTEk%2F4iy2KPdTH1wImVqwnBWLKEuY0BvDAMLMZArXnxcJMwbVIucmWgRc%2BzIThovVxn0IQu5%2FX9ROb29zIUWlpViwMES%2FdLR5lPF6zI%2BA7YLmGhjcFSai3yGPEagcO7M%2BAxMxAywIdBcUUg25QA1SlTCFp5QrS5CC5pq%2BmwirMvyiKTPhl4zfwZdJKrVNZOtAZ0WARKRPXJc0bZgIWCwFQkJNinvwtO2B9%2FxkQ7XH8SWlpOjgM4szBBmWhF27eiXsHLWBZVZAZq%2BxBzXuJzaCyS1oFqIpoH2PQS5lAPfkxJQfdSrGtfendz%2BZeZewLGCFAhUz2EuLjUIw4KZWrBMydqlHpgrJ1pNIJeuSK4oasOwIULHRNkKqFVUqVTxhqoAlXRFyn9PvLpx7V1%2FuPaqEYnFJyJGvIttMqkssrWYj%2FlT1L5YrIVVCgvvk%2FAwXt9CWirI%2BleFpwlaCmyxAOP8y8y5sZlpm6R%2Fc%2BBGKSxYXd6j%2B0gGM4XUugJQj0xhvME4x2FqcnvPBXuj0PlifHON4iRTJNTXSIioXx618HNc6lRpFFTLfZCw%2BZ%2BL732W%2FrOvgyE0nDegTaLtwegzXmYu3uVgFtURsLM5wHYzTnwuWhAcOg3VGTp%2FCZTw5cNhk06ecTRTX7G6vb63Dj1TNPK2b%2Bo5jbR%2BHFMRc5DwOltlK131%2BrXx%2B65c%2BLI5DPEyhvy25qvT5zqO0W4Kz1pj3kF9Opv8Ae0ZlB4S2APz0ONqXWlCToeHJemh3MvMlGUmEKMy7waLj7N22gzQz2qqZGyssX9qBHsOD7e8rUN1xBPPWVPokTSs7%2BF7pbt7qQh5s0xlBgky0G4XZIQW48NatI6%2F5M1YjFRfNsH1NHGd8I72B3emUjuJ2F0w%2BX3WaiTUVNSMnt5%2FhDC7WLE8YhSktOsyUjnh6BLuvvWbsjDp0Y3c8whTZKsNmUk2lluQckL5GtGtSoLTpRUK4U%2FJfquGRduwruxn3jdRNL4YmhoZ2VIWY0uolAQWojxTycCaa6ZPp9Mq7PFK1dzNjCQM8pT112JPje76ZfTBudfijHTdFG8g%2BaGOYcm16CmnmNLbLP1oqc160q3HowuuPlx%2Fw0tu7561De2tpX6gxrEEPzuN6imeNb9zs5vbrbhRHkNtnmVPVl5uHjoacUxSaBnHv2aQbrMf%2B7XPRevsf5EMSxg%3D%3D" xlink:title="Person&#45;affecting\nview\n[1+3+4+11]\n→ AI safety (Redwood Research)\n(Jan Narveson, Melinda Roberts)" target="_blank">
<path fill="#c9b3dd" stroke="#4a2a78" d="M1121,-237C1121,-237 945,-237 945,-237 939,-237 933,-231 933,-225 933,-225 933,-177 933,-177 933,-171 939,-165 945,-165 945,-165 1121,-165 1121,-165 1127,-165 1133,-171 1133,-177 1133,-177 1133,-225 1133,-225 1133,-231 1127,-237 1121,-237"/>
<text text-anchor="middle" x="1033" y="-222.2" font-family="Helvetica,sans-Serif" font-size="11.00" fill="#201040">Person&#45;affecting</text>
<text text-anchor="middle" x="1033" y="-210.2" font-family="Helvetica,sans-Serif" font-size="11.00" fill="#201040">view</text>
<text text-anchor="middle" x="1033" y="-198.2" font-family="Helvetica,sans-Serif" font-size="11.00" fill="#201040">[1+3+4+11]</text>
<text text-anchor="middle" x="1033" y="-186.2" font-family="Helvetica,sans-Serif" font-size="11.00" fill="#201040">→ AI safety (Redwood Research)</text>
<text text-anchor="middle" x="1033" y="-174.2" font-family="Helvetica,sans-Serif" font-size="11.00" fill="#201040">(Jan Narveson, Melinda Roberts)</text>
</a>
</g>
</g>
<!-- w1_3_4&#45;&gt;w1_3_4_11 -->
<g id="edge6" class="edge">
<title>w1_3_4&#45;&gt;w1_3_4_11</title>
<path fill="none" stroke="#9aa6b3" d="M1033,-462.88C1033,-409.14 1033,-306.51 1033,-247.26"/>
<polygon fill="#9aa6b3" stroke="#9aa6b3" points="1036.5,-247.07 1033,-237.07 1029.5,-247.07 1036.5,-247.07"/>
<text text-anchor="middle" x="1135" y="-347.8" font-family="Helvetica,sans-Serif" font-size="9.00" fill="#5b6675">give merely&#45;possible future people no weight</text>
</g>
<!-- w1_3_4_12 -->
<g id="node12" class="node">
<title>w1_3_4_12</title>
<g id="a_node12"><a xlink:href="https://www.squiggle-language.com/playground#code=eJx1lW1z4jYQx7%2FKDtNOIUOIbbhejw4vSOI8TLleJkd70wkZR9hrrJ4teSQ5jpvLd%2B%2FKJgSCeRXiXf20D%2F9dPXcijFmRmjMZYWfcOTmByWQCc8W4ACMhVOy%2Fin6UAhaF57gjKKVKo0eOJZRuMAxGgetBVxuZg%2Bv17OGFIMhU6yLLDZcCwoRYY3AgZ0qGCWepRbmfPHAhZipgJauCpMiY0K%2BGIcSFKRSuPwcZMwZVUHKTBBHXoSyE4WL16j4CIbe%2FBzunN7d5oFDzlKMwQSxlpIMlMhOwFa9D9lmYAHuLm2tgcFOZhH7HPEWgiryZ9QmYhBlgUaT7BKYycoEapKphCo8pXZYhxc01fTcJNpX4RVNyIqwZv0Mos1xqm8vGgc6KCIlIn7iuadowEbFUCoSM%2BpQO4GHTBv%2FxwYZqj%2BNTjqGhg48sLRBkXBPeOjaoYaeoDSyLCgp7jT2ocTuxMUxnswv%2FvPG%2B9P%2F0b6dz%2FxyWFaxQoGIGB3n1KgeMuNkpyxEZ%2B9QQ01xuK0ekmnXOFcUHGMf2D5UVbcmlWlFNcsUzpipY0hUxDzn97sOpf%2FHl1qecFUtrQol8ldgWUwVSaQWa8IemU6lcCakyUtcn52c4u4auVJTfsYyPM7YS3BQRwumXuX%2FWo3i0LPI%2FuAkTFOcsrW5Q%2FaUjmMDzQgDkKPMUrzDNMdpYnIHzwV7oDD5YnxLTdIkUySW1zCIaF8dtfBzXOtWCRBWz0BQsPWXi%2B991Z6zr8MBNRy3oI%2Bi6cHwI11uIl4VYRTuJ2Fic0ToYx1sIlsV7DsN1Ro5H4TKe7Tm8ZuNRziZJd%2BzuwLPW0UeqZpnvmjzHsbaPIwpiIUqeRstipXd9fm18fvNqH5amMe6n4G1KTgNR0tC%2B86jtluCsNebflefT2T%2FAHlHZUchJ4j%2Fdj7elFu3I0PBsPZ5vMgslGUmEtCnejRAdZ%2B9WG%2BSF0VbN3FhhhdKO7gTubH%2BfgeqOY1h0ZjIkaVrZwfdGd4tOH8pok84YMmSi2yrMHinAhZf%2BLvKSP2IzUmnVDtvWxGHGN9Ib2AVO6ShuKuhOP1%2F02ok7KmpHTq8%2FwwmcrVm%2BMApzWmlYKJ3w%2FAB2W3vt2Dl16MoudIQZslWB7aQdlVqSs0f6mtCuyYHSpucH4UbJf6mGB9qxrex23DdSN70NmhgaukkTYk5LlgQUoT5QyP2ZaKc3u3iPMbQ7oQbtzUVdvl5LW0CzGG17b5sjcEubn6kwORBiO7kG39tpU7SA7Ms1gRnXZqCQRk5jt%2F5HS2VOq24zDX14%2FvH0A54GW3e89GhtLe1TNIE16M65Xw%2FxvPUxm19df32bxDGU9v3lVPTl64tGM84pCk1zuPU%2B0g3WY%2Fv2hei8%2FA%2Fx3QtO" xlink:title="Resilient foods beat\nAGI safety\n[1+3+4+12]\n→ ALLFED\n(David Denkenberger, Joshua Pearce)" target="_blank">
<path fill="#c9b3dd" stroke="#4a2a78" d="M1395,-88C1395,-88 1193,-88 1193,-88 1187,-88 1181,-82 1181,-76 1181,-76 1181,-28 1181,-28 1181,-22 1187,-16 1193,-16 1193,-16 1395,-16 1395,-16 1401,-16 1407,-22 1407,-28 1407,-28 1407,-76 1407,-76 1407,-82 1401,-88 1395,-88"/>
<text text-anchor="middle" x="1294" y="-73.2" font-family="Helvetica,sans-Serif" font-size="11.00" fill="#201040">Resilient foods beat</text>
<text text-anchor="middle" x="1294" y="-61.2" font-family="Helvetica,sans-Serif" font-size="11.00" fill="#201040">AGI safety</text>
<text text-anchor="middle" x="1294" y="-49.2" font-family="Helvetica,sans-Serif" font-size="11.00" fill="#201040">[1+3+4+12]</text>
<text text-anchor="middle" x="1294" y="-37.2" font-family="Helvetica,sans-Serif" font-size="11.00" fill="#201040">→ ALLFED</text>
<text text-anchor="middle" x="1294" y="-25.2" font-family="Helvetica,sans-Serif" font-size="11.00" fill="#201040">(David Denkenberger, Joshua Pearce)</text>
</a>
</g>
</g>
<!-- w1_3_4&#45;&gt;w1_3_4_12 -->
<g id="edge8" class="edge">
<title>w1_3_4&#45;&gt;w1_3_4_12</title>
<path fill="none" stroke="#9aa6b3" d="M1123.95,-462.99C1181.84,-440.7 1246,-416 1246,-416 1246,-416 1275.15,-195.59 1288.01,-98.27"/>
<polygon fill="#9aa6b3" stroke="#9aa6b3" points="1291.51,-98.51 1289.35,-88.14 1284.57,-97.59 1291.51,-98.51"/>
<text text-anchor="middle" x="1371" y="-277.8" font-family="Helvetica,sans-Serif" font-size="9.00" fill="#5b6675">prefer resilient foods to AI safety on the margin</text>
</g>
<!-- w1_3_4_9_11 -->
<g id="node7" class="node">
<title>w1_3_4_9_11</title>
<g id="a_node7"><a xlink:href="https://www.squiggle-language.com/playground#code=eJx1lW1z4jYQx7%2FKDtNOIUOIDdxdQ4cXJCEPc1wvk6O96YSMI%2Bw1Vk%2BWPJKMQ3P57l3ZkEAw78C7%2Bmkf%2Frt6bkQYs1zYcxVhY9A4OYHhcAhTzbgEqyDU7L8V%2FSgkzPKu5%2FehUFpES44FFH7QC%2FrBaeD70DRWZeD7LXd8JgkzMiZPM8uVhDAh2gA8yJhWYcKZcDD%2FtAs%2BxEwHrGCrIMlTJs3G0IM4t7nG9ecgZdaiDgpukyDiJlS5tFwuNu59kGr7e7BzeuN1CoIvnZXLwPA0F6wMbxOLDxlqo2TA4hjDEuPyLLMZszAB9pYSN8DgdmUT%2Bh1zgUDlejObE7AJs8CiyLRBI9WYSzSgdAnTeEyVYClSStzQd5tgVaTfDOUtw5LxB4QqzZRxab460FkZIRHpEzclzVgmIyaUREipiaIDj689Gi8fXajuOD5llBQdXDKRI6i4JLy1s1PCztBYmOcryN017qDB7cQGMLoBw2K0K2jeYVQoFcEdOTEdJq2KcTX%2Bc3w3mo4vYL6CBUrUzGInW20UhBG3O8U6ImObOmirkFw9iVSyLrimqAHLjgAVG10jlF5QpTLNU6ZXMKcrYh5y%2Bt2Gs%2FHl17sxVUIzURIK5IvENZPqIpTTdMIfq%2F4JtZBKpyTHU%2B9XOL%2BBptKU9bGKj1O2kNzmEcLZ1%2Bn43GVmVJ595jZMUF4wsbpF%2FZeJYAjPMwmkHJUJvEaRYfRq8TreB3eh1%2FngfAoUYo4UyRU10iEqF8%2BvfDzfOZUKRh2z0OZMnDH54%2B%2ByX861d%2BCmoxr0ETR9OD6Ea83ky0wuop1EXCxefx2M151JlsZ7Dr11Rl6XwmU83XPYZNOlnG0idux%2Bp%2Bus%2FU9UzSLbNXU9z9k%2B9SmImSy4iOb5wuz6fKx8fu%2BWPkyIGPdT6L6WXFf6fOdR2h3BW2tsfF9cjCb%2FAFuidgNCWwB%2BeRhsSy3akaHl6Xpo32QWKjKSCFHad4NFx9m7XQhZbo1TM7dOWKFyAz2Ee9ffZ6C64wBmjYkKSZpOdvCj0t2s0YYiek1nACky2awVZosU4MNLexd5xZdYjZRY1cO2NXGY8Z30Bm7jUzqau10w%2BnLZqifuqKgeObr5AidwvmaNpdWY0aLDXJuEZwew29qrx06pQ9fuBUCYIFvkWE%2FaUakjeXukbwntmgwobXqvEG61%2BpdqeKAd28qux30nddOLYYhhoJlUIWa0eklAEZoDhdyfiXr6aDK5HF8cqNq7mXGEHh57H2t6cnjP17P3xm0X%2FuDGTdMGcg%2FaECbc2I5GmjmDzfKPUdqerZrVOLTh%2BefTT3jqbN3z0qK9NXcv1BDWoHvvYT3F09o3bnp98%2B1tFAdQuGeZU9Xnm4eOhpxTFIYGcevZpBucx%2FbtM9l4%2BR%2FHiR37" xlink:title="Person&#45;affecting\nview\n[1+3+4+9+11]\n→ AI safety (Redwood Research)\n(Jan Narveson, Melinda Roberts)" target="_blank">
<path fill="#c9b3dd" stroke="#4a2a78" d="M885,-237C885,-237 709,-237 709,-237 703,-237 697,-231 697,-225 697,-225 697,-177 697,-177 697,-171 703,-165 709,-165 709,-165 885,-165 885,-165 891,-165 897,-171 897,-177 897,-177 897,-225 897,-225 897,-231 891,-237 885,-237"/>
<text text-anchor="middle" x="797" y="-222.2" font-family="Helvetica,sans-Serif" font-size="11.00" fill="#201040">Person&#45;affecting</text>
<text text-anchor="middle" x="797" y="-210.2" font-family="Helvetica,sans-Serif" font-size="11.00" fill="#201040">view</text>
<text text-anchor="middle" x="797" y="-198.2" font-family="Helvetica,sans-Serif" font-size="11.00" fill="#201040">[1+3+4+9+11]</text>
<text text-anchor="middle" x="797" y="-186.2" font-family="Helvetica,sans-Serif" font-size="11.00" fill="#201040">→ AI safety (Redwood Research)</text>
<text text-anchor="middle" x="797" y="-174.2" font-family="Helvetica,sans-Serif" font-size="11.00" fill="#201040">(Jan Narveson, Melinda Roberts)</text>
</a>
</g>
</g>
<!-- w1_3_4_9&#45;&gt;w1_3_4_9_11 -->
<g id="edge7" class="edge">
<title>w1_3_4_9&#45;&gt;w1_3_4_9_11</title>
<path fill="none" stroke="#9aa6b3" d="M542.22,-313.99C602.83,-291.7 670,-267 670,-267 670,-267 692.9,-255.28 719.25,-241.79"/>
<polygon fill="#9aa6b3" stroke="#9aa6b3" points="720.99,-244.84 728.3,-237.16 717.8,-238.6 720.99,-244.84"/>
<text text-anchor="middle" x="748" y="-277.8" font-family="Helvetica,sans-Serif" font-size="9.00" fill="#5b6675">give merely&#45;possible future people no weight</text>
</g>
<!-- w1_3_4_9_12 -->
<g id="node10" class="node">
<title>w1_3_4_9_12</title>
<g id="a_node10"><a xlink:href="https://www.squiggle-language.com/playground#code=eJx1lW1T4zYQx7%2FKTqadJkwItsn1Sjp5ESAHTHM9hkt70yGMUex1rJ4seSQ5JuX47l3ZCSTEeUXwrn7ah%2F%2BunlsxJqwQ9kLF2Bq0Tk5gOBzCVDMuwSqINPtvRT9KCbMi8Pw%2BlEqLeMmxhNIPT8N%2BeBb6AbSNVTn4Qccdn0nCjIwpstxyJSFKiTYAD3KmVZRyJhzMPwvAh4TpkJVsFaZFxqTZGE4hKWyhcf05zJi1qMOS2zSMuYlUIS2Xi417H6Ta%2Fh7unN54nYHgS2flMjQ8KwSrwtvEEoBGwwVHacNEqdiEc2Q2ZAteJTRmUQrsLStugMHtyqb0O%2BECgSr2ZjYnYFNmgcWx6RKYyswlGlC6gmk8pmKwDCkrbui7TbGu0y%2BGUpdRxfgdIpXlyrhMXx3orIyRiPSJm4pmLJMxE0oiZNRH0YPH1zaNl48uVHccn3KMLB1cMlEgqKQivHW0V8HO0ViYFyso3DXuoMHtxAYwmkw%2BjS9r76vxn%2BO70XR8CfMVLFCiZhZ7%2BWojF4y53SnLERm71C5bX%2B4qR6SKdck1xQeYJO4PlRVdyZVeUE1yzTOmVzCnKxIecfrdhfPxpy93Y8pZM1ERSuSL1AmAKiCUE3DKH%2BtOCbWQSmekvTPvZ7i4gbbSlN%2BxSo4ztpDcFjHC%2BZfp%2BKJD8RhV5H9wG6UoL5lY3aL%2By8QwhOeZBMhR5QKvUeQYv1q8nvfBXej1PjifEoWYI0VyRS1ziNrF82sfz3dOlVxRJyyyBRPnTH7%2Fu%2BqMcz09cNNRA%2FoI2j4cH8J1ZvJlJhfxTiIuFq%2B%2FDsYLZpJlyZ7D6TojL6BwGc%2F2HDbZBJSzTcWO3e8Fztr%2FSNUs811T4HnO9rFPQcxkyUU8LxZm1%2BfX2ue3oPJhQiS4n0LwWnIaiJKG9p1HZXcEb62x8X15OZr8A2yJ2o1CThL%2F6WGwLbV4R4aWZ%2BvxfJNZpMhIIqRN8W6E6Dh7t%2FggL6xxaubWCStSbnSHcO%2F6%2BwxUdxzArDVREUnTyQ6%2B17qbtbpQxq%2FpDCBDJtuNwuyQAnx46e4ir%2FgS65ESq2bYtiYOM76R3sCtd0pHc7uC9ujzp04zcUdFzcjRzWc4gYs1ayytxpxWGhbapDw%2FgN3WXjN2Sh26duseYYJsUWAzaUeljuTtkb6mtGtyoLTpcUK41epfquGBdmwruxn3jdRNb4MhhoF2WoeY05IlAcVoDhRyfyaa6fUu3mOcup1QgfbmouL0%2FE5DY8CwBF2D7%2BpDcEe7n%2BkoPRDkIXaFfnATp2kJuddrCBNubE8jjZ3BdvWPUdqer9r1RHTh%2BcfTD3jqbd3y0qHVNXfP0RDWoHvvYT3I08YHbXp98%2FVtGgdQujeYU%2BHnm1eN5pxTFIZmceuNpBucx%2FbtM9l6%2BR%2BkZxc9" xlink:title="Resilient foods beat\nAGI safety\n[1+3+4+9+12]\n→ ALLFED\n(David Denkenberger, Joshua Pearce)" target="_blank">
<path fill="#c9b3dd" stroke="#4a2a78" d="M609,-88C609,-88 407,-88 407,-88 401,-88 395,-82 395,-76 395,-76 395,-28 395,-28 395,-22 401,-16 407,-16 407,-16 609,-16 609,-16 615,-16 621,-22 621,-28 621,-28 621,-76 621,-76 621,-82 615,-88 609,-88"/>
<text text-anchor="middle" x="508" y="-73.2" font-family="Helvetica,sans-Serif" font-size="11.00" fill="#201040">Resilient foods beat</text>
<text text-anchor="middle" x="508" y="-61.2" font-family="Helvetica,sans-Serif" font-size="11.00" fill="#201040">AGI safety</text>
<text text-anchor="middle" x="508" y="-49.2" font-family="Helvetica,sans-Serif" font-size="11.00" fill="#201040">[1+3+4+9+12]</text>
<text text-anchor="middle" x="508" y="-37.2" font-family="Helvetica,sans-Serif" font-size="11.00" fill="#201040">→ ALLFED</text>
<text text-anchor="middle" x="508" y="-25.2" font-family="Helvetica,sans-Serif" font-size="11.00" fill="#201040">(David Denkenberger, Joshua Pearce)</text>
</a>
</g>
</g>
<!-- w1_3_4_9&#45;&gt;w1_3_4_9_12 -->
<g id="edge10" class="edge">
<title>w1_3_4_9&#45;&gt;w1_3_4_9_12</title>
<path fill="none" stroke="#9aa6b3" d="M450.48,-313.78C455.97,-258.36 466,-157 466,-157 466,-157 478.59,-125.83 489.98,-97.61"/>
<polygon fill="#9aa6b3" stroke="#9aa6b3" points="493.28,-98.79 493.78,-88.21 486.79,-96.17 493.28,-98.79"/>
<text text-anchor="middle" x="573" y="-198.8" font-family="Helvetica,sans-Serif" font-size="9.00" fill="#5b6675">prefer resilient foods to AI safety on the margin</text>
</g>
<!-- w1_3_4_9_14 -->
<g id="node13" class="node">
<title>w1_3_4_9_14</title>
<g id="a_node13"><a xlink:href="https://www.squiggle-language.com/playground#code=eJyNVW1v4zYM%2FitEsGFpkaZOmtutGfIhadwXLLcretkOQ1O4ik3H2smSIclxvV7%2F%2Byg7r%2B0VyKc4IvmIfPiQem5EGLNc2AsVYaPfOD2FwWAAU824BKsg1Oy%2Fkj4KCbO863V6UCgtoiXHAopOcBb0gvOATpvGqgw6vSMXPpMEMzQmTzPLlYQwIbQ%2BeJAxrcKEM%2BHAOudd6EDMdMAKVgZJnjJp1oYziHOba1wdBymzFnVQcJsEETehyqXlcrF274FUu%2BfBXvTa6xwEXzorl4HhaS5Yld46lx6kSjPBbRlwE0hlA41MVMX4LEyAbSviBhjcljah75gLBGJrazanYBNmgUWRaYFGophLNKB0BabxhIhgKVJF3NC5TbDm6BdDZcuwwvgdQpVmyrgqNw4UKyMkRDripkIzlsmICSWR0o9QtOFx0yJ%2F%2BehSdeH4lGFoKXDJRI6g4gph2812BTZCY2Gel5C7a1ygwd3C%2BsQzxdXEOzVoJr%2B5vzFxWUNc%2BX%2F6d8OpP4Z5CQuUqJnFdlauIzDido%2BrYzK2HG6dkaOTkCqsMdeUNGAcux%2FiGl0flF4QUZnmKdMlzOmKmIecvlsw8i8%2F3%2Fl1HyuEAvkicYogWoRyik74Y90%2BoRZS6ZTEeO79DBc30FSaij5R8UnKFpLbPEIYfZ76F0eUj1F59ge3YYJyzER5i%2FovE8EAnmcSIEOVCbxGkWG0sXht74O70Gt%2FcD4FCjFHyuSK%2BuggahevU%2Ft4HedU6Rd1zEKbMzEicv%2Bu2uVcz9656fgH0MfQ7MDJe3BHM%2Fkyk4torxCXi9dbJeN1Z5Kl8RuHs1VFXpfSZTx947Cupks120Ts2TvtrrP2PhKbRbZv6nqes33sURIzWXARzfOF2ff5tfb5rVv5MCFifFtCd0M5TUmh1GuPyu4QvJXG%2FPtiPJz8A2yJ2s1HRrr%2F6aG%2FK7VoT4aWp6uZ3cosVGQkEaK0r%2BaKwtmrTQhZbo1TM3cjQzvLzfMA7l1%2Fn4F4xz7MGhMVkjSd7OBbrbtZowVFtCnHLdSX1n7QFV9iPTSiPND9K4kH3PKm3DTtPmgOP10eHRA8vPkEp3CxivKl1ZjResJcm4RnBwBMicJrt6ARJsgWOR4Q8yWhsc%2BAkqaHA%2BFWq3%2Bp2AMCv5KkaEsb8jbQTOprM1p31LUIzUEFTyaX%2FvggZsCwGB2Xd7UI4Y4WKdNh8t49D06N62U6gAk3tq2RJGmwWf0xSttR2azV0oLn70%2Ff4am9g%2FRyRGM9d%2Ft7sN7K997DSuTTH74A0%2BubL1ul9qFwjxYnfubrZ4BmgFMWhnS686jQDc5j9%2FaZbLz8D0aW0Dg%3D" xlink:title="Morality is not real\n(anti&#45;realism)\n[1+3+4+9+14]\n→ nothing — ranking flat\n(J. L. Mackie)" target="_blank">
<path fill="#c9b3dd" stroke="#4a2a78" d="M160,-237C160,-237 28,-237 28,-237 22,-237 16,-231 16,-225 16,-225 16,-177 16,-177 16,-171 22,-165 28,-165 28,-165 160,-165 160,-165 166,-165 172,-171 172,-177 172,-177 172,-225 172,-225 172,-231 166,-237 160,-237"/>
<text text-anchor="middle" x="94" y="-222.2" font-family="Helvetica,sans-Serif" font-size="11.00" fill="#201040">Morality is not real</text>
<text text-anchor="middle" x="94" y="-210.2" font-family="Helvetica,sans-Serif" font-size="11.00" fill="#201040">(anti&#45;realism)</text>
<text text-anchor="middle" x="94" y="-198.2" font-family="Helvetica,sans-Serif" font-size="11.00" fill="#201040">[1+3+4+9+14]</text>
<text text-anchor="middle" x="94" y="-186.2" font-family="Helvetica,sans-Serif" font-size="11.00" fill="#201040">→ nothing — ranking flat</text>
<text text-anchor="middle" x="94" y="-174.2" font-family="Helvetica,sans-Serif" font-size="11.00" fill="#201040">(J. L. Mackie)</text>
</a>
</g>
</g>
<!-- w1_3_4_9&#45;&gt;w1_3_4_9_14 -->
<g id="edge12" class="edge">
<title>w1_3_4_9&#45;&gt;w1_3_4_9_14</title>
<path fill="none" stroke="#c0392b" stroke-dasharray="5,2" d="M346.9,-325.53C268.98,-307.27 174,-285 174,-285 174,-285 154.58,-264.85 134.88,-244.41"/>
<polygon fill="#c0392b" stroke="#c0392b" points="137.39,-241.97 127.93,-237.2 132.35,-246.83 137.39,-241.97"/>
<text text-anchor="middle" x="217.5" y="-277.8" font-family="Helvetica,sans-Serif" font-size="9.00" fill="#5b6675">deny moral realism</text>
</g>
<!-- w1_3_4_9_15 -->
<g id="node14" class="node">
<title>w1_3_4_9_15</title>
<g id="a_node14"><a xlink:href="https://www.squiggle-language.com/playground#code=eJydVW1v2zgM%2FitEsMOlRZraabqtOeRDX9IXLLsVXe6GQ124ik3HusmSIclxva7%2FfZSdpEm7AZf7FEckH5EPH4qPrRgTVgh7qmJsDVr7%2BzAcDmGiGZdgFUSafavoo5QQFD3P70OptIjnHEso%2FfAg7IdHoX8IbWNVDv7hjgsPJMEcG1NkueVKQpQS2gA8yJlWUcqZcGD%2BUQ98SJgOWcmqMC0yJs3ScABJYQuNi%2BMwY9aiDktu0zDmJlKFtFzOlu59kGr9PNyIXnodgeBzZ%2BUyNDwrBKvTW%2BZyCFMl7DeKkOHUEVDXMWJRCuy5GG6AwXVlU%2FpOuEAgop7NZh9syiywODYd0EjscokGlK7BNO4RByxDKoYbOrcpNvT8bqhiGdUYf0CkslwZV%2BDKgWJljIRIR9zUaMYyGTOhJEJG7RNduF91ZzS%2Fd6m6cHzIMbIUOGeiQFBJjfDcyG4NdoLGwrSooHDXuECD64UNiGKKazh3QtBMfnV%2FE6KxgbgY%2FTm6OZ6MzmBawQwlamaxm1fLCIy53eBql4wdh9tk5OgkpECu%2BjDGOQoYgo97bwHoCldrIhDr5ucCmWHSRatiltqO60V5djz%2BZ%2F9N0HTvjGuqHTBJ3A%2B1DF07lZ4R37nmGdMVTCnThEecvjtwMjr%2FdDMiPjUTNUKJnKDpOmJXKDcTKb9vVCDUTCqdkZyPvN%2Fg9AraShN3eyrZy9hMclvECCefJqPTHSrLqCL%2FwG2UojxjorpG%2FZeJqbbHQALkqKiaSxQ5xiuL1%2FUO3YVe99D5lCjEFCmTC5KDg2hcPL%2Fx8XznVE8A6oRFtmDihHr0d91153rwi5t2fwK9C20f9n4FtxPIp0DO4o1CXC5ef5GM1wsky5JXDgeLirwepct49sphWU2Parap2LD73Z6z9t8Rm2W%2Baep5nrO961MSgSy5iKfFzGz6vG183vdqHyZEgq9L6K0op2ErlXrpUdsdgrfQ2Oi21hywOWo3ZjmNz5u7wbrU4g0ZWp4tRv9ZZpEiI4kQpX0xnhTOXrylkBfWODVzN3n06rlnYQi3rr%2BPQLzjAILWWEUkTSc7%2BNroLmh1oIxX5QzgxaA9dTYRLvgcmwkS1f%2BJ%2FUKyArcYKGvNbQXt44%2FnO9siHV99hH04XUCMpNWY02OIhTYpz7dFmxDtl24tIIyRzQrcFuBzSu9GDlQb7S6Ea63%2BJYK2RflCAqXnylCogXbaJJTTG0waiNFsT9J4fD46255aMCxB15mbRuxwQ%2B8%2B01H6nzK4cyOwXARDGHNju5qs2mC7%2FmOUtidVu5FoBx6%2FP3yHh%2B4a7NMOvSVTt3uGy41y690tJmvy0%2B01ubz6%2FDweAyjdwuVE43S5wmjwOGVhaDjWFiLd4DzWbw9k6%2BkHoa4Yxw%3D%3D" xlink:title="Boltzmann brain\n(hedonic solipsism)\n[1+3+4+9+15]\n→ nothing — ranking flat\n(Ludwig Boltzmann)" target="_blank">
<path fill="#c9b3dd" stroke="#4a2a78" d="M352,-237C352,-237 220,-237 220,-237 214,-237 208,-231 208,-225 208,-225 208,-177 208,-177 208,-171 214,-165 220,-165 220,-165 352,-165 352,-165 358,-165 364,-171 364,-177 364,-177 364,-225 364,-225 364,-231 358,-237 352,-237"/>
<text text-anchor="middle" x="286" y="-222.2" font-family="Helvetica,sans-Serif" font-size="11.00" fill="#201040">Boltzmann brain</text>
<text text-anchor="middle" x="286" y="-210.2" font-family="Helvetica,sans-Serif" font-size="11.00" fill="#201040">(hedonic solipsism)</text>
<text text-anchor="middle" x="286" y="-198.2" font-family="Helvetica,sans-Serif" font-size="11.00" fill="#201040">[1+3+4+9+15]</text>
<text text-anchor="middle" x="286" y="-186.2" font-family="Helvetica,sans-Serif" font-size="11.00" fill="#201040">→ nothing — ranking flat</text>
<text text-anchor="middle" x="286" y="-174.2" font-family="Helvetica,sans-Serif" font-size="11.00" fill="#201040">(Ludwig Boltzmann)</text>
</a>
</g>
</g>
<!-- w1_3_4_9&#45;&gt;w1_3_4_9_15 -->
<g id="edge13" class="edge">
<title>w1_3_4_9&#45;&gt;w1_3_4_9_15</title>
<path fill="none" stroke="#c0392b" stroke-dasharray="5,2" d="M349.96,-313.91C308.73,-299 270,-285 270,-285 270,-285 270,-275 270,-275 270,-275 272.82,-262.14 276.09,-247.21"/>
<polygon fill="#c0392b" stroke="#c0392b" points="279.56,-247.73 278.28,-237.22 272.72,-246.24 279.56,-247.73"/>
<text text-anchor="middle" x="344.5" y="-277.8" font-family="Helvetica,sans-Serif" font-size="9.00" fill="#5b6675">only this moment&#39;s feeling is real</text>
</g>
<!-- w1_3_4_9_11_12 -->
<g id="node9" class="node">
<title>w1_3_4_9_11_12</title>
<g id="a_node9"><a xlink:href="https://www.squiggle-language.com/playground#code=eJx1lW1z4jYQx7%2FKDtNOIUOIbbi7hg4vSEIe5rheJkd70wkZR9hrrJ4seSQZh%2Bby3buyIYEA78C7%2Bmkf%2Frt6bsSYsELYcxVjo984OYHBYAATzbgEqyDS7L8l%2FSglTIvA83tQKi3iBccSSj%2Fshr3wNPT90A%2BgaazKwQ9ajjCVRBoaU2S55UpClBKwDx7kTKso5Uw4nn8agA8J0yEr2TJMi4xJszZ0ISlsoXH1OcyYtajDkts0jLmJVCEtl%2FO1ew%2Bk2vwebp1ee52C4Atn5TI0PCsEq8Jbx%2BJDjtooGbIkwajCVKmu7QFoNFxwlDZMlIpNOENmQzbnVcIjFqXA3rLmBhjcLm1KvxMuEKiob2ZzAjZlFlgcmzaBqRNcogGlK5jGYyoWy5Cy5oa%2B2xTrOv5mqDQyqhh%2FQKSyXBlXiVcHOitjJCJ94qaiGctkzISSCBm1WnTg8bWTo8WjC9Udx6ec8qaDCyYKBJVUhLemdyrYGRoLs2IJhbvGHTS4mVgfhuPx5eii9r4a%2FTm6G05GFzBbwhwlamaxky%2FXisKY262yHJGxTe209eWuckSqWBdcU3yAVXuAyoqu5ErPqSa55hnTS5jRFQmPOP1uw9no8uvdiHLWTFSEEvk8dZ2lCgjlNJ7yx7pTQs2l0hlp89T7Fc5voKk05XeskuOMzSW3RYxw9nUyOm9RPEYV%2BWduoxTlBRPLW9R%2FmRgG8DyVQDJSucBrFDnGrxav431wF3qdD86nRCFmSJFcUcsconbx%2FNrH851TJWfUCYtswcQZkz%2F%2BrjrjXLsHbjragz6Cpg%2FHh3CtqXyZynm8lYiLxeutgvGCqWRZsuPQXWXkBRQu49mOwzqbgHK2qdiy%2B53AWXufqJplvm0KPM%2FZPvUoiKksuYhnxdxs%2B3ysfX4PKh8mRIK7KQSvJaeBKGlo33lUdkfwVhob3ZcXw%2FE%2FwBao3SjQSoBfHvqbUou3ZGh5thrPN5lFiowkQtoU70aIjrN3ixHywhqnZm6dsCLlRncA966%2Fz0B1xz5MG2MVkTSd7OBHrbtpow1l%2FJpOHzJksrlXmC1SgA8v7W3kFV9gPVJiuR%2B2qYnDjO%2BkN3Drn9LR3C6hOfxy2dpP3FLRfuTw5gucwPmKNZJWY04rDQttUp4fwG5qbz92Qh26ds8BwhjZvMD9pC2VOpK3Q%2FqW0q7JgdKmxwvhVqt%2FqYYH2rGp7P2476RuehsMMQw00zrEnJYsCShGc6CQuzOxn17v4h1G1%2B2ECrQzF47TxWPvY2tPa8CwBF2L7%2BpjcEfbn%2BkoPRDmYXoFf3BTp2kRuRdsAGNubEcjjZ7BZvXHKG3Pls16Ktrw%2FPPpJzx1Nu55adH6mrknaQAr0L33sBrmyd5HbXJ98%2B1tIvtQuneYU%2FFn65eNZp1TFIbmceOdpBucx%2BbtU9l4%2BR%2FUQiRO" xlink:title="Resilient foods beat\nAGI safety\n[1+3+4+9+11+12]\n→ ALLFED\n(David Denkenberger, Joshua Pearce)" target="_blank">
<path fill="#c9b3dd" stroke="#4a2a78" d="M871,-88C871,-88 669,-88 669,-88 663,-88 657,-82 657,-76 657,-76 657,-28 657,-28 657,-22 663,-16 669,-16 669,-16 871,-16 871,-16 877,-16 883,-22 883,-28 883,-28 883,-76 883,-76 883,-82 877,-88 871,-88"/>
<text text-anchor="middle" x="770" y="-73.2" font-family="Helvetica,sans-Serif" font-size="11.00" fill="#201040">Resilient foods beat</text>
<text text-anchor="middle" x="770" y="-61.2" font-family="Helvetica,sans-Serif" font-size="11.00" fill="#201040">AGI safety</text>
<text text-anchor="middle" x="770" y="-49.2" font-family="Helvetica,sans-Serif" font-size="11.00" fill="#201040">[1+3+4+9+11+12]</text>
<text text-anchor="middle" x="770" y="-37.2" font-family="Helvetica,sans-Serif" font-size="11.00" fill="#201040">→ ALLFED</text>
<text text-anchor="middle" x="770" y="-25.2" font-family="Helvetica,sans-Serif" font-size="11.00" fill="#201040">(David Denkenberger, Joshua Pearce)</text>
</a>
</g>
</g>
<!-- w1_3_4_9_11&#45;&gt;w1_3_4_9_11_12 -->
<g id="edge11" class="edge">
<title>w1_3_4_9_11&#45;&gt;w1_3_4_9_11_12</title>
<path fill="none" stroke="#9aa6b3" d="M790.53,-164.79C786.86,-144.77 782.21,-119.5 778.27,-98.05"/>
<polygon fill="#9aa6b3" stroke="#9aa6b3" points="781.71,-97.38 776.46,-88.18 774.83,-98.65 781.71,-97.38"/>
<text text-anchor="middle" x="892" y="-128.8" font-family="Helvetica,sans-Serif" font-size="9.00" fill="#5b6675">prefer resilient foods to AI safety on the margin</text>
</g>
<!-- w1_3_4_11_12 -->
<g id="node11" class="node">
<title>w1_3_4_11_12</title>
<g id="a_node11"><a xlink:href="https://www.squiggle-language.com/playground#code=eJx1lW1z4jYQx7%2FKDtNOIUOIbUjvjg4vSEIeplwvk%2BN60wkZR9hrrJ4teSQ5jpvLd%2B%2FKBgLBvAPv6qd9%2BO%2FqpRVixPLEnMsQW8PWyQmMRiOYKcYFGAmBYv%2BV9KMQMM89xx1AIVUSPnEsoHD9vj%2FwXdd3PWhrIzNwvY49PxfEGWudp5nhUkAQE24IDmRMySDmLLE095MHLkRM%2BaxgpR%2FnKRN6behDlJtc4eqznzJjUPkFN7Efch3IXBgulmv3AQi5%2Fd3fOb25zYUMlZbCZ1GEQeVYpbK2e6BQ84SjMH4kZaj9BTLjsyWvUpqwIAb2lhfXwOC2NDH9jniCQEV7M%2BsTMDEzwMJQdwlMleYCNUhVwRQeUzlYipQX1%2FTdxFhX6jdNyYugYvwBgUwzqW2uGwc6K0IkIn3iuqJpw0TIEikQUmpl0oPHTacmT482VHscnzPKmw4%2BsSRHkFFFeGtqr4KdoTawyEvI7TX2oMbtxIYwnk4vJxe199Xkr8ndeDa5gEUJSxSomMFeVq4VgyE3O2U5ImOXGmbqy23liFSxLrii%2BACr9gCVFW3JpVpSTTLFU6ZKWNAVEQ84%2Fe7C2eTyy92EclYsqQgF8mVsO0sVSKTVcMwf604lcimkSkl9n5xf4fwG2lJRfscyOk7ZUnCThwhnX2aT8w7Fo2We%2FclNEKO4YEl5i%2BqbDmEEL3MBJCOZJXiNSYbhxuL0nFN7odM7tT4FJskCKZIraplF1C6OW%2Fs4rnWqBIsqYoHJWXLGxI%2B%2Fq85Y1%2F6Bm44a0EfQduH4EK4zF69zsQx3ErGxOINVMI43FyyN9hz6q4wcj8JlPN1zWGfjUc4mTnbsbs%2Bz1sEHqmaR7Zo8x7G2DwMKYi4KnoSLfKl3fX6vfT56lQ9Lkgj3U%2FA2JaeBKGho33lUdktwVhqb3BcX4%2Bk%2FwJ5Q2VGglQC%2FPAy3pRbuyNDwdDWebzILJBlJhLQp3o0QHWfvVh9kudFWzdxYYQXSju4I7m1%2FX4DqjkOYt6YyIGla2cGPWnfzVheKcJPOEFJkot0ozA4pwIXX7i7yij9hPVJJ2Qzb1sRhxnfSG9gFT%2Bkobkpojz9fdpqJOypqRo5vPsMJnK9YE2EUZrTSMFc65tkB7Lb2mrEz6tC1XfgIU2TLHJtJOyq1JGeP9DWmXZMBpU3PE8Ktkv9SDQ%2B0Y1vZzbjvpG56GzQxNLTjOsSMliwJKER9oJD7M9FMr3fxHqNvd0IF2psLy%2BnjsXPaaWgNaBahbfFdfQzuaPszFcQHwjxMr%2BAPduoULSL7go1gyrXpKaTR09iu%2FmipzFnZrqeiCy8%2Fn3%2FCc2%2FrntcOra%2BFfZJGsALdOw%2BrYZ41Pmqz65uvbxM5hMK%2Bw5yKv1i%2FbDTrnKLQNI9b7yTdYD22b5%2BL1uv%2F%2BE4ZGQ%3D%3D" xlink:title="Resilient foods beat\nAGI safety\n[1+3+4+11+12]\n→ ALLFED\n(David Denkenberger, Joshua Pearce)" target="_blank">
<path fill="#c9b3dd" stroke="#4a2a78" d="M1133,-88C1133,-88 931,-88 931,-88 925,-88 919,-82 919,-76 919,-76 919,-28 919,-28 919,-22 925,-16 931,-16 931,-16 1133,-16 1133,-16 1139,-16 1145,-22 1145,-28 1145,-28 1145,-76 1145,-76 1145,-82 1139,-88 1133,-88"/>
<text text-anchor="middle" x="1032" y="-73.2" font-family="Helvetica,sans-Serif" font-size="11.00" fill="#201040">Resilient foods beat</text>
<text text-anchor="middle" x="1032" y="-61.2" font-family="Helvetica,sans-Serif" font-size="11.00" fill="#201040">AGI safety</text>
<text text-anchor="middle" x="1032" y="-49.2" font-family="Helvetica,sans-Serif" font-size="11.00" fill="#201040">[1+3+4+11+12]</text>
<text text-anchor="middle" x="1032" y="-37.2" font-family="Helvetica,sans-Serif" font-size="11.00" fill="#201040">→ ALLFED</text>
<text text-anchor="middle" x="1032" y="-25.2" font-family="Helvetica,sans-Serif" font-size="11.00" fill="#201040">(David Denkenberger, Joshua Pearce)</text>
</a>
</g>
</g>
<!-- w1_3_4_11&#45;&gt;w1_3_4_11_12 -->
<g id="edge9" class="edge">
<title>w1_3_4_11&#45;&gt;w1_3_4_11_12</title>
<path fill="none" stroke="#9aa6b3" d="M1032.76,-164.79C1032.62,-144.86 1032.45,-119.73 1032.31,-98.34"/>
<polygon fill="#9aa6b3" stroke="#9aa6b3" points="1035.81,-98.15 1032.24,-88.18 1028.81,-98.2 1035.81,-98.15"/>
<text text-anchor="middle" x="1139" y="-128.8" font-family="Helvetica,sans-Serif" font-size="9.00" fill="#5b6675">prefer resilient foods to AI safety on the margin</text>
</g>
</g>
</svg>
