<?xml version="1.0" encoding="UTF-8" standalone="no"?>
<!DOCTYPE svg PUBLIC "-//W3C//DTD SVG 1.1//EN"
 "http://www.w3.org/Graphics/SVG/1.1/DTD/svg11.dtd">
<!-- Generated by graphviz version 2.43.0 (0)
 -->
<!-- Title: T Pages: 1 -->
<svg width="985pt" height="979pt"
 viewBox="0.00 0.00 985.20 979.20" xmlns="http://www.w3.org/2000/svg" xmlns:xlink="http://www.w3.org/1999/xlink">
<g id="graph0" class="graph" transform="scale(1 1) rotate(0) translate(21.6 957.6)">
<title>T</title>
<polygon fill="white" stroke="transparent" points="-21.6,21.6 -21.6,-957.6 963.6,-957.6 963.6,21.6 -21.6,21.6"/>
<g id="clust1" class="cluster">
<title>cluster_stop0</title>
<path fill="white" stroke="#6b7f96" stroke-width="2" stroke-dasharray="5,2" d="M216,-830C216,-830 364,-830 364,-830 370,-830 376,-836 376,-842 376,-842 376,-916 376,-916 376,-922 370,-928 364,-928 364,-928 216,-928 216,-928 210,-928 204,-922 204,-916 204,-916 204,-842 204,-842 204,-836 210,-830 216,-830"/>
<text text-anchor="middle" x="238.5" y="-913.6" font-family="Helvetica,sans-Serif" font-weight="bold" font-size="13.00" fill="#6b7f96">STOP 0</text>
</g>
<g id="clust2" class="cluster">
<title>cluster_stop1</title>
<path fill="white" stroke="#5a9367" stroke-width="2" stroke-dasharray="5,2" d="M203,-693C203,-693 377,-693 377,-693 383,-693 389,-699 389,-705 389,-705 389,-779 389,-779 389,-785 383,-791 377,-791 377,-791 203,-791 203,-791 197,-791 191,-785 191,-779 191,-779 191,-705 191,-705 191,-699 197,-693 203,-693"/>
<text text-anchor="middle" x="225.5" y="-776.6" font-family="Helvetica,sans-Serif" font-weight="bold" font-size="13.00" fill="#5a9367">STOP 1</text>
</g>
<g id="clust3" class="cluster">
<title>cluster_stop2</title>
<path fill="white" stroke="#b0a04a" stroke-width="2" stroke-dasharray="5,2" d="M206,-556C206,-556 374,-556 374,-556 380,-556 386,-562 386,-568 386,-568 386,-642 386,-642 386,-648 380,-654 374,-654 374,-654 206,-654 206,-654 200,-654 194,-648 194,-642 194,-642 194,-568 194,-568 194,-562 200,-556 206,-556"/>
<text text-anchor="middle" x="228.5" y="-639.6" font-family="Helvetica,sans-Serif" font-weight="bold" font-size="13.00" fill="#b0a04a">STOP 2</text>
</g>
<g id="clust4" class="cluster">
<title>cluster_stop3</title>
<path fill="white" stroke="#c9932a" stroke-width="2" stroke-dasharray="5,2" d="M169,-419C169,-419 411,-419 411,-419 417,-419 423,-425 423,-431 423,-431 423,-505 423,-505 423,-511 417,-517 411,-517 411,-517 169,-517 169,-517 163,-517 157,-511 157,-505 157,-505 157,-431 157,-431 157,-425 163,-419 169,-419"/>
<text text-anchor="middle" x="191.5" y="-502.6" font-family="Helvetica,sans-Serif" font-weight="bold" font-size="13.00" fill="#c9932a">STOP 3</text>
</g>
<g id="clust5" class="cluster">
<title>cluster_stop4</title>
<path fill="white" stroke="#c96a4a" stroke-width="2" stroke-dasharray="5,2" d="M20,-282C20,-282 474,-282 474,-282 480,-282 486,-288 486,-294 486,-294 486,-368 486,-368 486,-374 480,-380 474,-380 474,-380 20,-380 20,-380 14,-380 8,-374 8,-368 8,-368 8,-294 8,-294 8,-288 14,-282 20,-282"/>
<text text-anchor="middle" x="42.5" y="-365.6" font-family="Helvetica,sans-Serif" font-weight="bold" font-size="13.00" fill="#c96a4a">STOP 4</text>
</g>
<g id="clust7" class="cluster">
<title>cluster_stop5</title>
<path fill="white" stroke="#c0392b" stroke-width="2" stroke-dasharray="5,2" d="M99,-145C99,-145 735,-145 735,-145 741,-145 747,-151 747,-157 747,-157 747,-231 747,-231 747,-237 741,-243 735,-243 735,-243 99,-243 99,-243 93,-243 87,-237 87,-231 87,-231 87,-157 87,-157 87,-151 93,-145 99,-145"/>
<text text-anchor="middle" x="121.5" y="-228.6" font-family="Helvetica,sans-Serif" font-weight="bold" font-size="13.00" fill="#c0392b">STOP 5</text>
</g>
<g id="clust9" class="cluster">
<title>cluster_stop6</title>
<path fill="white" stroke="#6a3fa0" stroke-width="2" stroke-dasharray="5,2" d="M372,-8C372,-8 922,-8 922,-8 928,-8 934,-14 934,-20 934,-20 934,-94 934,-94 934,-100 928,-106 922,-106 922,-106 372,-106 372,-106 366,-106 360,-100 360,-94 360,-94 360,-20 360,-20 360,-14 366,-8 372,-8"/>
<text text-anchor="middle" x="394.5" y="-91.6" font-family="Helvetica,sans-Serif" font-weight="bold" font-size="13.00" fill="#6a3fa0">STOP 6</text>
</g>
<!-- s0_parochial -->
<g id="node1" class="node">
<title>s0_parochial</title>
<path fill="#dfe7ef" stroke="#6b7f96" d="M355.5,-898C355.5,-898 224.5,-898 224.5,-898 218.5,-898 212.5,-892 212.5,-886 212.5,-886 212.5,-850 212.5,-850 212.5,-844 218.5,-838 224.5,-838 224.5,-838 355.5,-838 355.5,-838 361.5,-838 367.5,-844 367.5,-850 367.5,-850 367.5,-886 367.5,-886 367.5,-892 361.5,-898 355.5,-898"/>
<text text-anchor="middle" x="290" y="-883.2" font-family="Helvetica,sans-Serif" font-size="11.00" fill="#1b2733">Parochial</text>
<text text-anchor="middle" x="290" y="-871.2" font-family="Helvetica,sans-Serif" font-size="11.00" fill="#1b2733">community + nation</text>
<text text-anchor="middle" x="290" y="-859.2" font-family="Helvetica,sans-Serif" font-size="11.00" fill="#1b2733">→ Local soup kitchen</text>
<text text-anchor="middle" x="290" y="-847.2" font-family="Helvetica,sans-Serif" font-size="11.00" fill="#1b2733">(common&#45;sense default)</text>
</g>
<!-- s1_all_humans -->
<g id="node2" class="node">
<title>s1_all_humans</title>
<path fill="#cfe6cf" stroke="#5a9367" d="M368.5,-761C368.5,-761 211.5,-761 211.5,-761 205.5,-761 199.5,-755 199.5,-749 199.5,-749 199.5,-713 199.5,-713 199.5,-707 205.5,-701 211.5,-701 211.5,-701 368.5,-701 368.5,-701 374.5,-701 380.5,-707 380.5,-713 380.5,-713 380.5,-749 380.5,-749 380.5,-755 374.5,-761 368.5,-761"/>
<text text-anchor="middle" x="290" y="-746.2" font-family="Helvetica,sans-Serif" font-size="11.00" fill="#1e3a24">Humanitarian</text>
<text text-anchor="middle" x="290" y="-734.2" font-family="Helvetica,sans-Serif" font-size="11.00" fill="#1e3a24">all present humans</text>
<text text-anchor="middle" x="290" y="-722.2" font-family="Helvetica,sans-Serif" font-size="11.00" fill="#1e3a24">→ GiveWell top charity (AMF)</text>
<text text-anchor="middle" x="290" y="-710.2" font-family="Helvetica,sans-Serif" font-size="11.00" fill="#1e3a24">(Alexander Berger)</text>
</g>
<!-- s0_parochial&#45;&gt;s1_all_humans -->
<g id="edge1" class="edge">
<title>s0_parochial&#45;&gt;s1_all_humans</title>
<path fill="none" stroke="#9aa6b3" d="M290,-837.71C290,-818.25 290,-792.47 290,-771.24"/>
<polygon fill="#9aa6b3" stroke="#9aa6b3" points="293.5,-771.24 290,-761.24 286.5,-771.24 293.5,-771.24"/>
<text text-anchor="middle" x="347" y="-801.8" font-family="Helvetica,sans-Serif" font-size="9.00" fill="#5b6675">drop nationality discount</text>
</g>
<!-- s2_animals -->
<g id="node3" class="node">
<title>s2_animals</title>
<path fill="#e6e2c0" stroke="#b0a04a" d="M366.5,-624C366.5,-624 213.5,-624 213.5,-624 207.5,-624 201.5,-618 201.5,-612 201.5,-612 201.5,-576 201.5,-576 201.5,-570 207.5,-564 213.5,-564 213.5,-564 366.5,-564 366.5,-564 372.5,-564 378.5,-570 378.5,-576 378.5,-576 378.5,-612 378.5,-612 378.5,-618 372.5,-624 366.5,-624"/>
<text text-anchor="middle" x="290" y="-609.2" font-family="Helvetica,sans-Serif" font-size="11.00" fill="#3a3410">Farmed</text>
<text text-anchor="middle" x="290" y="-597.2" font-family="Helvetica,sans-Serif" font-size="11.00" fill="#3a3410">animals count</text>
<text text-anchor="middle" x="290" y="-585.2" font-family="Helvetica,sans-Serif" font-size="11.00" fill="#3a3410">→ The Humane League</text>
<text text-anchor="middle" x="290" y="-573.2" font-family="Helvetica,sans-Serif" font-size="11.00" fill="#3a3410">(Peter Singer, Lewis Bollard)</text>
</g>
<!-- s1_all_humans&#45;&gt;s2_animals -->
<g id="edge2" class="edge">
<title>s1_all_humans&#45;&gt;s2_animals</title>
<path fill="none" stroke="#9aa6b3" d="M290,-700.71C290,-681.25 290,-655.47 290,-634.24"/>
<polygon fill="#9aa6b3" stroke="#9aa6b3" points="293.5,-634.24 290,-624.24 286.5,-634.24 293.5,-634.24"/>
<text text-anchor="middle" x="347.5" y="-664.8" font-family="Helvetica,sans-Serif" font-size="9.00" fill="#5b6675">add animal welfare range</text>
</g>
<!-- s3_inverts -->
<g id="node4" class="node">
<title>s3_inverts</title>
<path fill="#f6e0c0" stroke="#c9932a" d="M402.5,-487C402.5,-487 177.5,-487 177.5,-487 171.5,-487 165.5,-481 165.5,-475 165.5,-475 165.5,-439 165.5,-439 165.5,-433 171.5,-427 177.5,-427 177.5,-427 402.5,-427 402.5,-427 408.5,-427 414.5,-433 414.5,-439 414.5,-439 414.5,-475 414.5,-475 414.5,-481 408.5,-487 402.5,-487"/>
<text text-anchor="middle" x="290" y="-472.2" font-family="Helvetica,sans-Serif" font-size="11.00" fill="#5a3f10">Invertebrates</text>
<text text-anchor="middle" x="290" y="-460.2" font-family="Helvetica,sans-Serif" font-size="11.00" fill="#5a3f10">count</text>
<text text-anchor="middle" x="290" y="-448.2" font-family="Helvetica,sans-Serif" font-size="11.00" fill="#5a3f10">→ Shrimp Welfare Project &#160;(UNSTABLE) &#160;▼</text>
<text text-anchor="middle" x="290" y="-436.2" font-family="Helvetica,sans-Serif" font-size="11.00" fill="#5a3f10">(Brian Tomasik)</text>
</g>
<!-- s2_animals&#45;&gt;s3_inverts -->
<g id="edge3" class="edge">
<title>s2_animals&#45;&gt;s3_inverts</title>
<path fill="none" stroke="#9aa6b3" d="M290,-563.71C290,-544.25 290,-518.47 290,-497.24"/>
<polygon fill="#9aa6b3" stroke="#9aa6b3" points="293.5,-497.24 290,-487.24 286.5,-497.24 293.5,-497.24"/>
<text text-anchor="middle" x="351.5" y="-527.8" font-family="Helvetica,sans-Serif" font-size="9.00" fill="#5b6675">add invertebrate sentience</text>
</g>
<!-- s4_soil -->
<g id="node5" class="node">
<title>s4_soil</title>
<path fill="#f2ccc0" stroke="#c96a4a" d="M280,-350C280,-350 28,-350 28,-350 22,-350 16,-344 16,-338 16,-338 16,-302 16,-302 16,-296 22,-290 28,-290 28,-290 280,-290 280,-290 286,-290 292,-296 292,-302 292,-302 292,-338 292,-338 292,-344 286,-350 280,-350"/>
<text text-anchor="middle" x="154" y="-335.2" font-family="Helvetica,sans-Serif" font-size="11.00" fill="#5a2410">Soil animals</text>
<text text-anchor="middle" x="154" y="-323.2" font-family="Helvetica,sans-Serif" font-size="11.00" fill="#5a2410">count (branch A)</text>
<text text-anchor="middle" x="154" y="-311.2" font-family="Helvetica,sans-Serif" font-size="11.00" fill="#5a2410">→ GiveWell top charity (AMF) &#160;(sign uncertain)</text>
<text text-anchor="middle" x="154" y="-299.2" font-family="Helvetica,sans-Serif" font-size="11.00" fill="#5a2410">(Brian Tomasik)</text>
</g>
<!-- s3_inverts&#45;&gt;s4_soil -->
<g id="edge4" class="edge">
<title>s3_inverts&#45;&gt;s4_soil</title>
<path fill="none" stroke="#c0392b" stroke-dasharray="5,2" d="M256,-427C239,-412.5 222,-398 222,-398 222,-398 203.89,-377.49 186.36,-357.64"/>
<polygon fill="#c0392b" stroke="#c0392b" points="188.95,-355.29 179.71,-350.11 183.7,-359.92 188.95,-355.29"/>
<text text-anchor="middle" x="276.5" y="-390.8" font-family="Helvetica,sans-Serif" font-size="9.00" fill="#5b6675">count soil / wild animals</text>
</g>
<!-- s4_future -->
<g id="node6" class="node">
<title>s4_future</title>
<path fill="#f2ccc0" stroke="#c96a4a" d="M466,-350C466,-350 340,-350 340,-350 334,-350 328,-344 328,-338 328,-338 328,-302 328,-302 328,-296 334,-290 340,-290 340,-290 466,-290 466,-290 472,-290 478,-296 478,-302 478,-302 478,-338 478,-338 478,-344 472,-350 466,-350"/>
<text text-anchor="middle" x="403" y="-335.2" font-family="Helvetica,sans-Serif" font-size="11.00" fill="#5a2410">Future</text>
<text text-anchor="middle" x="403" y="-323.2" font-family="Helvetica,sans-Serif" font-size="11.00" fill="#5a2410">people count</text>
<text text-anchor="middle" x="403" y="-311.2" font-family="Helvetica,sans-Serif" font-size="11.00" fill="#5a2410">→ ALLFED &#160;▼</text>
<text text-anchor="middle" x="403" y="-299.2" font-family="Helvetica,sans-Serif" font-size="11.00" fill="#5a2410">(Ajeya Cotra, Toby Ord)</text>
</g>
<!-- s3_inverts&#45;&gt;s4_future -->
<g id="edge5" class="edge">
<title>s3_inverts&#45;&gt;s4_future</title>
<path fill="none" stroke="#c0392b" stroke-dasharray="5,2" d="M314.52,-426.71C331.4,-406.54 353.96,-379.59 372.07,-357.95"/>
<polygon fill="#c0392b" stroke="#c0392b" points="374.79,-360.15 378.53,-350.24 369.43,-355.66 374.79,-360.15"/>
<text text-anchor="middle" x="409.5" y="-390.8" font-family="Helvetica,sans-Serif" font-size="9.00" fill="#5b6675">stop discounting the future</text>
</g>
<!-- s5_discount -->
<g id="node7" class="node">
<title>s5_discount</title>
<path fill="#eeb3b3" stroke="#c0392b" d="M264.5,-213C264.5,-213 107.5,-213 107.5,-213 101.5,-213 95.5,-207 95.5,-201 95.5,-201 95.5,-165 95.5,-165 95.5,-159 101.5,-153 107.5,-153 107.5,-153 264.5,-153 264.5,-153 270.5,-153 276.5,-159 276.5,-165 276.5,-165 276.5,-201 276.5,-201 276.5,-207 270.5,-213 264.5,-213"/>
<text text-anchor="middle" x="186" y="-198.2" font-family="Helvetica,sans-Serif" font-size="11.00" fill="#5a1410">Future</text>
<text text-anchor="middle" x="186" y="-186.2" font-family="Helvetica,sans-Serif" font-size="11.00" fill="#5a1410">discounted</text>
<text text-anchor="middle" x="186" y="-174.2" font-family="Helvetica,sans-Serif" font-size="11.00" fill="#5a1410">→ GiveWell top charity (AMF)</text>
<text text-anchor="middle" x="186" y="-162.2" font-family="Helvetica,sans-Serif" font-size="11.00" fill="#5a1410">(Frank Ramsey)</text>
</g>
<!-- s4_future&#45;&gt;s5_discount -->
<g id="edge6" class="edge">
<title>s4_future&#45;&gt;s5_discount</title>
<path fill="none" stroke="#c0392b" stroke-dasharray="5,2" d="M345,-290C316,-275.5 287,-261 287,-261 287,-261 258.9,-239.58 232.34,-219.33"/>
<polygon fill="#c0392b" stroke="#c0392b" points="234.26,-216.39 224.18,-213.11 230.01,-221.96 234.26,-216.39"/>
<text text-anchor="middle" x="340.5" y="-253.8" font-family="Helvetica,sans-Serif" font-size="9.00" fill="#5b6675">add pure&#45;time discount</text>
</g>
<!-- s5_nuclear -->
<g id="node8" class="node">
<title>s5_nuclear</title>
<path fill="#eeb3b3" stroke="#c0392b" d="M481,-213C481,-213 325,-213 325,-213 319,-213 313,-207 313,-201 313,-201 313,-165 313,-165 313,-159 319,-153 325,-153 325,-153 481,-153 481,-153 487,-153 493,-159 493,-165 493,-165 493,-201 493,-201 493,-207 487,-213 481,-213"/>
<text text-anchor="middle" x="403" y="-198.2" font-family="Helvetica,sans-Serif" font-size="11.00" fill="#5a1410">Nuclear war</text>
<text text-anchor="middle" x="403" y="-186.2" font-family="Helvetica,sans-Serif" font-size="11.00" fill="#5a1410">non&#45;negligible</text>
<text text-anchor="middle" x="403" y="-174.2" font-family="Helvetica,sans-Serif" font-size="11.00" fill="#5a1410">→ ALLFED</text>
<text text-anchor="middle" x="403" y="-162.2" font-family="Helvetica,sans-Serif" font-size="11.00" fill="#5a1410">(Carl Sagan, Martin Hellman)</text>
</g>
<!-- s4_future&#45;&gt;s5_nuclear -->
<g id="edge7" class="edge">
<title>s4_future&#45;&gt;s5_nuclear</title>
<path fill="none" stroke="#c0392b" stroke-dasharray="5,2" d="M403,-289.71C403,-270.25 403,-244.47 403,-223.24"/>
<polygon fill="#c0392b" stroke="#c0392b" points="406.5,-223.24 403,-213.24 399.5,-223.24 406.5,-223.24"/>
<text text-anchor="middle" x="452.5" y="-253.8" font-family="Helvetica,sans-Serif" font-size="9.00" fill="#5b6675">add P(nuclear war)/yr</text>
</g>
<!-- s5_astro -->
<g id="node9" class="node">
<title>s5_astro</title>
<path fill="#eeb3b3" stroke="#c0392b" d="M727,-213C727,-213 541,-213 541,-213 535,-213 529,-207 529,-201 529,-201 529,-165 529,-165 529,-159 535,-153 541,-153 541,-153 727,-153 727,-153 733,-153 739,-159 739,-165 739,-165 739,-201 739,-201 739,-207 733,-213 727,-213"/>
<text text-anchor="middle" x="634" y="-198.2" font-family="Helvetica,sans-Serif" font-size="11.00" fill="#5a1410">Astronomical</text>
<text text-anchor="middle" x="634" y="-186.2" font-family="Helvetica,sans-Serif" font-size="11.00" fill="#5a1410">stakes</text>
<text text-anchor="middle" x="634" y="-174.2" font-family="Helvetica,sans-Serif" font-size="11.00" fill="#5a1410">→ AI safety (Redwood Research)</text>
<text text-anchor="middle" x="634" y="-162.2" font-family="Helvetica,sans-Serif" font-size="11.00" fill="#5a1410">(Nick Bostrom, Eliezer Yudkowsky)</text>
</g>
<!-- s4_future&#45;&gt;s5_astro -->
<g id="edge8" class="edge">
<title>s4_future&#45;&gt;s5_astro</title>
<path fill="none" stroke="#9aa6b3" d="M457,-290C484,-275.5 511,-261 511,-261 511,-261 546.11,-239.02 578.82,-218.55"/>
<polygon fill="#9aa6b3" stroke="#9aa6b3" points="580.88,-221.38 587.5,-213.11 577.17,-215.45 580.88,-221.38"/>
<text text-anchor="middle" x="587.5" y="-253.8" font-family="Helvetica,sans-Serif" font-size="9.00" fill="#5b6675">accept astronomical waste</text>
</g>
<!-- s6_boltzmann -->
<g id="node10" class="node">
<title>s6_boltzmann</title>
<path fill="#d7c6e6" stroke="#6a3fa0" d="M554,-76C554,-76 380,-76 380,-76 374,-76 368,-70 368,-64 368,-64 368,-28 368,-28 368,-22 374,-16 380,-16 380,-16 554,-16 554,-16 560,-16 566,-22 566,-28 566,-28 566,-64 566,-64 566,-70 560,-76 554,-76"/>
<text text-anchor="middle" x="467" y="-61.2" font-family="Helvetica,sans-Serif" font-size="11.00" fill="#2c1650">Boltzmann brain</text>
<text text-anchor="middle" x="467" y="-49.2" font-family="Helvetica,sans-Serif" font-size="11.00" fill="#2c1650">hedonic solipsism</text>
<text text-anchor="middle" x="467" y="-37.2" font-family="Helvetica,sans-Serif" font-size="11.00" fill="#2c1650">→ Local soup kitchen &#160;(all equal)</text>
<text text-anchor="middle" x="467" y="-25.2" font-family="Helvetica,sans-Serif" font-size="11.00" fill="#2c1650">(Ludwig Boltzmann)</text>
</g>
<!-- s5_astro&#45;&gt;s6_boltzmann -->
<g id="edge9" class="edge">
<title>s5_astro&#45;&gt;s6_boltzmann</title>
<path fill="none" stroke="#c0392b" stroke-dasharray="5,2" d="M597.76,-152.71C572.18,-132.03 537.77,-104.21 510.67,-82.31"/>
<polygon fill="#c0392b" stroke="#c0392b" points="512.86,-79.57 502.88,-76 508.46,-85.01 512.86,-79.57"/>
<text text-anchor="middle" x="613.5" y="-116.8" font-family="Helvetica,sans-Serif" font-size="9.00" fill="#5b6675">only my pleasure is real</text>
</g>
<!-- s6_antirealist -->
<g id="node11" class="node">
<title>s6_antirealist</title>
<path fill="#d7c6e6" stroke="#6a3fa0" d="M914,-76C914,-76 614,-76 614,-76 608,-76 602,-70 602,-64 602,-64 602,-28 602,-28 602,-22 608,-16 614,-16 614,-16 914,-16 914,-16 920,-16 926,-22 926,-28 926,-28 926,-64 926,-64 926,-70 920,-76 914,-76"/>
<text text-anchor="middle" x="764" y="-61.2" font-family="Helvetica,sans-Serif" font-size="11.00" fill="#2c1650">Moral anti&#45;realism</text>
<text text-anchor="middle" x="764" y="-49.2" font-family="Helvetica,sans-Serif" font-size="11.00" fill="#2c1650">nothing matters</text>
<text text-anchor="middle" x="764" y="-37.2" font-family="Helvetica,sans-Serif" font-size="11.00" fill="#2c1650">→ Local soup kitchen &#160;(all negative &#45; keep your money)</text>
<text text-anchor="middle" x="764" y="-25.2" font-family="Helvetica,sans-Serif" font-size="11.00" fill="#2c1650">(J. L. Mackie)</text>
</g>
<!-- s5_astro&#45;&gt;s6_antirealist -->
<g id="edge10" class="edge">
<title>s5_astro&#45;&gt;s6_antirealist</title>
<path fill="none" stroke="#c0392b" stroke-dasharray="5,2" d="M662.21,-152.71C681.71,-132.45 707.81,-105.35 728.7,-83.66"/>
<polygon fill="#c0392b" stroke="#c0392b" points="731.43,-85.87 735.85,-76.24 726.39,-81.01 731.43,-85.87"/>
<text text-anchor="middle" x="742.5" y="-116.8" font-family="Helvetica,sans-Serif" font-size="9.00" fill="#5b6675">deny moral realism</text>
</g>
</g>
</svg>
