<?xml version="1.0" encoding="UTF-8" standalone="no"?>
<!DOCTYPE svg PUBLIC "-//W3C//DTD SVG 1.1//EN"
 "http://www.w3.org/Graphics/SVG/1.1/DTD/svg11.dtd">
<!-- Generated by graphviz version 2.43.0 (0)
 -->
<!-- Title: T Pages: 1 -->
<svg width="1785pt" height="547pt"
 viewBox="0.00 0.00 1785.20 547.20" xmlns="http://www.w3.org/2000/svg" xmlns:xlink="http://www.w3.org/1999/xlink">
<g id="graph0" class="graph" transform="scale(1 1) rotate(0) translate(21.6 525.6)">
<title>T</title>
<polygon fill="white" stroke="transparent" points="-21.6,21.6 -21.6,-525.6 1763.6,-525.6 1763.6,21.6 -21.6,21.6"/>
<g id="clust1" class="cluster">
<title>cluster_stop2</title>
<path fill="white" stroke="#b0a04a" stroke-width="2" stroke-dasharray="5,2" d="M731,-362C731,-362 987,-362 987,-362 993,-362 999,-368 999,-374 999,-374 999,-484 999,-484 999,-490 993,-496 987,-496 987,-496 731,-496 731,-496 725,-496 719,-490 719,-484 719,-484 719,-374 719,-374 719,-368 725,-362 731,-362"/>
<text text-anchor="middle" x="753.5" y="-481.6" font-family="Helvetica,sans-Serif" font-weight="bold" font-size="13.00" fill="#b0a04a">STOP 2</text>
</g>
<g id="clust2" class="cluster">
<title>cluster_stop3</title>
<path fill="white" stroke="#c9a72a" stroke-width="2" stroke-dasharray="5,2" d="M20,-181C20,-181 230,-181 230,-181 236,-181 242,-187 242,-193 242,-193 242,-311 242,-311 242,-317 236,-323 230,-323 230,-323 20,-323 20,-323 14,-323 8,-317 8,-311 8,-311 8,-193 8,-193 8,-187 14,-181 20,-181"/>
<text text-anchor="middle" x="42.5" y="-308.6" font-family="Helvetica,sans-Serif" font-weight="bold" font-size="13.00" fill="#c9a72a">STOP 3</text>
</g>
<g id="clust3" class="cluster">
<title>cluster_stop4</title>
<path fill="white" stroke="#c9932a" stroke-width="2" stroke-dasharray="5,2" d="M274,-181C274,-181 502,-181 502,-181 508,-181 514,-187 514,-193 514,-193 514,-311 514,-311 514,-317 508,-323 502,-323 502,-323 274,-323 274,-323 268,-323 262,-317 262,-311 262,-311 262,-193 262,-193 262,-187 268,-181 274,-181"/>
<text text-anchor="middle" x="296.5" y="-308.6" font-family="Helvetica,sans-Serif" font-weight="bold" font-size="13.00" fill="#c9932a">STOP 4</text>
</g>
<g id="clust4" class="cluster">
<title>cluster_stop5</title>
<path fill="white" stroke="#cc7a33" stroke-width="2" stroke-dasharray="5,2" d="M546,-181C546,-181 832,-181 832,-181 838,-181 844,-187 844,-193 844,-193 844,-311 844,-311 844,-317 838,-323 832,-323 832,-323 546,-323 546,-323 540,-323 534,-317 534,-311 534,-311 534,-193 534,-193 534,-187 540,-181 546,-181"/>
<text text-anchor="middle" x="568.5" y="-308.6" font-family="Helvetica,sans-Serif" font-weight="bold" font-size="13.00" fill="#cc7a33">STOP 5</text>
</g>
<g id="clust5" class="cluster">
<title>cluster_stop7</title>
<path fill="white" stroke="#c65a2e" stroke-width="2" stroke-dasharray="5,2" d="M876,-181C876,-181 1182,-181 1182,-181 1188,-181 1194,-187 1194,-193 1194,-193 1194,-311 1194,-311 1194,-317 1188,-323 1182,-323 1182,-323 876,-323 876,-323 870,-323 864,-317 864,-311 864,-311 864,-193 864,-193 864,-187 870,-181 876,-181"/>
<text text-anchor="middle" x="898.5" y="-308.6" font-family="Helvetica,sans-Serif" font-weight="bold" font-size="13.00" fill="#c65a2e">STOP 7</text>
</g>
<g id="clust6" class="cluster">
<title>cluster_stop8</title>
<path fill="white" stroke="#b8402a" stroke-width="2" stroke-dasharray="5,2" d="M1226,-185C1226,-185 1482,-185 1482,-185 1488,-185 1494,-191 1494,-197 1494,-197 1494,-307 1494,-307 1494,-313 1488,-319 1482,-319 1482,-319 1226,-319 1226,-319 1220,-319 1214,-313 1214,-307 1214,-307 1214,-197 1214,-197 1214,-191 1220,-185 1226,-185"/>
<text text-anchor="middle" x="1248.5" y="-304.6" font-family="Helvetica,sans-Serif" font-weight="bold" font-size="13.00" fill="#b8402a">STOP 8</text>
</g>
<g id="clust7" class="cluster">
<title>cluster_stop9</title>
<path fill="white" stroke="#c0392b" stroke-width="2" stroke-dasharray="5,2" d="M1166,-8C1166,-8 1722,-8 1722,-8 1728,-8 1734,-14 1734,-20 1734,-20 1734,-130 1734,-130 1734,-136 1728,-142 1722,-142 1722,-142 1166,-142 1166,-142 1160,-142 1154,-136 1154,-130 1154,-130 1154,-20 1154,-20 1154,-14 1160,-8 1166,-8"/>
<text text-anchor="middle" x="1188.5" y="-127.6" font-family="Helvetica,sans-Serif" font-weight="bold" font-size="13.00" fill="#c0392b">STOP 9</text>
</g>
<!-- w1_2 -->
<g id="node1" class="node">
<title>w1_2</title>
<g id="a_node1"><a xlink:href="https://www.squiggle-language.com/playground#code=eJylWP1vm0gQ%2FVdG0enOrhwC%2BAPbvZzkNk5bXdJWSaqqqqtkDWuzF75udzH1pfnfbxaMWSdYQfIvLYHlvTdvhp1ZPxx5dEHSQL6NPXo0Pjo5gdPTU7jhhEUgY3A5%2BW%2BNF1kEs9Q2rR5kMQ%2B8FaMZZNatDS0h4wTstnptFuHrEyHSMJEsjsD1EWUMJiSEx67PSKBArJENFiwIvyUZWd%2F6aUgiUT6wgUQsJIG4FXFIM5%2FIHHRKXB9IhcwEEPi8lj5eL1hAAdVWj8UJSHwTiOeJDnCKIbKICoh5DsbpMQoiIZWUM4H3pU8LrX8IWKSRm2O8BjcOk1iwaFktwHcjjyIi3mIiRxOSRB4J4ohCiB4GBtxtLZqu7pRU9Tr9mVBX4osrEqQU4kWOULlp5GBvqJAwT9eQKhr1oqB6YGO4Qaz3yjIKF5QsU1q8%2BG76cXo1uZmewXwNSxpRTiQ1knWZNeoxuePQK3zYgSiWhQ5lIiLlWGeMo1Sgi4X6Dx2myv2YL9GehGN2%2BBrmSLFgLsPrDryZnn%2B6mmL4nAQ5QkbZ0pfoXAc5MVMh5jKSxyGRro8WBPEyijlmGa6%2FXF5Orr4VdmDGChI05Z56OdI8ltSFVkhJBJOPZ%2BgeZyRylZ%2FElW0j92ORBgEWlCtjfjxfHxdXgAayFcnLpTChkMakXwRULMtjilc0ylExlSDilOPlxriArbBC1MeARAGLSmHi35QtlwE9yRWKkz%2BZ95dR3iwqoYNQgLajvcp%2BDBxhPn2cQhKQgmtTjsRTWaMrisZuCwILlyCnKgKMnUXInSPgR1msLKptFqHe5G%2BmnI3OSLD%2BTPkX4cEpXK9DY%2Bt06yHpj2FgDOzRqDvsj4aW3XVMix6b%2FQ4kI3xmGqZpOaOh0%2B1ZpuP0Lduxeo9tAJT4JH9YRXkR5FmjyrDk9r5QsJOw35%2Bm63WRqioz42c%2B6mBbP2fR0nspNqXf7GnB2I3EL72DJS89TSgJF02UdjXbbauRUkQ%2BWCpi6FpZ2ESrpUntN5PKwsOlslCTKv3gJamWYW%2BE9pxGKhHzYJWIoakUWfKiSts0NzKdHlZssy8sSw7%2FsLJEU5qxwJunS%2FGi3MFW7tBuKrcEP1hzCaRb7HKa4Sb5YuV2je5G%2BMhothVsoQ%2F3ukTShKuJahFzbPANvrmykpvtDBX0wcorKE26S2SDTa20u9tIs8I8WK0C0fezIFjQBo3C6o0GzqBn479Od%2BSUTaNvD2xjMBxZ3YE5tPtms0AK0sO3uxxGrxfqZXHcJJqhg8ots2v3zJ5pD8pwht3R0Bh2TafrDCyr32%2FWzDe0hxdSgaMFVA3yOOWN4c5jQubjMZOiwMvOJhffTn4D9YSzeZrPbuUkrA%2FLOVTL25lTZ6lpek4xhOLojndxPMVAO6gZB30sDiYZjnJuzDkNiBrH8lkQgy4GOjwQQAF5vIH0OMkw1rvM2yZBm%2BfRCJzh8IlkLuQ%2BxYscqYisA5nPMFilW422xYca3avzhIg5xjxfq%2BkN9VCV2%2B%2BzCOABcICgY5gdXcQuxqGmIdhMQ7OjTu7MGOonvleAjVqTOs5FtWoXt9VqeOzscr7DWbcY%2FoN1xbYzeu0h0dfsx%2F5KMcnquIhnKc7kGlqTy%2FN2xbQ7O%2B2h2llUzzX5cAkn8HZDMo0kpwke3GjKhc8SjW9n%2FtnHpy%2Bq53t2JqsodueWV2pv75t9Z1hLtbO4ra9%2BRnnt40EsAXQUD9IUPvP4H0ybViI7kwgi1ZaGvijne8bzFTswHjoEggto%2BUWQCbYH%2FLg8KrTk1UwUe2ifr6znvt7243NOKZynMuWatXWTwL5Any%2Btp7yqOukNT4VmaG373kNXt7ae722QH2wZhxsi7uE8xpNnxfmk7%2B5h211VzzO5uDifnmmV%2F7RT7sF%2Bum4P%2BgfcPRdUfdBXm%2FZxRQUl3PW1Anne0PbZ93RhxfpDtZFyFz2FCwQ2uDoOC9rK%2F1A765t1q9hVO%2FDw6%2Bcv%2BGloHI%2Ft9iyaqwSfltvxd%2FPHpjvd1P5Qc%2FP%2Bw3XVe8bFdq6a1rz8tQabGkMVAvdz7bcfZFArdPZZdPT4P4j7qTY%3D" xlink:title="Animals count\n(neuron&#45;weighted)\n[1+2]\n→ The Humane League\n &#160;&#160;24 lives&#45;eq/$1k · 100% best\n &#160;&#160;runner&#45;up GiveWell top charity (AMF) · 0%\n(Peter Singer, Lewis Bollard)" target="_blank">
<path fill="#e6e2c0" stroke="#b0a04a" d="M979,-466C979,-466 739,-466 739,-466 733,-466 727,-460 727,-454 727,-454 727,-382 727,-382 727,-376 733,-370 739,-370 739,-370 979,-370 979,-370 985,-370 991,-376 991,-382 991,-382 991,-454 991,-454 991,-460 985,-466 979,-466"/>
<text text-anchor="middle" x="859" y="-451.2" font-family="Helvetica,sans-Serif" font-size="11.00" fill="#3a3410">Animals count</text>
<text text-anchor="middle" x="859" y="-439.2" font-family="Helvetica,sans-Serif" font-size="11.00" fill="#3a3410">(neuron&#45;weighted)</text>
<text text-anchor="middle" x="859" y="-427.2" font-family="Helvetica,sans-Serif" font-size="11.00" fill="#3a3410">[1+2]</text>
<text text-anchor="middle" x="859" y="-415.2" font-family="Helvetica,sans-Serif" font-size="11.00" fill="#3a3410">→ The Humane League</text>
<text text-anchor="middle" x="859" y="-403.2" font-family="Helvetica,sans-Serif" font-size="11.00" fill="#3a3410"> &#160;&#160;24 lives&#45;eq/$1k · 100% best</text>
<text text-anchor="middle" x="859" y="-391.2" font-family="Helvetica,sans-Serif" font-size="11.00" fill="#3a3410"> &#160;&#160;runner&#45;up GiveWell top charity (AMF) · 0%</text>
<text text-anchor="middle" x="859" y="-379.2" font-family="Helvetica,sans-Serif" font-size="11.00" fill="#3a3410">(Peter Singer, Lewis Bollard)</text>
</a>
</g>
</g>
<!-- w1_2_3 -->
<g id="node2" class="node">
<title>w1_2_3</title>
<g id="a_node2"><a xlink:href="https://viewer.diagrams.net/?lightbox=1&nav=1&chrome=0#Uhttps%3A%2F%2Fraw.githubusercontent.com%2Fmorganrivers%2Ftrain_to_crazy_town%2Fmain%2Fdiagram%2Ftrain_tree__w1_2_3.drawio" xlink:title="Nature has\nintrinsic value\n[1+2+3]\n→ The Humane League\n &#160;&#160;24 lives&#45;eq/$1k · 90% best\n &#160;&#160;runner&#45;up Rainforest Trust · 10%\n▼ 79 more worldviews" target="_blank">
<path fill="#f2e3b3" stroke="#c9a72a" stroke-width="2.4" stroke-dasharray="5,2" d="M218,-289C218,-289 32,-289 32,-289 26,-289 20,-283 20,-277 20,-277 20,-205 20,-205 20,-199 26,-193 32,-193 32,-193 218,-193 218,-193 224,-193 230,-199 230,-205 230,-205 230,-277 230,-277 230,-283 224,-289 218,-289"/>
<path fill="none" stroke="#c9a72a" stroke-width="2.4" stroke-dasharray="5,2" d="M222,-293C222,-293 28,-293 28,-293 22,-293 16,-287 16,-281 16,-281 16,-201 16,-201 16,-195 22,-189 28,-189 28,-189 222,-189 222,-189 228,-189 234,-195 234,-201 234,-201 234,-281 234,-281 234,-287 228,-293 222,-293"/>
<text text-anchor="middle" x="125" y="-274.2" font-family="Helvetica,sans-Serif" font-size="11.00" fill="#57450e">Nature has</text>
<text text-anchor="middle" x="125" y="-262.2" font-family="Helvetica,sans-Serif" font-size="11.00" fill="#57450e">intrinsic value</text>
<text text-anchor="middle" x="125" y="-250.2" font-family="Helvetica,sans-Serif" font-size="11.00" fill="#57450e">[1+2+3]</text>
<text text-anchor="middle" x="125" y="-238.2" font-family="Helvetica,sans-Serif" font-size="11.00" fill="#57450e">→ The Humane League</text>
<text text-anchor="middle" x="125" y="-226.2" font-family="Helvetica,sans-Serif" font-size="11.00" fill="#57450e"> &#160;&#160;24 lives&#45;eq/$1k · 90% best</text>
<text text-anchor="middle" x="125" y="-214.2" font-family="Helvetica,sans-Serif" font-size="11.00" fill="#57450e"> &#160;&#160;runner&#45;up Rainforest Trust · 10%</text>
<text text-anchor="middle" x="125" y="-202.2" font-family="Helvetica,sans-Serif" font-size="11.00" fill="#57450e">▼ 79 more worldviews</text>
</a>
</g>
</g>
<!-- w1_2&#45;&gt;w1_2_3 -->
<g id="edge1" class="edge">
<title>w1_2&#45;&gt;w1_2_3</title>
<path fill="none" stroke="#9aa6b3" d="M726.77,-397.67C572.71,-375.16 339,-341 339,-341 339,-341 253,-323 253,-323 253,-323 235.91,-312.18 214.21,-298.46"/>
<polygon fill="#9aa6b3" stroke="#9aa6b3" points="216.02,-295.46 205.7,-293.07 212.28,-301.37 216.02,-295.46"/>
<text text-anchor="middle" x="421" y="-333.8" font-family="Helvetica,sans-Serif" font-size="9.00" fill="#5b6675">value ecosystems for their own sake</text>
</g>
<!-- w1_2_4 -->
<g id="node3" class="node">
<title>w1_2_4</title>
<g id="a_node3"><a xlink:href="https://viewer.diagrams.net/?lightbox=1&nav=1&chrome=0#Uhttps%3A%2F%2Fraw.githubusercontent.com%2Fmorganrivers%2Ftrain_to_crazy_town%2Fmain%2Fdiagram%2Ftrain_tree__w1_2_4.drawio" xlink:title="Climate damages are\ncivilizational&#45;scale\n[1+2+4]\n→ The Humane League\n &#160;&#160;24 lives&#45;eq/$1k · 98% best\n &#160;&#160;runner&#45;up Clean Air Task Force · 2%\n▼ 39 more worldviews" target="_blank">
<path fill="#f6e0c0" stroke="#c9932a" stroke-width="2.4" stroke-dasharray="5,2" d="M490,-289C490,-289 286,-289 286,-289 280,-289 274,-283 274,-277 274,-277 274,-205 274,-205 274,-199 280,-193 286,-193 286,-193 490,-193 490,-193 496,-193 502,-199 502,-205 502,-205 502,-277 502,-277 502,-283 496,-289 490,-289"/>
<path fill="none" stroke="#c9932a" stroke-width="2.4" stroke-dasharray="5,2" d="M494,-293C494,-293 282,-293 282,-293 276,-293 270,-287 270,-281 270,-281 270,-201 270,-201 270,-195 276,-189 282,-189 282,-189 494,-189 494,-189 500,-189 506,-195 506,-201 506,-201 506,-281 506,-281 506,-287 500,-293 494,-293"/>
<text text-anchor="middle" x="388" y="-274.2" font-family="Helvetica,sans-Serif" font-size="11.00" fill="#5a3f10">Climate damages are</text>
<text text-anchor="middle" x="388" y="-262.2" font-family="Helvetica,sans-Serif" font-size="11.00" fill="#5a3f10">civilizational&#45;scale</text>
<text text-anchor="middle" x="388" y="-250.2" font-family="Helvetica,sans-Serif" font-size="11.00" fill="#5a3f10">[1+2+4]</text>
<text text-anchor="middle" x="388" y="-238.2" font-family="Helvetica,sans-Serif" font-size="11.00" fill="#5a3f10">→ The Humane League</text>
<text text-anchor="middle" x="388" y="-226.2" font-family="Helvetica,sans-Serif" font-size="11.00" fill="#5a3f10"> &#160;&#160;24 lives&#45;eq/$1k · 98% best</text>
<text text-anchor="middle" x="388" y="-214.2" font-family="Helvetica,sans-Serif" font-size="11.00" fill="#5a3f10"> &#160;&#160;runner&#45;up Clean Air Task Force · 2%</text>
<text text-anchor="middle" x="388" y="-202.2" font-family="Helvetica,sans-Serif" font-size="11.00" fill="#5a3f10">▼ 39 more worldviews</text>
</a>
</g>
</g>
<!-- w1_2&#45;&gt;w1_2_4 -->
<g id="edge2" class="edge">
<title>w1_2&#45;&gt;w1_2_4</title>
<path fill="none" stroke="#9aa6b3" d="M726.69,-387.07C632.66,-365.8 523,-341 523,-341 523,-341 495.88,-321.11 465.95,-299.16"/>
<polygon fill="#9aa6b3" stroke="#9aa6b3" points="468.01,-296.33 457.87,-293.24 463.87,-301.98 468.01,-296.33"/>
<text text-anchor="middle" x="634.5" y="-333.8" font-family="Helvetica,sans-Serif" font-size="9.00" fill="#5b6675">take tipping&#45;point climate damages at face value</text>
</g>
<!-- w1_2_5 -->
<g id="node4" class="node">
<title>w1_2_5</title>
<g id="a_node4"><a xlink:href="https://viewer.diagrams.net/?lightbox=1&nav=1&chrome=0#Uhttps%3A%2F%2Fraw.githubusercontent.com%2Fmorganrivers%2Ftrain_to_crazy_town%2Fmain%2Fdiagram%2Ftrain_tree__w1_2_5.drawio" xlink:title="Future humans count\n(discounted)\n[1+2+5]\n→ The Humane League\n &#160;&#160;24 lives&#45;eq/$1k · 100% best\n &#160;&#160;runner&#45;up AIM / Charity Entrepreneurship · 0%\n▼ 307 more worldviews" target="_blank">
<path fill="#f5d3b8" stroke="#cc7a33" stroke-width="2.4" stroke-dasharray="5,2" d="M820,-289C820,-289 558,-289 558,-289 552,-289 546,-283 546,-277 546,-277 546,-205 546,-205 546,-199 552,-193 558,-193 558,-193 820,-193 820,-193 826,-193 832,-199 832,-205 832,-205 832,-277 832,-277 832,-283 826,-289 820,-289"/>
<path fill="none" stroke="#cc7a33" stroke-width="2.4" stroke-dasharray="5,2" d="M824,-293C824,-293 554,-293 554,-293 548,-293 542,-287 542,-281 542,-281 542,-201 542,-201 542,-195 548,-189 554,-189 554,-189 824,-189 824,-189 830,-189 836,-195 836,-201 836,-201 836,-281 836,-281 836,-287 830,-293 824,-293"/>
<text text-anchor="middle" x="689" y="-274.2" font-family="Helvetica,sans-Serif" font-size="11.00" fill="#5a300e">Future humans count</text>
<text text-anchor="middle" x="689" y="-262.2" font-family="Helvetica,sans-Serif" font-size="11.00" fill="#5a300e">(discounted)</text>
<text text-anchor="middle" x="689" y="-250.2" font-family="Helvetica,sans-Serif" font-size="11.00" fill="#5a300e">[1+2+5]</text>
<text text-anchor="middle" x="689" y="-238.2" font-family="Helvetica,sans-Serif" font-size="11.00" fill="#5a300e">→ The Humane League</text>
<text text-anchor="middle" x="689" y="-226.2" font-family="Helvetica,sans-Serif" font-size="11.00" fill="#5a300e"> &#160;&#160;24 lives&#45;eq/$1k · 100% best</text>
<text text-anchor="middle" x="689" y="-214.2" font-family="Helvetica,sans-Serif" font-size="11.00" fill="#5a300e"> &#160;&#160;runner&#45;up AIM / Charity Entrepreneurship · 0%</text>
<text text-anchor="middle" x="689" y="-202.2" font-family="Helvetica,sans-Serif" font-size="11.00" fill="#5a300e">▼ 307 more worldviews</text>
</a>
</g>
</g>
<!-- w1_2&#45;&gt;w1_2_5 -->
<g id="edge3" class="edge">
<title>w1_2&#45;&gt;w1_2_5</title>
<path fill="none" stroke="#9aa6b3" d="M798.33,-369.95C778.28,-354.4 761,-341 761,-341 761,-341 747.5,-322.44 732.2,-301.39"/>
<polygon fill="#9aa6b3" stroke="#9aa6b3" points="734.98,-299.27 726.27,-293.24 729.32,-303.39 734.98,-299.27"/>
<text text-anchor="middle" x="834.5" y="-333.8" font-family="Helvetica,sans-Serif" font-size="9.00" fill="#5b6675">count future people, discounted</text>
</g>
<!-- w1_2_7 -->
<g id="node5" class="node">
<title>w1_2_7</title>
<g id="a_node5"><a xlink:href="https://viewer.diagrams.net/?lightbox=1&nav=1&chrome=0#Uhttps%3A%2F%2Fraw.githubusercontent.com%2Fmorganrivers%2Ftrain_to_crazy_town%2Fmain%2Fdiagram%2Ftrain_tree__w1_2_7.drawio" xlink:title="Animals matter a lot\n(RP welfare ranges)\n[1+2+7]\n→ Shrimp Welfare Project\n &#160;&#160;21k lives&#45;eq/$1k · 72% best\n &#160;&#160;runner&#45;up Wild insects (humane pesticides) · 28%\n▼ 15 more worldviews" target="_blank">
<path fill="#eec2a8" stroke="#c65a2e" stroke-width="2.4" stroke-dasharray="5,2" d="M1170,-289C1170,-289 888,-289 888,-289 882,-289 876,-283 876,-277 876,-277 876,-205 876,-205 876,-199 882,-193 888,-193 888,-193 1170,-193 1170,-193 1176,-193 1182,-199 1182,-205 1182,-205 1182,-277 1182,-277 1182,-283 1176,-289 1170,-289"/>
<path fill="none" stroke="#c65a2e" stroke-width="2.4" stroke-dasharray="5,2" d="M1174,-293C1174,-293 884,-293 884,-293 878,-293 872,-287 872,-281 872,-281 872,-201 872,-201 872,-195 878,-189 884,-189 884,-189 1174,-189 1174,-189 1180,-189 1186,-195 1186,-201 1186,-201 1186,-281 1186,-281 1186,-287 1180,-293 1174,-293"/>
<text text-anchor="middle" x="1029" y="-274.2" font-family="Helvetica,sans-Serif" font-size="11.00" fill="#5a2a10">Animals matter a lot</text>
<text text-anchor="middle" x="1029" y="-262.2" font-family="Helvetica,sans-Serif" font-size="11.00" fill="#5a2a10">(RP welfare ranges)</text>
<text text-anchor="middle" x="1029" y="-250.2" font-family="Helvetica,sans-Serif" font-size="11.00" fill="#5a2a10">[1+2+7]</text>
<text text-anchor="middle" x="1029" y="-238.2" font-family="Helvetica,sans-Serif" font-size="11.00" fill="#5a2a10">→ Shrimp Welfare Project</text>
<text text-anchor="middle" x="1029" y="-226.2" font-family="Helvetica,sans-Serif" font-size="11.00" fill="#5a2a10"> &#160;&#160;21k lives&#45;eq/$1k · 72% best</text>
<text text-anchor="middle" x="1029" y="-214.2" font-family="Helvetica,sans-Serif" font-size="11.00" fill="#5a2a10"> &#160;&#160;runner&#45;up Wild insects (humane pesticides) · 28%</text>
<text text-anchor="middle" x="1029" y="-202.2" font-family="Helvetica,sans-Serif" font-size="11.00" fill="#5a2a10">▼ 15 more worldviews</text>
</a>
</g>
</g>
<!-- w1_2&#45;&gt;w1_2_7 -->
<g id="edge4" class="edge">
<title>w1_2&#45;&gt;w1_2_7</title>
<path fill="none" stroke="#9aa6b3" d="M905,-369.64C925.77,-348.27 950.49,-322.82 972.38,-300.28"/>
<polygon fill="#9aa6b3" stroke="#9aa6b3" points="974.92,-302.69 979.38,-293.08 969.9,-297.81 974.92,-302.69"/>
<text text-anchor="middle" x="1031" y="-333.8" font-family="Helvetica,sans-Serif" font-size="9.00" fill="#5b6675">adopt RP welfare ranges + invertebrates</text>
</g>
<!-- w1_2_8 -->
<g id="node6" class="node">
<title>w1_2_8</title>
<g id="a_node6"><a xlink:href="https://www.squiggle-language.com/playground#code=eJylWH9z2zYS%2FSo7nvZOysg0Sf1Wzp1xYrnN1EkztnOdTpRxIBKSUFMEC4Cm1dTf%2FRYAKVIWPWZO%2F3hoEXj7dvctsMtvRyFdkDRSb3lIjyZHJydwenoKN4KwGBSHQJC%2FN%2FiQxTBLfdfrQcZFFN4zmkHm3fq3I2hJxRMYtfXGWYwAZ1Km60QxHkOwQpwJuJAQwYMVI5GG8cY%2BeLAg4pZkZHO7StcklsULH0jM1iSSt5KvabYiqngzApkuFlSweHm74EEqaWjsTUmwAlIaZRIIfNyoFT4vWEQBXSlfyxNQGpSEoeyAoOg%2Fi6kELgyYoMfIlaypQkMSf1crat34t4RFGgcG4zUEfJ1wiVTKBbg3Diki4k9MGjSpSBySiMcU1hjgyIGv2%2FhN779qqno7fUhooHDjPYlSCnxhEMpQOwbsDZUK5ukGUm1Gb5S06tgEbhDrFx1NCpeULFNqN%2F48%2FTC9OruZnsN8A0saU0EUdZJNkVIaMrUToVf4sgMxV5aHDiIiGaxPcUCF0t6uucB0boMl7VobCZIkEaPSgevN2on4MuYCU9r6lvQ7kIz7j22DZRI1dn%2BEt%2B9em5Vzqoj9NRF8TuYsYgqJzLn2ONR6%2FOx2wPviwAUJFEebRFALhQsSHf5YdUByoFoTXCwxadPP2fnZ5R8nP3yBOY14hsLTe01y6QM%2BRxvcjtgYUIOFtsM0UDYNmDiK6kT3FxFPcdcKc37OZICcFJzuO4hqd9yRcVM%2Fjh7bAEZXiIk%2BZJQtV4iNtSEoUVpAK4yWlqCE1g1fE8nuXsN%2F0SH9znd9F4O1Ff5HwZC62tRb9hwvNzxw%2Brlh%2BqAEqZgl95g%2FDY0%2B0xgVtMV%2B3rwJyzkTKFKguDowSJUYJwJLVmwwwDGWU8DwuQNvphe%2FXU2tTgyCJYG4HVQbJnmNBR6r4zVRwQpDs3UGrj%2B9f3929YfNANaqNYLlcJeX%2FJwrGkBLpwbOPpxj3QhGUJk2oW3HVMIijaI82cfzzbF9Aiwddk%2FMQWHlb6kxtbIO2WXGJ35PY4OKRYyiSgU%2B5iUTsXuUjz4j0VDE4oKY%2FCtly2VETwxDefIfFv7kFD%2FaM8DoEwsOda4LDx1HmN8%2BTCGJiLWVH0Qk1PVKMV%2Bb8ijAI4ugTV3%2B6DuL0bZBQP3alfacQcnwNPmV6cjG5yTafKTikwzrZTNwBv543B31xyPP7w5djx67%2Fa2CXdcbjkfDbs9zh8O%2B5w%2B9Xi6tJ%2FnD88OIIK8bTeD2zjLYSdi%2FnqbrtU1VmZnJXhyrYNt4zuJl%2BJJvmr%2FbqzjjNyK%2FDA%2BmvAwrRMl60YRptxJ232vEFJEPpooYVa5s3YSrV6Hab0aVrQ%2BnytYVqmoVvUTVc%2FycaG%2FYiCViHswSMSosZZa8yNJ33ZzmsIeKbVZhWXJ4YWVJhWnGonCeLuWLdAdbuiO%2FKd0C%2FGDOBVA1xHibZnhIvqjcrtPNiY%2BdZkfBFvrwWBdIFeK60V5wga1dg5orlNzsZCihD2ZeQlWoB0Q1ONSKcHcbcdaYB7PVINXzLIoWtMFF4fXGg%2BGg5%2BPfYXc8LC6Nvj%2FwncFo7HUH7sjvu80csUYPP%2B4MTFUvNMw4b%2BLNaIjMPbfr99ye6w8Kd0bd8cgZdd1hdzjwvH6%2F2WWemz1cSBan4lA5wmGXN4GvIZPKDEZMSYuXt%2B%2Bg3wg2T03vVsxA1THJQLXCnT51lrpuOMyHlYDjr9iemikBG2MqUBxM4aSCr4SgEdHtmOkFi2FA4nQDFvI4hwwFydDXr1m4TUJlksNAYA%2BHbxQLzOyAITRI1rMOZCuGzmreurW1hRrf6W5bcoE%2Bzze6e0M%2BVOf28ywG%2BAbYQNAJzI4ueYB%2B6G4I8m5odtQxkZlAfcf3CkftV1AzvCCT0oGJodqqhWjnGGZFDVAbHju7LH%2FG7tiOC9Gm5LfTrH0XrerO%2F4%2FN7xSFpL9T4Hxq5qfW2fuLdslttz%2BzFvaGrjpqOxt3uO1t32d29u49nMDbnNI0VoImAkeoVKBLSYXdTkf2XaHb2fr9sdv7olCS2u29Xun7qe%2F2h6PGodsBaD9BaBrC6xWOnglgfhdEUPgo%2BJ8ou0pR7PReaKNW9tVFhsmend%2Bx58AxSyI4zukrG5IEL0Q8TkIqK1Kq6aGeMbu%2Fst729bYDuRCUwkWqUlFJRF3v85yj%2B0vrTV6VvcONSGUloLUNyzPm6tbW23sbmVGeCbgh8g4uOM7apc0nncYz1nZX1ds5u7y8mJ5XKutpb%2FAM9tN1z6C%2Fw%2FtiQfXxcpVfmFdUUiKCVUUg%2B1f4c%2BF7urC0%2BkVfnMW9cQqXCOwI%2FQFA0pb5R98lbzYte4904Ns%2FD%2F%2FAg1Ox8dhuz%2BK5TvBpcQF9dr%2Fk9%2FFN7UfJm1%2FeXZe37cReYPqanhdfJvEaZ8hCfy6rfOdEC3pF1fosPnr8HzrVuTs%3D" xlink:title="Suffering&#45;focused\nethics\n[1+2+8]\n→ The Humane League\n &#160;&#160;73 lives&#45;eq/$1k · 100% best\n &#160;&#160;runner&#45;up GiveWell top charity (AMF) · 0%\n(Brian Tomasik, David Pearce)" target="_blank">
<path fill="#e9b0a0" stroke="#b8402a" d="M1474,-289C1474,-289 1234,-289 1234,-289 1228,-289 1222,-283 1222,-277 1222,-277 1222,-205 1222,-205 1222,-199 1228,-193 1234,-193 1234,-193 1474,-193 1474,-193 1480,-193 1486,-199 1486,-205 1486,-205 1486,-277 1486,-277 1486,-283 1480,-289 1474,-289"/>
<text text-anchor="middle" x="1354" y="-274.2" font-family="Helvetica,sans-Serif" font-size="11.00" fill="#511810">Suffering&#45;focused</text>
<text text-anchor="middle" x="1354" y="-262.2" font-family="Helvetica,sans-Serif" font-size="11.00" fill="#511810">ethics</text>
<text text-anchor="middle" x="1354" y="-250.2" font-family="Helvetica,sans-Serif" font-size="11.00" fill="#511810">[1+2+8]</text>
<text text-anchor="middle" x="1354" y="-238.2" font-family="Helvetica,sans-Serif" font-size="11.00" fill="#511810">→ The Humane League</text>
<text text-anchor="middle" x="1354" y="-226.2" font-family="Helvetica,sans-Serif" font-size="11.00" fill="#511810"> &#160;&#160;73 lives&#45;eq/$1k · 100% best</text>
<text text-anchor="middle" x="1354" y="-214.2" font-family="Helvetica,sans-Serif" font-size="11.00" fill="#511810"> &#160;&#160;runner&#45;up GiveWell top charity (AMF) · 0%</text>
<text text-anchor="middle" x="1354" y="-202.2" font-family="Helvetica,sans-Serif" font-size="11.00" fill="#511810">(Brian Tomasik, David Pearce)</text>
</a>
</g>
</g>
<!-- w1_2&#45;&gt;w1_2_8 -->
<g id="edge5" class="edge">
<title>w1_2&#45;&gt;w1_2_8</title>
<path fill="none" stroke="#9aa6b3" d="M991.02,-380.93C1088.03,-354.42 1203,-323 1203,-323 1203,-323 1227.8,-309.69 1257.31,-293.87"/>
<polygon fill="#9aa6b3" stroke="#9aa6b3" points="1259,-296.93 1266.16,-289.12 1255.7,-290.76 1259,-296.93"/>
<text text-anchor="middle" x="1246.5" y="-333.8" font-family="Helvetica,sans-Serif" font-size="9.00" fill="#5b6675">weight suffering over happiness</text>
</g>
<!-- w1_2_9 -->
<g id="node8" class="node">
<title>w1_2_9</title>
<g id="a_node8"><a xlink:href="https://www.squiggle-language.com/playground#code=eJylWP1v2zYQ%2FVcOwbDZnaNI8ocsdxngNk5bLGmLJEVR1INDS7TFRV8jqahemv99R8my6MRGBPiHtq5Fvnv37sR79MORTxckC%2BXbxKdHo6OTEzg9PYUbTlgMMgGPk%2F9W%2BCGPYZrZptWDPOGhf89oDrk1s2cutIRMUnDbauM0RoCxEFmUSpbE4AWIMwITUsITL2AkVDCWa4MFC8JnJCerWZBFJBbVAxtIzCISiplIIpoHRFZPXIgokTP8Q%2Fks5ck8pFERcEK8AEgdlQkg8HklA%2Fy8YCEFzKV%2BLE5AKlTi%2B6IDnKIALKYCEl6AcXqMZElEMQoT%2BL0MaJnHbwIWWewVGK%2FBS6I0ESxe1gtwb%2BxTRMSvmCjQhCSxT8IkphChwqEBtxsBJ%2Fe3iqraTn%2Bk1JO48Z6EGYVkUSDUWhsF2BsqJMyzFWQqjNooqJ7YCG4Q672Sk8IFJcuMlhvfTT5OrsY3kzOYr2BJY8pRQyNdVTWlPpNbCr3Chx2IE1nyUCIiUoF1xjhSBbpYqH9QYarUT%2FgS5Uk5Vo6vYI4hFsxj%2BLkDbybnn64mmD4nYYGQU7YMJCrXwZhYqQjrHMvjiEgvQAnCZBknHDsArr9cXo6vvpVyYMXKICjKHfULpHkiqQctbIsYxh%2FPUD3OSOwpPYkn20ahxyILQ2w2Tyb8eL46Lj8BCsjuSdEupQglNSaDMqFyWZFTck%2FjAhVLCSLJOH5cCxeye%2BwQ9apgoJDFFTHxb8aWy5CeFAzFyR%2FM%2F9Ooviw7oYNQgLKjvEp%2BTBxhPn2cQBqSMta6HYmvqkbvKQq7aQhsXIIxVRNg7izG2AUCvrLlyrLbpjHyTf9iStn4jISrz5R%2FET6cwvUqMjZKtx7S%2FggGxsB23e6w7w4tu%2BuYFj02%2Bx1IXXxmGqZpOe7Q6fYs03H6lu1Yvcc2AFJ8Uj%2FsoqIJiqpRJVg6uysZbBXs16flel2Wqq7M6JmOOthGz2m89F%2FKTfE3e1oydiPyS%2F9gyktfI0qiRROmXU1222rEFJEPpooYOlcWNeFqaVT7zaiy6HCqLNKoyiB8iapl2GuiPacRS8Q8mCViaCxFnr7I0jbNNU2nhx3b7A3L08NfrDzVmOYs9OfZUrxId7ChO7Sb0q3AD%2BZcAekSe5zmeEi%2B2Lldo7sm7hrNjoIN9OFaV0gaceW3FgnHAd%2Fgnas6udnJUEMfzLyG0qh7RDY41Cq5u404K8yD2SoQ%2FTwLwwVtMCisnjtwBj0b%2F3a6rlMNjb49sI3B0LW6A3No981miZRBDz%2FuChi9X6ifJ0mTbIYOMrfMrt0ze6Y9qNIZdt2hMeyaTtcZWFa%2F32yYr8Me3kgljpZQbeTR5Y3g1mdCFvaYSVHi5Wfji28nv4B6wtk8K7xb5YR1s1xAtfwtnzrNTNN3ShOK1h2%2FRXuKiXaQMxp9bA4mGVo5L%2BGchkTZscILYtKlocMLAZSQx2tIn5Mcc73N%2FU0RND%2BPQqCHwyeSeVDolCwKpDKzDuQBw2QVb2Vtyxc1vlP3CZFwzHm%2BUu4N%2BVBV2%2B%2FTGOAB0EDQEUyPLhIP81BuCNZuaHrUKZQZwW7H9wpaFvwOrWM8P9yeM7TabeRQUx8VJFs7N7d37YbHzjand%2BiFy8tBuKrZbFmzhiT0Pc1jf6XYJOoqincxzuQKWuPL83bNZNt7NaSytakZl%2FGHSziBt2sSk1hymuLFkGZcBCzV%2BGz5q6Z89E3N%2BDy7E9YUtn3TKzVb%2BmYfYXaF3lrc1lc%2FC3kd4EUwBawIXvIpfObJP9gWWotuOSFE2tmK%2BqIi3rM4X9EB4KVHILiAVlAmmeJ4wpfbp0Ir%2Fg5Hsyfs85W7Y19v%2FMA5pxTOM5lxTdpdTmRfos%2BX7g55VU%2FyG54JTdCd9mFPuF1rd8d7GxYXa8bhhog7OE%2Fw5lvHfDL390TbXrU7zvji4nxypr0ZTyf1Huyn6%2Fagf8DTe0HVgXC1Hl9XVFDCvUBrkOcDdZ98TxfWUf9WY6w6xU%2FhAoENrq7jgraK%2F6iT%2Fc2qVZ7qHXj4%2BeMn%2FDC0GI%2Ft9jSeqwKfVuPgu%2Fn3ejre7Pyh6Ob9h%2Bt69o3KcaKG5rz6tQiHKkMWAueJ9tsTRlAr9OjT%2BOjxf1cDyhw%3D" xlink:title="Meat&#45;eater problem\n(saved humans eat animals)\n[1+2+9]\n→ The Humane League\n &#160;&#160;24 lives&#45;eq/$1k · 100% best\n &#160;&#160;runner&#45;up GiveWell top charity (AMF) · 0%\n(Michael Dickens, Vasco Grilo)" target="_blank">
<path fill="#eeb3b3" stroke="#c0392b" d="M1714,-112C1714,-112 1474,-112 1474,-112 1468,-112 1462,-106 1462,-100 1462,-100 1462,-28 1462,-28 1462,-22 1468,-16 1474,-16 1474,-16 1714,-16 1714,-16 1720,-16 1726,-22 1726,-28 1726,-28 1726,-100 1726,-100 1726,-106 1720,-112 1714,-112"/>
<text text-anchor="middle" x="1594" y="-97.2" font-family="Helvetica,sans-Serif" font-size="11.00" fill="#5a1410">Meat&#45;eater problem</text>
<text text-anchor="middle" x="1594" y="-85.2" font-family="Helvetica,sans-Serif" font-size="11.00" fill="#5a1410">(saved humans eat animals)</text>
<text text-anchor="middle" x="1594" y="-73.2" font-family="Helvetica,sans-Serif" font-size="11.00" fill="#5a1410">[1+2+9]</text>
<text text-anchor="middle" x="1594" y="-61.2" font-family="Helvetica,sans-Serif" font-size="11.00" fill="#5a1410">→ The Humane League</text>
<text text-anchor="middle" x="1594" y="-49.2" font-family="Helvetica,sans-Serif" font-size="11.00" fill="#5a1410"> &#160;&#160;24 lives&#45;eq/$1k · 100% best</text>
<text text-anchor="middle" x="1594" y="-37.2" font-family="Helvetica,sans-Serif" font-size="11.00" fill="#5a1410"> &#160;&#160;runner&#45;up GiveWell top charity (AMF) · 0%</text>
<text text-anchor="middle" x="1594" y="-25.2" font-family="Helvetica,sans-Serif" font-size="11.00" fill="#5a1410">(Michael Dickens, Vasco Grilo)</text>
</a>
</g>
</g>
<!-- w1_2&#45;&gt;w1_2_9 -->
<g id="edge6" class="edge">
<title>w1_2&#45;&gt;w1_2_9</title>
<path fill="none" stroke="#9aa6b3" d="M991.27,-397.69C1179.73,-370.18 1503,-323 1503,-323 1503,-323 1547.3,-197.41 1574.08,-121.48"/>
<polygon fill="#9aa6b3" stroke="#9aa6b3" points="1577.39,-122.62 1577.42,-112.02 1570.79,-120.29 1577.39,-122.62"/>
<text text-anchor="middle" x="1639" y="-238.8" font-family="Helvetica,sans-Serif" font-size="9.00" fill="#5b6675">charge humans for the meat they eat</text>
</g>
<!-- w1_2_8_9 -->
<g id="node7" class="node">
<title>w1_2_8_9</title>
<g id="a_node7"><a xlink:href="https://www.squiggle-language.com/playground#code=eJytWGtv2zgW%2FSsXwT7srqNI8tvdLJA2zkyxaadI0h0M6sKlJdriRhK1JBXF08l%2Fn0tKsmVbRgR4P8RQJOrcc1%2Fkufpx5tMlSUP1nvv0bHJ2cQGXl5fwIAiLQXHwBPl9jRdZDLPUtZ0eZFyE%2FhOjGWTO3J2P5mNoScUTGLf1q7MYIa6kTKNEMR6DFyDSBGxIiOBewEiogZyxCw4siZiTjKznQRqRWJYPXCAxi0go55JHNAuIKp%2BMQKbLJRUsXs2X3Esl9ctHY4goUXP8o2KeCL4IaWS4TIkXANkSYhIIfF6rAK%2BXLKSAjm4fywtQ2iDxfdkBQTE6LKYSuDBggp6jHySiaIVJvK8Cmrv4dwnLNPYMxlvweJRwiTS3C%2FDd2KeIiLeYNGhSkdgnIY8pRBj%2B0ILvm%2BhOn75rqvp1%2BpxQT%2BGLTyRMKfClQdgmwjJg76hUsEjXkGoz%2BkVJq45N4AGxftaRpnBLySql%2BYs%2FTT9N764eptewWMOKxlRgDK1kXSac%2BkztROgNPuxAzFXOQwcRkQzWl9ijQmlvIy4w1ZtgyXxtHgmSJCGj0oL7dWSFfBVzgelu%2FUj6HUjG%2FZe2wTKJGtt%2Fhfcf3pqVC6pIflfnlyxYyBQSWXDtsa%2Br9avdAeebBTfEUxxtEkFzKFyQ6PDHqgOSA9U1wcUKkzb9ml1f3f528ZdvsKAhz7Ao9bsmufQZr8M1vo7YGFCDhbb91FN5Gqiuulii%2B8uQp%2FhWgDm%2FZtJDTgouDx3ETrDskXFTX45e2gCmrhATfcgoWwWIjX0jsJR1AQUYLV2CEloPPCKSPb6F%2F6BD%2BplruzYGa9MUnwVD6mpdb9mxnMLwwOoXhumzEqRiljxh%2FjQ0%2BkxjrKAN9nHzJizXTGCRAsXVnkGqxDgR2M5ijQGOsZ08htcdeDe9%2BeVumteJQchJIG4Hqw2THGHzx%2Bo8IsoLMDQbZ%2BD%2By8ePV3e%2F5RnAXs2NYDs8Ut8gLbiiHrR0auDq0zX2jWAEKzNPaNsynbBMw7BI9vlifZ5fAbYOeyJmo8jLP6fGVJA7lC8zPvEnGhtUbGIsqlTgZdEyIXvC8tE7KBoKWVwSk%2F9L2WoV0gvDUF78k%2Fn%2Fssqb%2BR5g6hMbDutcNx46jjC%2FfJpCEpLcVrEREV%2F3K8V8rbdbAW5ZBG3q9kffWYy2DQLWb74y32ewZHia%2FJvpyMbXJFx%2FpuKL9OvLZmAN3PG4O%2BqPR47bHdoOPbf7mwq2bWc4Hg27PcceDvuOO3R6RWnt5Q%2F3D1MERd9oAvPHnMFOwv62n663eaq2mZkcxLEKtonnLF75r%2Fmm%2Bdu9ijNuI%2FIr%2F2TKK79ClETLJky7lbC7TiOmiHwyVcSocmVRE65OhWq%2FGVUWnU6VRRWqKghfo%2BpYbkG0N2zEEjFPZokYFZYyS15l6dp2QXPYw4pt1mFZcnpjZUmFacZCf5Gu5Kt0Bxu6I7cp3RL8ZM4lUDXEeJpmuEm%2BWrldq1sQH1vNtoIN9OmxLpEqxLUMX3KB0q5Bz5WV3Gxn2EKfzHwLVaHuEdVgUyvD3W3EWWOezFaDVPezMFzSBgeF0xsPhoOei7%2FD7nhYHhp9d%2BBag9HY6Q7skdu3mzmSGz19uzMw1XqhfsZ5E29GQ2Tu2F23Z%2Fdsd1C6M%2BqOR9aoaw%2B7w4Hj9PvNDvPC7OmFlONUHNqOcKjyJvDdZ1KZwYgpmeMV8h30E8EWqdFu5QxUHZMMVMvf0amz1Lb9YTGseBzvojw1UwIKYyqwOJjCSQUfCUFDouWY0YLlMCBxuoEc8ryA9AXJ0Nfvmb9JQmWSw0CghsMninlmdsAQGqTcsw5kAUNnNW8tbfNGjR%2B12pZcoM%2BLtVZvyIfq3H6dxQA%2FAAUEncDs7JZ76IdWQ1CoodlZx0RmAvWK7w20HPypm17%2BAa1z3FXGveHIabeR2dahiaHeqoVsl5hmSQ1wew8ZXjq7XvyE6jkfJ8L1lv%2BOmDuJdhXp%2F8P2V4qFqL%2BB4Hxr5q%2FW1ceb9pb7rr4rLB5Oba9T3wHa5X4A9yrzqw8f4QLeF5SnsRI0ETiipQIjkFTY7yi%2Bk0K%2FA3V67A%2B%2BaGxJ72q%2FN%2Fp87Nt9hKmLfB3VHYD2HsKxiO8TvA9w9E0A62NJBIXPgv8Xy7rSlDvaD23Utll1kWFyYOdX1Dw45kkEl9AK8pAkeCDjduZTWSnFGg13xOzhynrb9xsFdCMohZtUpaKSiDrtdczRw6X1Ju%2B22uVBpLIS0FrBdMRc3dp6e%2B9D8ymBCXgg8hFuOM76W5t7SueItd1V9Xaubm9vpteVztvXJkew99cdQf%2BA59WS6u3prjiw76ikRHhBpUAOJcSx8O0v3Fr9pg%2Fu8ty6hFsEtoT%2BACFpy%2Fyjz7J361Z%2BjnXgxx%2FPf8CzVbHx0m7P4oVO8GV5AH61vxV64KH2o%2BjDzx%2Fut6f9JD9AtUxYlF9GUUYwZKE%2F11W%2Bs6IFvaJqfRafvfwJev%2FaGw%3D%3D" xlink:title="Meat&#45;eater problem\n(saved humans eat animals)\n[1+2+8+9]\n→ The Humane League\n &#160;&#160;73 lives&#45;eq/$1k · 100% best\n &#160;&#160;runner&#45;up GiveWell top charity (AMF) · 0%\n(Michael Dickens, Vasco Grilo)" target="_blank">
<path fill="#eeb3b3" stroke="#c0392b" d="M1414,-112C1414,-112 1174,-112 1174,-112 1168,-112 1162,-106 1162,-100 1162,-100 1162,-28 1162,-28 1162,-22 1168,-16 1174,-16 1174,-16 1414,-16 1414,-16 1420,-16 1426,-22 1426,-28 1426,-28 1426,-100 1426,-100 1426,-106 1420,-112 1414,-112"/>
<text text-anchor="middle" x="1294" y="-97.2" font-family="Helvetica,sans-Serif" font-size="11.00" fill="#5a1410">Meat&#45;eater problem</text>
<text text-anchor="middle" x="1294" y="-85.2" font-family="Helvetica,sans-Serif" font-size="11.00" fill="#5a1410">(saved humans eat animals)</text>
<text text-anchor="middle" x="1294" y="-73.2" font-family="Helvetica,sans-Serif" font-size="11.00" fill="#5a1410">[1+2+8+9]</text>
<text text-anchor="middle" x="1294" y="-61.2" font-family="Helvetica,sans-Serif" font-size="11.00" fill="#5a1410">→ The Humane League</text>
<text text-anchor="middle" x="1294" y="-49.2" font-family="Helvetica,sans-Serif" font-size="11.00" fill="#5a1410"> &#160;&#160;73 lives&#45;eq/$1k · 100% best</text>
<text text-anchor="middle" x="1294" y="-37.2" font-family="Helvetica,sans-Serif" font-size="11.00" fill="#5a1410"> &#160;&#160;runner&#45;up GiveWell top charity (AMF) · 0%</text>
<text text-anchor="middle" x="1294" y="-25.2" font-family="Helvetica,sans-Serif" font-size="11.00" fill="#5a1410">(Michael Dickens, Vasco Grilo)</text>
</a>
</g>
</g>
<!-- w1_2_8&#45;&gt;w1_2_8_9 -->
<g id="edge7" class="edge">
<title>w1_2_8&#45;&gt;w1_2_8_9</title>
<path fill="none" stroke="#9aa6b3" d="M1337.76,-192.64C1330.26,-170.77 1321.3,-144.61 1313.44,-121.69"/>
<polygon fill="#9aa6b3" stroke="#9aa6b3" points="1316.7,-120.42 1310.15,-112.09 1310.08,-122.69 1316.7,-120.42"/>
<text text-anchor="middle" x="1412" y="-152.8" font-family="Helvetica,sans-Serif" font-size="9.00" fill="#5b6675">charge humans for the meat they eat</text>
</g>
</g>
</svg>
