<?xml version="1.0" encoding="UTF-8" standalone="no"?>
<!DOCTYPE svg PUBLIC "-//W3C//DTD SVG 1.1//EN"
 "http://www.w3.org/Graphics/SVG/1.1/DTD/svg11.dtd">
<!-- Generated by graphviz version 2.43.0 (0)
 -->
<!-- Title: T Pages: 1 -->
<svg width="888pt" height="475pt"
 viewBox="0.00 0.00 888.20 475.20" xmlns="http://www.w3.org/2000/svg" xmlns:xlink="http://www.w3.org/1999/xlink">
<g id="graph0" class="graph" transform="scale(1 1) rotate(0) translate(21.6 453.6)">
<title>T</title>
<polygon fill="white" stroke="transparent" points="-21.6,21.6 -21.6,-453.6 866.6,-453.6 866.6,21.6 -21.6,21.6"/>
<g id="clust1" class="cluster">
<title>cluster_stop2</title>
<path fill="white" stroke="#b0a04a" stroke-width="2" stroke-dasharray="5,2" d="M316,-314C316,-314 484,-314 484,-314 490,-314 496,-320 496,-326 496,-326 496,-412 496,-412 496,-418 490,-424 484,-424 484,-424 316,-424 316,-424 310,-424 304,-418 304,-412 304,-412 304,-326 304,-326 304,-320 310,-314 316,-314"/>
<text text-anchor="middle" x="338.5" y="-409.6" font-family="Helvetica,sans-Serif" font-weight="bold" font-size="13.00" fill="#b0a04a">STOP 2</text>
</g>
<g id="clust2" class="cluster">
<title>cluster_stop3</title>
<path fill="white" stroke="#c9a72a" stroke-width="2" stroke-dasharray="5,2" d="M20,-157C20,-157 168,-157 168,-157 174,-157 180,-163 180,-169 180,-169 180,-263 180,-263 180,-269 174,-275 168,-275 168,-275 20,-275 20,-275 14,-275 8,-269 8,-263 8,-263 8,-169 8,-169 8,-163 14,-157 20,-157"/>
<text text-anchor="middle" x="42.5" y="-260.6" font-family="Helvetica,sans-Serif" font-weight="bold" font-size="13.00" fill="#c9a72a">STOP 3</text>
</g>
<g id="clust3" class="cluster">
<title>cluster_stop5</title>
<path fill="white" stroke="#cc7a33" stroke-width="2" stroke-dasharray="5,2" d="M212,-157C212,-157 370,-157 370,-157 376,-157 382,-163 382,-169 382,-169 382,-263 382,-263 382,-269 376,-275 370,-275 370,-275 212,-275 212,-275 206,-275 200,-269 200,-263 200,-263 200,-169 200,-169 200,-163 206,-157 212,-157"/>
<text text-anchor="middle" x="234.5" y="-260.6" font-family="Helvetica,sans-Serif" font-weight="bold" font-size="13.00" fill="#cc7a33">STOP 5</text>
</g>
<g id="clust4" class="cluster">
<title>cluster_stop6</title>
<path fill="white" stroke="#c96a4a" stroke-width="2" stroke-dasharray="5,2" d="M423,-161C423,-161 599,-161 599,-161 605,-161 611,-167 611,-173 611,-173 611,-259 611,-259 611,-265 605,-271 599,-271 599,-271 423,-271 423,-271 417,-271 411,-265 411,-259 411,-259 411,-173 411,-173 411,-167 417,-161 423,-161"/>
<text text-anchor="middle" x="445.5" y="-256.6" font-family="Helvetica,sans-Serif" font-weight="bold" font-size="13.00" fill="#c96a4a">STOP 6</text>
</g>
<g id="clust5" class="cluster">
<title>cluster_stop7</title>
<path fill="white" stroke="#c65a2e" stroke-width="2" stroke-dasharray="5,2" d="M393,-8C393,-8 794,-8 794,-8 800,-8 806,-14 806,-20 806,-20 806,-106 806,-106 806,-112 800,-118 794,-118 794,-118 393,-118 393,-118 387,-118 381,-112 381,-106 381,-106 381,-20 381,-20 381,-14 387,-8 393,-8"/>
<text text-anchor="middle" x="415.5" y="-103.6" font-family="Helvetica,sans-Serif" font-weight="bold" font-size="13.00" fill="#c65a2e">STOP 7</text>
</g>
<!-- w1_2 -->
<g id="node1" class="node">
<title>w1_2</title>
<g id="a_node1"><a xlink:href="https://www.squiggle-language.com/playground#code=eJx1lW9T4zYQxr%2FKTqadJkwIjg%2FKXTp5kYD5M5frMVzamw5mQLHXsXqy5JHkGJfju3dlB5KQ5BUmu%2Fppd%2FU80nMrxoQVwp6pGFuD1tERDIdDmGrGJVgFkWb%2FVfRRSggL3%2BsfQ6m0iBccSyj7Dz60jVU5%2BB23LJS0fGRMkeWWKwlRSpQBeJAzraKUM%2BEg%2FU8%2B9CFh%2BoGVrHpIi4xJ8xrwgUmeMWEejMqwTJmtoQGLUmArMjfA4KayKX0nXCBQtauwOQJLK4HFsemCRmqRSzSgdA3TeEgFsQwtam7od5tiU%2BtvBpJCRjXjD4hUlivD5XyVQGtljESkn7ipacYyGTOhJEJGMxQ9eHwbUbB4dKW65fiUY2Rp4YKJAkElNWE1zV4NG6OxMCsqKNw2bqHB9cYGMCXWlRsZwgTZvMBm4WXwZ3A7mgbnMKtgjhI1s9jLq9dTw5jbjQkdULALUtmmDjdEItWsc66pVMAkcX9owuimr%2FScxpNrOh1dwYy2SHjE6bsL4%2BDi621A7WsmakKJfJ5amhwNQyino5Q%2FNocm1FwqTScMn7xf4ewa2kpTq4cqOczYXHJbxAjjr9PgrEP1GFXkn7mNUpTnTFQ3qP8yMQzhOZQAOapc4BWKHOO3iNfzTtyGXu%2FE5ZQoxAypkks6PYdoUrx%2Bk%2BP1XVKkCklaSFhkCybGTP74uz4kl%2Fphz04HO9AH0O7D4T5cJ5QvoZzHG424WrzjZTGeH0qWJVsJH5YdeT6Vy3i2lfDajU8921RsxPs930WPT2maZb4Z8j3PxU6PqYhQllzEs2JuNnN%2Bb3I%2B%2BnUOEyLB7Rb8t5GTN0ql3mfUcUfwlhoL7srz0eQfYAvUzhU5qf2X%2B8G61OINGVqeLZ26klmkKEgiRGnfuYmWs3f3EOSFNU7N3DphRcq5eAh37nyfgeaOAwhbExWRNJ3s4Eeju7DVhTJ%2Ba2cAGTLZ3inMDimgDy%2FdTeQlX2BjKVHthq1rYj%2FjO%2BkN3GVL7WhuK2iPvlx0dhM3VLQbObr%2BAkdwtmQF0mrM6XbDQpuU53uw69rbjd26n3aTNlTqSM633snpx23it5TunByofXozEG60%2BpdmuedY1hVeY7dw30nl9FwYYhhop02pOd27JKQYzZ6BbntjN300mVwE53um9847ewjXYFiC7nxvGy%2FBLb0CTEfpntq2LLcC3zu7abqB3Cs2hAk3tqeRPGewXf9jlLbjqt3YoQvPP59%2BwlNvbY%2BXDt1bM%2FcsDWEJuvPuly6e7nzYplfX31ZWHIB7xcl1BmavrxuZnFMVhoy49lbSDi5jffdQtl7%2BB0w46yU%3D" xlink:title="Animals count\n(neuron&#45;weighted)\n[1+2]\n→ The Humane League\n(Peter Singer, Lewis Bollard)" target="_blank">
<path fill="#e6e2c0" stroke="#b0a04a" d="M476.5,-394C476.5,-394 323.5,-394 323.5,-394 317.5,-394 311.5,-388 311.5,-382 311.5,-382 311.5,-334 311.5,-334 311.5,-328 317.5,-322 323.5,-322 323.5,-322 476.5,-322 476.5,-322 482.5,-322 488.5,-328 488.5,-334 488.5,-334 488.5,-382 488.5,-382 488.5,-388 482.5,-394 476.5,-394"/>
<text text-anchor="middle" x="400" y="-379.2" font-family="Helvetica,sans-Serif" font-size="11.00" fill="#3a3410">Animals count</text>
<text text-anchor="middle" x="400" y="-367.2" font-family="Helvetica,sans-Serif" font-size="11.00" fill="#3a3410">(neuron&#45;weighted)</text>
<text text-anchor="middle" x="400" y="-355.2" font-family="Helvetica,sans-Serif" font-size="11.00" fill="#3a3410">[1+2]</text>
<text text-anchor="middle" x="400" y="-343.2" font-family="Helvetica,sans-Serif" font-size="11.00" fill="#3a3410">→ The Humane League</text>
<text text-anchor="middle" x="400" y="-331.2" font-family="Helvetica,sans-Serif" font-size="11.00" fill="#3a3410">(Peter Singer, Lewis Bollard)</text>
</a>
</g>
</g>
<!-- w1_2_3 -->
<g id="node2" class="node">
<title>w1_2_3</title>
<g id="a_node2"><a xlink:href="https://viewer.diagrams.net/?lightbox=1&nav=1&chrome=0#Uhttps%3A%2F%2Fraw.githubusercontent.com%2Fmorganrivers%2Ftrain_to_crazy_town%2Fmain%2Fdiagram%2Ftrain_tree__w1_2_3.drawio" xlink:title="Future humans count\n(discounted)\n[1+2+3]\n→ The Humane League\n▼ 87 more worldviews" target="_blank">
<path fill="#f2e3b3" stroke="#c9a72a" stroke-width="2.4" stroke-dasharray="5,2" d="M155.5,-241C155.5,-241 32.5,-241 32.5,-241 26.5,-241 20.5,-235 20.5,-229 20.5,-229 20.5,-181 20.5,-181 20.5,-175 26.5,-169 32.5,-169 32.5,-169 155.5,-169 155.5,-169 161.5,-169 167.5,-175 167.5,-181 167.5,-181 167.5,-229 167.5,-229 167.5,-235 161.5,-241 155.5,-241"/>
<path fill="none" stroke="#c9a72a" stroke-width="2.4" stroke-dasharray="5,2" d="M159.5,-245C159.5,-245 28.5,-245 28.5,-245 22.5,-245 16.5,-239 16.5,-233 16.5,-233 16.5,-177 16.5,-177 16.5,-171 22.5,-165 28.5,-165 28.5,-165 159.5,-165 159.5,-165 165.5,-165 171.5,-171 171.5,-177 171.5,-177 171.5,-233 171.5,-233 171.5,-239 165.5,-245 159.5,-245"/>
<text text-anchor="middle" x="94" y="-226.2" font-family="Helvetica,sans-Serif" font-size="11.00" fill="#57450e">Future humans count</text>
<text text-anchor="middle" x="94" y="-214.2" font-family="Helvetica,sans-Serif" font-size="11.00" fill="#57450e">(discounted)</text>
<text text-anchor="middle" x="94" y="-202.2" font-family="Helvetica,sans-Serif" font-size="11.00" fill="#57450e">[1+2+3]</text>
<text text-anchor="middle" x="94" y="-190.2" font-family="Helvetica,sans-Serif" font-size="11.00" fill="#57450e">→ The Humane League</text>
<text text-anchor="middle" x="94" y="-178.2" font-family="Helvetica,sans-Serif" font-size="11.00" fill="#57450e">▼ 87 more worldviews</text>
</a>
</g>
</g>
<!-- w1_2&#45;&gt;w1_2_3 -->
<g id="edge1" class="edge">
<title>w1_2&#45;&gt;w1_2_3</title>
<path fill="none" stroke="#9aa6b3" d="M311.31,-336.13C231.94,-317.46 128,-293 128,-293 128,-293 120.8,-274.57 113.02,-254.67"/>
<polygon fill="#9aa6b3" stroke="#9aa6b3" points="116.21,-253.21 109.31,-245.17 109.69,-255.76 116.21,-253.21"/>
<text text-anchor="middle" x="201.5" y="-285.8" font-family="Helvetica,sans-Serif" font-size="9.00" fill="#5b6675">count future people, discounted</text>
</g>
<!-- w1_2_5 -->
<g id="node3" class="node">
<title>w1_2_5</title>
<g id="a_node3"><a xlink:href="https://viewer.diagrams.net/?lightbox=1&nav=1&chrome=0#Uhttps%3A%2F%2Fraw.githubusercontent.com%2Fmorganrivers%2Ftrain_to_crazy_town%2Fmain%2Fdiagram%2Ftrain_tree__w1_2_5.drawio" xlink:title="Animals matter a lot\n(RP welfare ranges)\n[1+2+5]\n→ Shrimp Welfare Project\n▼ 19 more worldviews" target="_blank">
<path fill="#f5d3b8" stroke="#cc7a33" stroke-width="2.4" stroke-dasharray="5,2" d="M358.5,-241C358.5,-241 223.5,-241 223.5,-241 217.5,-241 211.5,-235 211.5,-229 211.5,-229 211.5,-181 211.5,-181 211.5,-175 217.5,-169 223.5,-169 223.5,-169 358.5,-169 358.5,-169 364.5,-169 370.5,-175 370.5,-181 370.5,-181 370.5,-229 370.5,-229 370.5,-235 364.5,-241 358.5,-241"/>
<path fill="none" stroke="#cc7a33" stroke-width="2.4" stroke-dasharray="5,2" d="M362.5,-245C362.5,-245 219.5,-245 219.5,-245 213.5,-245 207.5,-239 207.5,-233 207.5,-233 207.5,-177 207.5,-177 207.5,-171 213.5,-165 219.5,-165 219.5,-165 362.5,-165 362.5,-165 368.5,-165 374.5,-171 374.5,-177 374.5,-177 374.5,-233 374.5,-233 374.5,-239 368.5,-245 362.5,-245"/>
<text text-anchor="middle" x="291" y="-226.2" font-family="Helvetica,sans-Serif" font-size="11.00" fill="#5a300e">Animals matter a lot</text>
<text text-anchor="middle" x="291" y="-214.2" font-family="Helvetica,sans-Serif" font-size="11.00" fill="#5a300e">(RP welfare ranges)</text>
<text text-anchor="middle" x="291" y="-202.2" font-family="Helvetica,sans-Serif" font-size="11.00" fill="#5a300e">[1+2+5]</text>
<text text-anchor="middle" x="291" y="-190.2" font-family="Helvetica,sans-Serif" font-size="11.00" fill="#5a300e">→ Shrimp Welfare Project</text>
<text text-anchor="middle" x="291" y="-178.2" font-family="Helvetica,sans-Serif" font-size="11.00" fill="#5a300e">▼ 19 more worldviews</text>
</a>
</g>
</g>
<!-- w1_2&#45;&gt;w1_2_5 -->
<g id="edge2" class="edge">
<title>w1_2&#45;&gt;w1_2_5</title>
<path fill="none" stroke="#9aa6b3" d="M336.23,-321.82C309.28,-306.95 284,-293 284,-293 284,-293 284,-283 284,-283 284,-283 285.14,-270.45 286.5,-255.48"/>
<polygon fill="#9aa6b3" stroke="#9aa6b3" points="290,-255.68 287.42,-245.4 283.03,-255.04 290,-255.68"/>
<text text-anchor="middle" x="376" y="-285.8" font-family="Helvetica,sans-Serif" font-size="9.00" fill="#5b6675">adopt RP welfare ranges + invertebrates</text>
</g>
<!-- w1_2_6 -->
<g id="node4" class="node">
<title>w1_2_6</title>
<g id="a_node4"><a xlink:href="https://www.squiggle-language.com/playground#code=eJx9lW1z4jYQx7%2FKDtNOIUOIcZ56dHgBifMw5XqZHO1NJ2SIsNdYPVnySHIcN5fv3pUNAQL0VRx29dun%2F0qvjQhjlgt7oSJs9BpHR9Dv92GsGZdgFYSa%2FVvSRyFhkvte9wQKpUX0zLGAojv1p2fQNFZlcNZyByeSAANj8jSzXEkIE%2BL0wIOMaRUmnAmH6X7yoQsx01NWsHKa5CmTZmnwgUmeMmGmRqVYJMwuLWdg8jhGzeV8GqswNxhV8QIWJsBWQbkBBnelTeg75gKBSlmZzRFYB2VRZNqgkernEg0oXcE0HlKuLEVLgQz9bhOsy%2FjFQJzLsGL8BqFKM2UolZUDnZUREpF%2B4qaiGctkxISSCCk1WHTg6b1%2FwfOTS9Udx5cMQ0sHn5nIEVRcEVat7lSwIRoLs7yE3IVxBw2uF9aDMbFuXDcRRsjmOdYHr4M%2FgvvBOLiEWQlzlKiZxU5WLkeKEbcbHTogYxuksnUerolEqliXXFOqgDQI%2BkMdRtd9pefUnkzT4HQJMwoR85DTdxuGwdWX%2B4DK10xUhAL5PLHUOWqGUE5kCX%2BqhybUXCpNw4dP3s9wcQtNpanUQxUfpmwuuc0jhOGXcXDRonyMyrPfuQ0TlJdMlHeo%2FzQR9OF1IgEyVJnAGxQZRu8Wr%2BOduoBe59T5FCjEDCmTa5qeQ9QuXrf28brOKVS5JC3ELLQ5E0Mmv%2F9VDcm5Hu%2BJdLADfQDNLhzuw7Um8m0i59FGIS4X72SRjOdPJEvjLYfjRUWeT%2Bkynm45LKvxqWabiA17t%2BM768k5dbPINk2%2B5znb%2BQklMZEFF9Esn5tNn7Pa51e%2F8mFCxLhdgv%2FectqNQqmPHpXdEbyFxoKH4nIw%2BhvYM2q3FRmp%2FafH3rrUog0ZWp4uNnUls1CRkUSI0n7YJjrOPlxRkOXWODVz64QVKrfFfXhw830F6jv2YNIYqZCk6WQH32vdTRptKKL3cnqQIpPNncJskQJIMfDW3oRe82esl0qUu3Hrqvg%2FyjfSHLi7mErS3JbQHHy%2Bau1mbijJQbeRg9vPcAQXC1YgrcaMbjjMtUl4tge7rr99uW7dUrtZG1qtWd3T7vnxyRbwa0IXTwZUP70pCHda%2FUPt3DObdZlX1C3cN5I6vRmGGAaaSZ1pRpcvqSlCs6ej2wuymz4Yja6Cyz3t%2B7BAewi3YFiMbsD39ULBPT0FTIfJnty29m4FfnQ7p%2Bkack9ZH0bc2I5GWjyDzeofo7Qdls16J9rw%2BuPlB7x01mK8tejymrm3qQ8L0IP3uFjl8c7XbXxz%2B3W1jz2oXnlO3Z4tnzjadE5ZGNrGtQeTIjiP9egT2Xj7D1ok9fE%3D" xlink:title="Suffering&#45;focused\nethics\n[1+2+6]\n→ The Humane League\n(Brian Tomasik, David Pearce)" target="_blank">
<path fill="#f2ccc0" stroke="#c96a4a" d="M591.5,-241C591.5,-241 430.5,-241 430.5,-241 424.5,-241 418.5,-235 418.5,-229 418.5,-229 418.5,-181 418.5,-181 418.5,-175 424.5,-169 430.5,-169 430.5,-169 591.5,-169 591.5,-169 597.5,-169 603.5,-175 603.5,-181 603.5,-181 603.5,-229 603.5,-229 603.5,-235 597.5,-241 591.5,-241"/>
<text text-anchor="middle" x="511" y="-226.2" font-family="Helvetica,sans-Serif" font-size="11.00" fill="#5a2410">Suffering&#45;focused</text>
<text text-anchor="middle" x="511" y="-214.2" font-family="Helvetica,sans-Serif" font-size="11.00" fill="#5a2410">ethics</text>
<text text-anchor="middle" x="511" y="-202.2" font-family="Helvetica,sans-Serif" font-size="11.00" fill="#5a2410">[1+2+6]</text>
<text text-anchor="middle" x="511" y="-190.2" font-family="Helvetica,sans-Serif" font-size="11.00" fill="#5a2410">→ The Humane League</text>
<text text-anchor="middle" x="511" y="-178.2" font-family="Helvetica,sans-Serif" font-size="11.00" fill="#5a2410">(Brian Tomasik, David Pearce)</text>
</a>
</g>
</g>
<!-- w1_2&#45;&gt;w1_2_6 -->
<g id="edge3" class="edge">
<title>w1_2&#45;&gt;w1_2_6</title>
<path fill="none" stroke="#9aa6b3" d="M440.34,-321.63C457.23,-306.83 473,-293 473,-293 473,-293 482.19,-271.97 491.53,-250.58"/>
<polygon fill="#9aa6b3" stroke="#9aa6b3" points="494.86,-251.7 495.65,-241.14 488.44,-248.9 494.86,-251.7"/>
<text text-anchor="middle" x="549.5" y="-285.8" font-family="Helvetica,sans-Serif" font-size="9.00" fill="#5b6675">weight suffering over happiness</text>
</g>
<!-- w1_2_7 -->
<g id="node6" class="node">
<title>w1_2_7</title>
<g id="a_node6"><a xlink:href="https://www.squiggle-language.com/playground#code=eJx1Vu9T4kgQ%2FVe6qLs68AATFEGu%2BICKP2rZW8tlb%2BtKLBySDpnbyUxqZmLkXP%2F37UlQQOCDJdI9r7vfvNfjSyXEiGXCnqsQK73K4SH0%2B30Ya8YlWAWBZv8v6EMuYZK1PP8YcqVF%2BMQxh9yftqYdqBqrUujU3MGJJICBMVmSWq4kBDHh9MCDlGkVxJwJB%2BOftsCHiOkpy9liGmcJk%2BYt0AImecKEmRqVYB4z%2BxbpQILMTukH9TTVaiYwKQoOWRADW1XlBhjcLmxMnyMuEGiWVdgcgnWoLAxNHTQSAVyiAaULMI0NapYlSFW4oe9tjOUcfxiIMhkUGH9BoJJUGS7nqwQ6K0MkRPqKmwLNWCZDJpRESIhh0YTHdwKHT4%2BuVXccn1MMLB18YiJDUFGBsOK6WYCdobEwyxaQuTLuoMH1wXowJqxrRyfCCNk8w%2FLg1fDv4d1gPLyA2QLmKFETh8108XanGHK7wdABBesglS37cCQSUoF1wTW1ChhF7hcxjI59pedET6rp5vQCZlQi4gGnz3U4G15%2BuRvS%2BJqJAiFHPo8tMUdkCOVUFvPH8tKEmkul6fbh1Psdzm%2BgqjSN2lBRI2FzyW0WIpx9GQ%2FPa9SPUVn6idsgRnnBxOIW9TcTQh9eJhIgRZUKvEaRYvge8Zpe2xX0mm2Xk6MQM6ROruj2HESZ4vlljue7pEBlkrQQscBmTJwx%2BeOf4pJc6tGeSgc7oA%2Bg6kNjH1xtIl8nch5uDOJ68Y6XzXitiWRJtJVwtJzIa1G7jCdbCW%2FTtGhmG4uNuN9suehxh9jM081Qy%2FNcrHNMTUxkzkU4y%2BZmM%2BekzOm2ihwmRITbI7TeKSdv5Ep9zCjiDsFbamx4n18MRv8Ce0LtXJGS2n976K1LLdyQoeXJ0qkrmQWKgiRClPaDm%2Bg4%2B7CjIM2scWrm1gkrUM7Ffbh39%2FsCxDv2YFIZqYCk6WQHP0rdTSp1yMP3cXpuRcnqTmHWSAE%2B%2FAnVRrvZ6XRPjrHhtWvwWt%2BsccWfsPSYWOxGXxfJCrTQiu%2F5p53T3aDfSZHgVjUNrLldQHXw%2BbK2u8SGzjZr%2BJ7X7u4oMbj5DIdwvsQeSqsxpX2ImTYxT%2FeUWVfrh1G6%2FsmR392us7XidkNvCN1BO%2Bt77U7X30L8GtPaSoH4oScJ4Var%2F4j9PTe7bpICdgvuOxmFXhxDGAaqcdlqSqubtBii2cP4tr12ow9Go8vhxR46P9hvD8INGBahE8BdaUe4o4eE6SDe09uWa1fAD86xmpaYewj7MOLGNjWSbQ1Wiz%2BM0vZsUS0dVYeXn88%2F4bm5VuO1Rqtv5l62PiyB7r2H5SIY73wbx9c3X1du7kHxTwIntmdvDyTtCU5dGPLy2nNLFVzGevWJrLz%2BAhY%2FAcE%3D" xlink:title="Meat&#45;eater problem\n(saved humans eat animals)\n[1+2+7]\n→ The Humane League\n(Michael Dickens, Vasco Grilo)" target="_blank">
<path fill="#eec2a8" stroke="#c65a2e" d="M786.5,-88C786.5,-88 623.5,-88 623.5,-88 617.5,-88 611.5,-82 611.5,-76 611.5,-76 611.5,-28 611.5,-28 611.5,-22 617.5,-16 623.5,-16 623.5,-16 786.5,-16 786.5,-16 792.5,-16 798.5,-22 798.5,-28 798.5,-28 798.5,-76 798.5,-76 798.5,-82 792.5,-88 786.5,-88"/>
<text text-anchor="middle" x="705" y="-73.2" font-family="Helvetica,sans-Serif" font-size="11.00" fill="#5a2a10">Meat&#45;eater problem</text>
<text text-anchor="middle" x="705" y="-61.2" font-family="Helvetica,sans-Serif" font-size="11.00" fill="#5a2a10">(saved humans eat animals)</text>
<text text-anchor="middle" x="705" y="-49.2" font-family="Helvetica,sans-Serif" font-size="11.00" fill="#5a2a10">[1+2+7]</text>
<text text-anchor="middle" x="705" y="-37.2" font-family="Helvetica,sans-Serif" font-size="11.00" fill="#5a2a10">→ The Humane League</text>
<text text-anchor="middle" x="705" y="-25.2" font-family="Helvetica,sans-Serif" font-size="11.00" fill="#5a2a10">(Michael Dickens, Vasco Grilo)</text>
</a>
</g>
</g>
<!-- w1_2&#45;&gt;w1_2_7 -->
<g id="edge4" class="edge">
<title>w1_2&#45;&gt;w1_2_7</title>
<path fill="none" stroke="#9aa6b3" d="M488.65,-332.44C553.79,-314.39 631,-293 631,-293 631,-293 669.71,-167.47 691.13,-97.98"/>
<polygon fill="#9aa6b3" stroke="#9aa6b3" points="694.56,-98.74 694.16,-88.16 687.87,-96.68 694.56,-98.74"/>
<text text-anchor="middle" x="759" y="-202.8" font-family="Helvetica,sans-Serif" font-size="9.00" fill="#5b6675">charge humans for the meat they eat</text>
</g>
<!-- w1_2_6_7 -->
<g id="node5" class="node">
<title>w1_2_6_7</title>
<g id="a_node5"><a xlink:href="https://www.squiggle-language.com/playground#code=eJx1Vm1z4jYQ%2Fis7TDuFFIhNICR0%2BEAS8jLH9TI52ptOyHDCXmP1ZMkjyXFoLv%2B9KxsCBPjAYLyrZ3effXbFayXEiGXCXqoQK73K8TH0%2B30Ya8YlWAWBZv8t6CGXMMlant%2BGXGkRPnPMIfenrenptAtVY1UK3Zo7OpEEMTAmS1LLlYQgJqQeeJAyrYKYM%2BGA%2FPMW%2BBAxPWU5W0zjLGHSrAwtYJInTJipUQnmMbMryymYLIpQczmfRirIDIYrUxcSZHZKH9TTVKuZwKTIZciCGNg6IW6Awf3CxvQccYFAha7N5hisC8jC0NRBI7HDJRpQugDT2KA6WIIUhRt6b2MsS%2FzNQJTJoMD4AwKVpMpQmmsHOitDJER6xU2BZiyTIRNKIiREv2jC93d2h8%2FfXaruOL6kGFg6%2BMxEhqCiAmHdiGYBdoHGwixbQObCuIMGNwvrwZiwbh3TCCNk8wzLgzfDP4cPg%2FHwCmYLmKNETRw208Wq4Rhyu8XQERnrIJUt83AkElKBdcU1pQpITaIvYhgd%2B0rPiZ5UU1P1AmYUIuIBp%2Bc6XAyvvzwMqXzNRIGQI5%2FHlpgjMoRyEoz597JpQs2l0iQMOPd%2Bhcs7qCpNpTZU1EjYXHKbhQgXX8bDyxrlY1SWfuI2iFFeMbG4R%2F2XCaEPrxMJkKJKBd6iSDF8t3hNr%2BMCes2O88lRiBlSJjfUPQdRunh%2B6eP5zilQmSQtRCywGRMXTP74u2iScz05EOloD%2FQRVH1oHIKrTeTbRM7DrUJcLl57mYzXmkiWRDsOJ8uKvBaly3iy47CqpkU121hs2f1my1nbXWIzT7dNLc9ztm6bkpjInItwls3Nts9p6XPWKnyYEBHultB6p5xmI1fqo0dhdwjeUmPDx%2FxqMPoH2DNqNxUpqf2Xp96m1MItGVqeLCd1LbNAkZFEiNJ%2BmCY6zj6sL0gza5yauXXCCpSb4j48uv6%2BAvGOPZhURiogaTrZwY9Sd5NKHfLwvZyeW1GyuleYNVIAKQZ%2Bh2qj0%2Bx2z07b2PA6NXirb0e54c9YTplY7MfflMkmbKEX3%2FPPu%2Bf7Yb%2BRKsFtcipac7uA6uDzdW1%2FkC2tuSjrGL7ndc72hBjcfYZjuFxiD6XVmNJOxEybmKcHwmwqdqeYM%2F%2F0xD%2FbjbSz6PaDb8m9BPc7fvekvQP4NabdlQIRRFcWwr1W%2F1IDDrR3c1IK1B24bzQtdO0YwjBQjctMU9rfJMgQzQHKd2dsP%2FpgNLoeXh3g88MMHkC4A8MidAp4KGcSHug2YTqID%2BS2M7pr4Cc3tpo2mbsN%2BzDixjY10uwarBY%2FjNL2YlEtx6oOrz9ffsJLcyPGW43238xdb31YAj16T8ttMN57QY5v776uR7oHxZ8ITmzPVrckLQtOWRga6I07lyI4j83oE1l5%2Bx8usAyJ" xlink:title="Meat&#45;eater problem\n(saved humans eat animals)\n[1+2+6+7]\n→ The Humane League\n(Michael Dickens, Vasco Grilo)" target="_blank">
<path fill="#eec2a8" stroke="#c65a2e" d="M563.5,-88C563.5,-88 400.5,-88 400.5,-88 394.5,-88 388.5,-82 388.5,-76 388.5,-76 388.5,-28 388.5,-28 388.5,-22 394.5,-16 400.5,-16 400.5,-16 563.5,-16 563.5,-16 569.5,-16 575.5,-22 575.5,-28 575.5,-28 575.5,-76 575.5,-76 575.5,-82 569.5,-88 563.5,-88"/>
<text text-anchor="middle" x="482" y="-73.2" font-family="Helvetica,sans-Serif" font-size="11.00" fill="#5a2a10">Meat&#45;eater problem</text>
<text text-anchor="middle" x="482" y="-61.2" font-family="Helvetica,sans-Serif" font-size="11.00" fill="#5a2a10">(saved humans eat animals)</text>
<text text-anchor="middle" x="482" y="-49.2" font-family="Helvetica,sans-Serif" font-size="11.00" fill="#5a2a10">[1+2+6+7]</text>
<text text-anchor="middle" x="482" y="-37.2" font-family="Helvetica,sans-Serif" font-size="11.00" fill="#5a2a10">→ The Humane League</text>
<text text-anchor="middle" x="482" y="-25.2" font-family="Helvetica,sans-Serif" font-size="11.00" fill="#5a2a10">(Michael Dickens, Vasco Grilo)</text>
</a>
</g>
</g>
<!-- w1_2_6&#45;&gt;w1_2_6_7 -->
<g id="edge5" class="edge">
<title>w1_2_6&#45;&gt;w1_2_6_7</title>
<path fill="none" stroke="#9aa6b3" d="M504.27,-168.98C500.23,-147.9 495.03,-120.84 490.67,-98.17"/>
<polygon fill="#9aa6b3" stroke="#9aa6b3" points="494.06,-97.25 488.74,-88.09 487.19,-98.57 494.06,-97.25"/>
<text text-anchor="middle" x="584" y="-128.8" font-family="Helvetica,sans-Serif" font-size="9.00" fill="#5b6675">charge humans for the meat they eat</text>
</g>
</g>
</svg>
