<?xml version="1.0" encoding="UTF-8" standalone="no"?>
<!DOCTYPE svg PUBLIC "-//W3C//DTD SVG 1.1//EN"
 "http://www.w3.org/Graphics/SVG/1.1/DTD/svg11.dtd">
<!-- Generated by graphviz version 2.43.0 (0)
 -->
<!-- Title: T Pages: 1 -->
<svg width="888pt" height="475pt"
 viewBox="0.00 0.00 888.20 475.20" xmlns="http://www.w3.org/2000/svg" xmlns:xlink="http://www.w3.org/1999/xlink">
<g id="graph0" class="graph" transform="scale(1 1) rotate(0) translate(21.6 453.6)">
<title>T</title>
<polygon fill="white" stroke="transparent" points="-21.6,21.6 -21.6,-453.6 866.6,-453.6 866.6,21.6 -21.6,21.6"/>
<g id="clust1" class="cluster">
<title>cluster_stop2</title>
<path fill="white" stroke="#b0a04a" stroke-width="2" stroke-dasharray="5,2" d="M316,-314C316,-314 484,-314 484,-314 490,-314 496,-320 496,-326 496,-326 496,-412 496,-412 496,-418 490,-424 484,-424 484,-424 316,-424 316,-424 310,-424 304,-418 304,-412 304,-412 304,-326 304,-326 304,-320 310,-314 316,-314"/>
<text text-anchor="middle" x="338.5" y="-409.6" font-family="Helvetica,sans-Serif" font-weight="bold" font-size="13.00" fill="#b0a04a">STOP 2</text>
</g>
<g id="clust2" class="cluster">
<title>cluster_stop3</title>
<path fill="white" stroke="#c9a72a" stroke-width="2" stroke-dasharray="5,2" d="M20,-157C20,-157 168,-157 168,-157 174,-157 180,-163 180,-169 180,-169 180,-263 180,-263 180,-269 174,-275 168,-275 168,-275 20,-275 20,-275 14,-275 8,-269 8,-263 8,-263 8,-169 8,-169 8,-163 14,-157 20,-157"/>
<text text-anchor="middle" x="42.5" y="-260.6" font-family="Helvetica,sans-Serif" font-weight="bold" font-size="13.00" fill="#c9a72a">STOP 3</text>
</g>
<g id="clust3" class="cluster">
<title>cluster_stop5</title>
<path fill="white" stroke="#cc7a33" stroke-width="2" stroke-dasharray="5,2" d="M212,-157C212,-157 370,-157 370,-157 376,-157 382,-163 382,-169 382,-169 382,-263 382,-263 382,-269 376,-275 370,-275 370,-275 212,-275 212,-275 206,-275 200,-269 200,-263 200,-263 200,-169 200,-169 200,-163 206,-157 212,-157"/>
<text text-anchor="middle" x="234.5" y="-260.6" font-family="Helvetica,sans-Serif" font-weight="bold" font-size="13.00" fill="#cc7a33">STOP 5</text>
</g>
<g id="clust4" class="cluster">
<title>cluster_stop6</title>
<path fill="white" stroke="#c96a4a" stroke-width="2" stroke-dasharray="5,2" d="M423,-161C423,-161 599,-161 599,-161 605,-161 611,-167 611,-173 611,-173 611,-259 611,-259 611,-265 605,-271 599,-271 599,-271 423,-271 423,-271 417,-271 411,-265 411,-259 411,-259 411,-173 411,-173 411,-167 417,-161 423,-161"/>
<text text-anchor="middle" x="445.5" y="-256.6" font-family="Helvetica,sans-Serif" font-weight="bold" font-size="13.00" fill="#c96a4a">STOP 6</text>
</g>
<g id="clust5" class="cluster">
<title>cluster_stop7</title>
<path fill="white" stroke="#c65a2e" stroke-width="2" stroke-dasharray="5,2" d="M393,-8C393,-8 794,-8 794,-8 800,-8 806,-14 806,-20 806,-20 806,-106 806,-106 806,-112 800,-118 794,-118 794,-118 393,-118 393,-118 387,-118 381,-112 381,-106 381,-106 381,-20 381,-20 381,-14 387,-8 393,-8"/>
<text text-anchor="middle" x="415.5" y="-103.6" font-family="Helvetica,sans-Serif" font-weight="bold" font-size="13.00" fill="#c65a2e">STOP 7</text>
</g>
<!-- w1_2 -->
<g id="node1" class="node">
<title>w1_2</title>
<g id="a_node1"><a xlink:href="https://www.squiggle-language.com/playground#code=eJyVV%2B9z0zgQ%2FVd2OndzSSeOHdNSGqYf%2BiNAp%2BXo0d717igDii3bIrZlJLnGQP%2F3e7KTJmkSyn2KY6%2Fevl2t3q6%2BbYU8YmVqjmXIt4ZbrksHBwd0pZjIyUgKFPta46HK6ab0vcEOVVKl4a3gFVWDDz51tJEF%2BV277CbH8kOty6wwQuYUJEAZkkcFUzJIBEstyGDfpwFFTH1gFas%2FJGXGcj374BPLRcZS%2FUHLjFcJMw3oiAUJsTmy0MToojYJniORcgLb%2BWftksFKYmGoe6Q4QhQ51yRVA6a4A0Is44YrofHeJLzl%2BpumqMyDBuM5BTIrpBZ5PDfA2jzkQMQroRs0bVgeslTmnDLkMO3Tx%2FsUjW4%2FWqp2Of9S8MBg4S1LS04yahDm2ew3YEdcGxqXNZXWjV2o%2BWJgQ7oC1iubMk7nnMUlbxe%2BHP0%2Bent4NTqhcU0xz7lihveLerZrPBRmKUPb%2BNijXJqWh00ikBqsE6FAlXgU2R9kmNvsSxUjPYXC7qiaxnARiUDguUdHoxdv3o4QvmJpg1BxEScGmevTZZ31UxnnUmFXO9%2BK3R4V%2B7t33Vle7r9RlUgEayrpaBHysAHa936l41Nr%2B2668v0sIpaDEpLkyMjJWJwLU4acjt5cjY57pOtsLFMRkJbEb7mqG7SMs7zTBfdUVk0J5SytDayQrKRJN0A1y4qUh%2F225tqoIxGXCkXW7nispN2e0BadDUHLUgUoEGG31xanQSbxsjgTJkh4fsElEF%2FxtODhBVd%2F6pAOVvOCc9L32hjtI1K0BHLN03TMkdKXKMMT8N6I4Q3uQbzBA5RjMEfVRywwJUuPWD75qynHFqvMRQSsjtcHBCgsr7VO7%2Bn%2FOLxt%2BiHzbeoMyKHHeXWbfCfGFHroulVV9WNxyysA9rExrrBrcmYLmqWu4UGSiwBPhZIxzrd2A6YTxyjoS8QVNi8Ol4LYkD9vZ55Az797hEQiK6fiDg7yxEUhOIESVleYG0htnPYQwR76o9e8chrNADWWRT%2FD7cm8Qjx%2FsIYbZAoEap4bxQuoFS%2BVTkTRh5i58CKyn%2FGyUEH%2B7gMnqJAy698HwVKjSqGzJheQS6PdZy8%2BX19%2Bvt0%2F5OeyitmnfF3cOLWBVIW0OuUEOHNMxLl2gO6gUwQTDi0ySfoY20Hfn3Ld2fvfREfjP2r99xcZjS8%2FT8aH4moDUZ1A9Qrscoquheah5CcYONppehfHKamKR4n6njdlureDGvvfZLNYi5Mj%2F2ySPclOLq%2BvLzaQLViNs%2BaAaYaad4x0Ss1RZiA%2Bo1uJNByXsX6U89N7zs%2F8Vc623HQgeB6gu9iW0RTZ9I3LFJQ1xe9Yu4UQ7qXvD%2Fwd39v3LdRg7ymqMU0j%2FlNH0r8vyIc1%2F3jigrOLici%2Bmq9n8njy796uao4sMlE7nDk%2BjhEyFGqc4DINnVqWVjFCjlxGDouhWcgyczzHG9zk6PyVlD9DeW%2B22dO8zccYMBvSx1Bo0wwHwtihI0X%2FOzk8%2F8f9hewXJcZlM%2BjM5oDFUaGB6oRLXfqm9Lxwr23BGFzwVth9MD0MHo1IpsIIjDo4c4qnzHaqSpjE9q92isE4RC3ktKQoVKzqPsc0E95HuzDNQKnn%2FdM2Vow0DVIbWQ%2FtXCBYy9uOYnYRdHhipyktFWIe17ZLgg%2B3SXx3kxN9I8ggH9LN1rmEjjcNgiZth7jZ6jWZGdL6lrRNEK0FqkPqNO3%2Bh42qi2UPrVbaVXfWrx5abmpaXbtiQHe95Zheojzb0Sqt59EstaTVIBqfizabsS1xssP4tAVQ5%2FD1i%2B7c03KH2eBqyWi9r8PT1%2BTS8dTJ6EGjWfC31Gs2%2BVs0Wu9vZeKdu1huENvNBOXt7j1b62rJuLtoveLyshF8um4Fny5awV8owSW9B9I6f0tGjb8VP9cQYkyRGuCaOq08U4E7AA5vyPXC5q2R7A1uVy3X%2Bz48P38xOlnYrodivAH%2Fod0G9FNISsRtFb5tNZPe4i7DVJAsRLUqpxucrhjOvb632jqTlgM6B3Bf2Zlf807zx8rNUd1ppaZH375%2F%2BU5f%2Bgs%2B7rrQ57G9eR3MNOqd934q2Vdr725Xr04v54I8bDXOKvl4doGD0guw0BC5hesgPFiLRe83%2Bdbdf%2BkyXUc%3D" xlink:title="Animals count\n(neuron&#45;weighted)\n[1+2]\n→ The Humane League\n(Peter Singer, Lewis Bollard)" target="_blank">
<path fill="#e6e2c0" stroke="#b0a04a" d="M476.5,-394C476.5,-394 323.5,-394 323.5,-394 317.5,-394 311.5,-388 311.5,-382 311.5,-382 311.5,-334 311.5,-334 311.5,-328 317.5,-322 323.5,-322 323.5,-322 476.5,-322 476.5,-322 482.5,-322 488.5,-328 488.5,-334 488.5,-334 488.5,-382 488.5,-382 488.5,-388 482.5,-394 476.5,-394"/>
<text text-anchor="middle" x="400" y="-379.2" font-family="Helvetica,sans-Serif" font-size="11.00" fill="#3a3410">Animals count</text>
<text text-anchor="middle" x="400" y="-367.2" font-family="Helvetica,sans-Serif" font-size="11.00" fill="#3a3410">(neuron&#45;weighted)</text>
<text text-anchor="middle" x="400" y="-355.2" font-family="Helvetica,sans-Serif" font-size="11.00" fill="#3a3410">[1+2]</text>
<text text-anchor="middle" x="400" y="-343.2" font-family="Helvetica,sans-Serif" font-size="11.00" fill="#3a3410">→ The Humane League</text>
<text text-anchor="middle" x="400" y="-331.2" font-family="Helvetica,sans-Serif" font-size="11.00" fill="#3a3410">(Peter Singer, Lewis Bollard)</text>
</a>
</g>
</g>
<!-- w1_2_3 -->
<g id="node2" class="node">
<title>w1_2_3</title>
<g id="a_node2"><a xlink:href="https://viewer.diagrams.net/?lightbox=1&nav=1&chrome=0#Uhttps%3A%2F%2Fraw.githubusercontent.com%2Fmorganrivers%2Ftrain_to_crazy_town%2Fmain%2Fdiagram%2Ftrain_tree__w1_2_3.drawio" xlink:title="Future humans count\n(discounted)\n[1+2+3]\n→ The Humane League\n▼ 87 more worldviews" target="_blank">
<path fill="#f2e3b3" stroke="#c9a72a" stroke-width="2.4" stroke-dasharray="5,2" d="M155.5,-241C155.5,-241 32.5,-241 32.5,-241 26.5,-241 20.5,-235 20.5,-229 20.5,-229 20.5,-181 20.5,-181 20.5,-175 26.5,-169 32.5,-169 32.5,-169 155.5,-169 155.5,-169 161.5,-169 167.5,-175 167.5,-181 167.5,-181 167.5,-229 167.5,-229 167.5,-235 161.5,-241 155.5,-241"/>
<path fill="none" stroke="#c9a72a" stroke-width="2.4" stroke-dasharray="5,2" d="M159.5,-245C159.5,-245 28.5,-245 28.5,-245 22.5,-245 16.5,-239 16.5,-233 16.5,-233 16.5,-177 16.5,-177 16.5,-171 22.5,-165 28.5,-165 28.5,-165 159.5,-165 159.5,-165 165.5,-165 171.5,-171 171.5,-177 171.5,-177 171.5,-233 171.5,-233 171.5,-239 165.5,-245 159.5,-245"/>
<text text-anchor="middle" x="94" y="-226.2" font-family="Helvetica,sans-Serif" font-size="11.00" fill="#57450e">Future humans count</text>
<text text-anchor="middle" x="94" y="-214.2" font-family="Helvetica,sans-Serif" font-size="11.00" fill="#57450e">(discounted)</text>
<text text-anchor="middle" x="94" y="-202.2" font-family="Helvetica,sans-Serif" font-size="11.00" fill="#57450e">[1+2+3]</text>
<text text-anchor="middle" x="94" y="-190.2" font-family="Helvetica,sans-Serif" font-size="11.00" fill="#57450e">→ The Humane League</text>
<text text-anchor="middle" x="94" y="-178.2" font-family="Helvetica,sans-Serif" font-size="11.00" fill="#57450e">▼ 87 more worldviews</text>
</a>
</g>
</g>
<!-- w1_2&#45;&gt;w1_2_3 -->
<g id="edge1" class="edge">
<title>w1_2&#45;&gt;w1_2_3</title>
<path fill="none" stroke="#9aa6b3" d="M311.31,-336.13C231.94,-317.46 128,-293 128,-293 128,-293 120.8,-274.57 113.02,-254.67"/>
<polygon fill="#9aa6b3" stroke="#9aa6b3" points="116.21,-253.21 109.31,-245.17 109.69,-255.76 116.21,-253.21"/>
<text text-anchor="middle" x="201.5" y="-285.8" font-family="Helvetica,sans-Serif" font-size="9.00" fill="#5b6675">count future people, discounted</text>
</g>
<!-- w1_2_5 -->
<g id="node3" class="node">
<title>w1_2_5</title>
<g id="a_node3"><a xlink:href="https://viewer.diagrams.net/?lightbox=1&nav=1&chrome=0#Uhttps%3A%2F%2Fraw.githubusercontent.com%2Fmorganrivers%2Ftrain_to_crazy_town%2Fmain%2Fdiagram%2Ftrain_tree__w1_2_5.drawio" xlink:title="Animals matter a lot\n(RP welfare ranges)\n[1+2+5]\n→ Shrimp Welfare Project\n▼ 19 more worldviews" target="_blank">
<path fill="#f5d3b8" stroke="#cc7a33" stroke-width="2.4" stroke-dasharray="5,2" d="M358.5,-241C358.5,-241 223.5,-241 223.5,-241 217.5,-241 211.5,-235 211.5,-229 211.5,-229 211.5,-181 211.5,-181 211.5,-175 217.5,-169 223.5,-169 223.5,-169 358.5,-169 358.5,-169 364.5,-169 370.5,-175 370.5,-181 370.5,-181 370.5,-229 370.5,-229 370.5,-235 364.5,-241 358.5,-241"/>
<path fill="none" stroke="#cc7a33" stroke-width="2.4" stroke-dasharray="5,2" d="M362.5,-245C362.5,-245 219.5,-245 219.5,-245 213.5,-245 207.5,-239 207.5,-233 207.5,-233 207.5,-177 207.5,-177 207.5,-171 213.5,-165 219.5,-165 219.5,-165 362.5,-165 362.5,-165 368.5,-165 374.5,-171 374.5,-177 374.5,-177 374.5,-233 374.5,-233 374.5,-239 368.5,-245 362.5,-245"/>
<text text-anchor="middle" x="291" y="-226.2" font-family="Helvetica,sans-Serif" font-size="11.00" fill="#5a300e">Animals matter a lot</text>
<text text-anchor="middle" x="291" y="-214.2" font-family="Helvetica,sans-Serif" font-size="11.00" fill="#5a300e">(RP welfare ranges)</text>
<text text-anchor="middle" x="291" y="-202.2" font-family="Helvetica,sans-Serif" font-size="11.00" fill="#5a300e">[1+2+5]</text>
<text text-anchor="middle" x="291" y="-190.2" font-family="Helvetica,sans-Serif" font-size="11.00" fill="#5a300e">→ Shrimp Welfare Project</text>
<text text-anchor="middle" x="291" y="-178.2" font-family="Helvetica,sans-Serif" font-size="11.00" fill="#5a300e">▼ 19 more worldviews</text>
</a>
</g>
</g>
<!-- w1_2&#45;&gt;w1_2_5 -->
<g id="edge2" class="edge">
<title>w1_2&#45;&gt;w1_2_5</title>
<path fill="none" stroke="#9aa6b3" d="M336.23,-321.82C309.28,-306.95 284,-293 284,-293 284,-293 284,-283 284,-283 284,-283 285.14,-270.45 286.5,-255.48"/>
<polygon fill="#9aa6b3" stroke="#9aa6b3" points="290,-255.68 287.42,-245.4 283.03,-255.04 290,-255.68"/>
<text text-anchor="middle" x="376" y="-285.8" font-family="Helvetica,sans-Serif" font-size="9.00" fill="#5b6675">adopt RP welfare ranges + invertebrates</text>
</g>
<!-- w1_2_6 -->
<g id="node4" class="node">
<title>w1_2_6</title>
<g id="a_node4"><a xlink:href="https://www.squiggle-language.com/playground#code=eJydWNty2zgS%2FZUu126t5BIliuOrUn7wRU5S8ex4Y894d22XA5GQiBFJMABomsn43%2FcA1NWSYmefTJPA6dON7j4Nfd%2BK%2BJAViTmVEd%2FqbXU6dHR0RNeKiYyMpFCxbxUeyozuisDv7lApVRI9Cl5S2X0IHvaooY3Maa9pN95lADjWukhzI2RGYQycHvmUMyXDWLDEwnQPA%2BrSkKkHVrLqIS5Slunph4BYJlKW6ActU17GzEy%2F7JEuhkOuRDZ6GMqw0Dxy9vosjInNjQpNjC4rE%2BN5KBJOcGX%2BWXfIWFAWRbpFisN%2FkXFNUjkwxT1wZSk3MKTx3sS8duMfmoZFFjqMdxTKNJcaVOYLsDeLOBDxSmiHpg3LIpbIjFOKACdt%2BjKLX%2F%2Fxi6Vqt%2FOnnIcGGx9ZUnCSQ4cwD3XbgZ1wbWhQVFRYM3aj5ouO9egaWB9sNDldcDYqeL3xff%2Bf%2Fc%2FH1%2F0zGlQ04hlXzPB2Xk2PlEfCLEVoGx9blElT87BBBJLD%2Bj0LuTLW21QqHOcsWLpeW0eC5XkiuG7TVZW2EznKpMKRNr7nuy3KD3efmw7LHdSh%2F3c6%2FfjOrRxww%2Bq3uZIDNhCJMCAykNbjyObjrd%2Bi7n2bzlloJGwyxWsoLMht%2BDPTIi2J25yQaoRD69%2BWZ8cX%2F%2Bn87Z4GPJElEs%2FudYfLn%2FCcVNgObATUYcF2VISmPgYcHEd2wv1hIgvsinHmZ0KH4GToaNVBZHvbP3Bu2seD5yaRyytgwoeSi1EMbNSG4szYBIoRLZuCmhrXMmVajN%2FRH3DIfgv8wEewZol%2FqQSom2q95W67OzG8196dGOZPRrEFs%2BwR52eh4TPPkEEz7M3mXVjOhEKSEsfq0CEtxDhXKFlVIcAZyikUeG7RSf%2F8t8%2F9Ok8cQk0CuJvzYloRs29UxhIkTSk9LaJJxdc5Y9feTnbeT3OZZaCE8vDk0EvZKBOmiDid%2FHbdP0ViVOlAJiJ0GYI4VA7NHnCjOUkOm30ZSyqDVSiT2BUaQDVL84RH7brb1F4PxahQaC91rY%2FUJE1t54QLGukSojUIW9i2LRkkEV7mn4QJY55dcgnEDzzJeXTJ1e862phOu7N0cqWzAHLDk2TAEdL3KLsz8N6I4XdnIH73BcqpTWaubGEULDlh2fgP14hqrCITQ2A1fJtdoLC81xqd0f%2Bxe9v0Q%2Bbb1OiSR6%2FzqrtHbEyue51OWZbtkXjkJQDbOJiOTWyVMdvKWNIxPIwzEeIJdT1Cs9KdkOnYQ1VkGomPwxtFS05siJ%2B%2FMw%2BgHzy%2FQiKWpVdyDy183EEieCGqFlXGOqHUxquLCOtt2a955Tm1ADWWDt%2FC7Zd5hvhBdw03tGXbNtAeFc%2BhU7xQ6GR5GzLWgRWRvsXKQgYFuy%2BMIEOKtD1zgiVGFUKnLhYQSqM7B%2Bdfb66%2BPh4e8wtZjtif2Tq%2FUbWhVLm0CuWFqDkmRpn2gO5hfAjHHL3IxMlrbLvtYMJ1Z%2F%2BnifYH%2F6r0v5%2FkcHD1dTw4FtcbiOoYXS%2FHKScYZTA2KPknFnjacwMNtESX%2BatEA9%2BfMN3fQY79NNl0pMXZSfBpnP6Snl3d3FxuIJuzCrXmgWmKnPeM9DA%2FIc1AfEq3FEk0KEb6Vc57M84HwSpnm246FByDQuQkwyXZ5E2HQXzCBH8HupML0bkKgm6wE%2FiHgYXq7u8hG5NkyN9UksEsIV%2Fm%2FOuBCz9djkX6zXz7JE%2FH%2F93fVa5kEYnK48yD8HURoUijgosk8ipZ2I4RccRy6LERehaizDzf87t3GcS9lPItlPenhz2J23yABbMefYmENm4sFMaOmwn0rx5eyH5RYlC4EXc6AS4OiQ6qES2p9F3h%2B9H%2BZFQLJd4Kew6YkTAW2CaJAQtzGj4pxRNmlaoUJp6NQlA9TjXkJKUoUqxsvsMcG828XZhj0ann%2BmmFFVOUQ6o9a0HOBZy1vO0QbjehD4%2FtrKGlgs%2BDyqok%2BHAbxNu7jOg7oQ3yHt1tXUj0cScQNK4V4m6r5SLTo%2FWStI2LxjatGd3AZO5AjxpuCPihfDUB9HLViog1pyr2cuUmKWs2JxzdhjVEm%2FTcWo7CeyR0PYwl1dz%2FJRF7q9vO6OLO%2F4%2BNDQPZW%2BBEZqhx%2FOt5c85tWcVqCysj7TpqSxuXuK1sX2V2%2FPFX6tDphFL%2FhfQtsFtSv58K3dLWn4%2Fdyn1tTmpZ5LbdFOjv7h%2B8OXRLAM0XCG8N4ZWTOLqpJY4ua4lbKLolhYONdUyWFjkmK3ZuID2YmzXAcQuqBYly3HfRriKuF1JpjUhtMLu6cr3t44uL8%2F7ZQjq8lJ8N%2BC%2FXbUD%2FiCY65LYmPtcqQZ9xb2cqjBe8WhWQDUZXFs6t3ls1mTbTI7oAcFvZW47mDfePbbAnVaNuri36%2FtfTX%2FTUXrDx3IQiDeyvDEfTrnzr309E6nrt7xTXHz5ezSWoV3d1q12D6Y8V0DYBFvYGvfDTByzYFYvW77Kt5%2F8BLsxtRg%3D%3D" xlink:title="Suffering&#45;focused\nethics\n[1+2+6]\n→ The Humane League\n(Brian Tomasik, David Pearce)" target="_blank">
<path fill="#f2ccc0" stroke="#c96a4a" d="M591.5,-241C591.5,-241 430.5,-241 430.5,-241 424.5,-241 418.5,-235 418.5,-229 418.5,-229 418.5,-181 418.5,-181 418.5,-175 424.5,-169 430.5,-169 430.5,-169 591.5,-169 591.5,-169 597.5,-169 603.5,-175 603.5,-181 603.5,-181 603.5,-229 603.5,-229 603.5,-235 597.5,-241 591.5,-241"/>
<text text-anchor="middle" x="511" y="-226.2" font-family="Helvetica,sans-Serif" font-size="11.00" fill="#5a2410">Suffering&#45;focused</text>
<text text-anchor="middle" x="511" y="-214.2" font-family="Helvetica,sans-Serif" font-size="11.00" fill="#5a2410">ethics</text>
<text text-anchor="middle" x="511" y="-202.2" font-family="Helvetica,sans-Serif" font-size="11.00" fill="#5a2410">[1+2+6]</text>
<text text-anchor="middle" x="511" y="-190.2" font-family="Helvetica,sans-Serif" font-size="11.00" fill="#5a2410">→ The Humane League</text>
<text text-anchor="middle" x="511" y="-178.2" font-family="Helvetica,sans-Serif" font-size="11.00" fill="#5a2410">(Brian Tomasik, David Pearce)</text>
</a>
</g>
</g>
<!-- w1_2&#45;&gt;w1_2_6 -->
<g id="edge3" class="edge">
<title>w1_2&#45;&gt;w1_2_6</title>
<path fill="none" stroke="#9aa6b3" d="M440.34,-321.63C457.23,-306.83 473,-293 473,-293 473,-293 482.19,-271.97 491.53,-250.58"/>
<polygon fill="#9aa6b3" stroke="#9aa6b3" points="494.86,-251.7 495.65,-241.14 488.44,-248.9 494.86,-251.7"/>
<text text-anchor="middle" x="549.5" y="-285.8" font-family="Helvetica,sans-Serif" font-size="9.00" fill="#5b6675">weight suffering over happiness</text>
</g>
<!-- w1_2_7 -->
<g id="node6" class="node">
<title>w1_2_7</title>
<g id="a_node6"><a xlink:href="https://www.squiggle-language.com/playground#code=eJyVV2tz2zYQ%2FCs3nnYqpaJIsXYVq%2BMPfiiPidu6sVu3jTMORIIkKpJgANAMk%2Fq%2Fd0FKlmRJsfohY4UE9vYWh9vjl72QR6xMzakM%2Bd5oz3Xp6OiIrhQTORlJgWKfa%2FyocropfW%2BwT5VUaXgneEXV4Na%2FHVJHG1nQsGs33uQAONa6zAojZE5BApwReVQwJYNEsNTCDA59GlDE1C2rWH2blBnL9fyFTywXGUv1rZYZrxJm5m%2BGlHFmbvGPq9tCyUnKsybgmAUJsUVUoYnRRW0S%2FI5Eygm5LF5rl4xFZWGoe6Q4BBA51yRVA6a4A7Is44giNJ6bhLd5fKcpKvOgwfiJApkVUos8XizA3jzkQMQjoRs0bVgeslTmnDIonPbpw4OA47sPlqrdzj8VPDDYeMfSkpOMGoSF1v0G7IRrQ5OyptKGsRs1X05sRFfAemXl5HTOWVzyduPL8S%2Fjt8dX4zOa1BTznCto2C%2Fq%2BZnyUJgVhZ7hZY9yaVoeVkQgNVhnQoEq8Siyf6Awt%2BpLFUOeQuHkVE0ThIhEIPC7RyfjF7%2B%2BHSN9xdIGoeIiTgyU69NlnfVTGedS4cQ7X4qDHhWHB%2FfduS4P76hKJJI1lXS0CHnYAB1639Lpa7v23Wzn%2B3lGLAcliOTIyMlYnAtThpxOfr0an%2FZI19lEpiIgLYnfcVU3aCiuvNMF91RWTQnlLK0NVkGspJEboJplRcrDfltzbdaRiEuFImtPPFbSHk9oi86moGWpAhSIsMdri9NASTws3ggTJDy%2F4BKIr3ha8PCCq991SEfruuAO9b02R%2FsTEq2AXPM0nXBI%2BhJleAbeWzG8wQOIN3iEcgrmqPqIBaZk6QnLp3805dhilbmIgNXx%2BoAAhdW9NugD%2Fa%2Bn94y%2ByvwZdQbk0NO8uo3eiTGFHrluVVX9WNzxCoB9HIwr7J6c2YJmqWt4kOQiwC90jhj3W7sB04ljFHpPxBUOLw5Xktiin7e%2FENDz758gkcjKqbiDizx1UQhOoITtK8wNpDZOe4mwHv1Hb3jkND0D1FgW7cLth0WFeP5gAze0KRCoeW4UL9CteKl0Ioo%2BmpmLKCLbJcpSBfkHj4KgQsqs%2F5AES40qhc4aLdAujXafv%2Fh4ffnx7vCYn8sqZv%2Fkm%2FLGrQ2kKqTtU06AO8dEnGsH6A5cJJhy9CKTpE%2BxHfT9Gdf94f8mOp78Vus%2FP8locvlxOjkWV1uI6gRdr8App3A0mIeS%2F2CBo53G1zhuSVU8SdT3vBnT4T5q7H%2BTzWItzk78N9Psh%2Bzs8vr6YgvZgtW4aw6YZqh5x0in1BxlBuJzupVIw0kZ6yc5%2F%2FjA%2Bbm%2FztmWmw4EzwO4i7WMpshmT1ym0FlT%2FJ1otxDCvfT9gb%2Fve4e%2BhRoMf0Q1pmnEd7qS%2FkNBPq75p4UL3lxMRfbZfH4jT6d%2FDw9Uc2WhRO1w5vi4RlAo1LjBZRo6tSxtxwg5tIwcFqNnQWXmeI43uMnh%2FJWUu1Aezg97pttijAGzEX0IhTbNcCCMHTpS%2BN%2FZ8flf7jdk3ygxKZtBZz4HLI8KDVQnXHHpm9LzwmFrwRhc8FTYczA9DB5Nk0yFERh1cOcUT5l1qkqYxPpXO8VgHKIWclZSFCpWdX%2FCNBM%2BZLs0zaBTL%2FzTGitGmgapzawHOxdI1vK2o5jdhD48tdOUlgo5T2rrkuDDrYjvbnKiL4Q2yEd0s3cu0ccbg6Bp6xA3e71GmRFttqTGU76njgPtD%2FeHzwfdLjgsqI%2Bo09j%2FV42rC5jHq9bsqzv3r8crt5lYt7uJHd33VnN%2BifJtR6%2B0XmS7YllPJ9lwWt6ze2ybKNlBf2Yh1Dn%2B%2BUV3wWTVoXaksrJpNy7Hr38ml05nJMaPjGyJz4qX7cpnedNufNYm7gWFVYN61kxw3gFgNoVeWdxdXr0W8rIxHLpuDYcuWsNZugIrfgOkTfFWFjXx1uJcwwgwxWqAa%2Bq09kAFvkHQPEKulw5%2Fg2VsCbu%2BcnPs4%2FPzF%2BOzpeN8bAZb8B%2Bv24L%2BGi0t4raK37Y9m97iW4qpIFnKar2dbwm6tnAR9b3t7fPWdkTnAO4r%2B82heaf5j213J3WnbXU9%2BvLvp3%2FpU38pxn0X%2FjCxX35H8x75zns%2Fs4yrjd%2BOV69eXy4MYdT2WOskk%2FkHJJxGgIVGk136HEUEu2I5%2Bk2%2Bd%2F8fyFV%2BJw%3D%3D" xlink:title="Meat&#45;eater problem\n(saved humans eat animals)\n[1+2+7]\n→ The Humane League\n(Michael Dickens, Vasco Grilo)" target="_blank">
<path fill="#eec2a8" stroke="#c65a2e" d="M786.5,-88C786.5,-88 623.5,-88 623.5,-88 617.5,-88 611.5,-82 611.5,-76 611.5,-76 611.5,-28 611.5,-28 611.5,-22 617.5,-16 623.5,-16 623.5,-16 786.5,-16 786.5,-16 792.5,-16 798.5,-22 798.5,-28 798.5,-28 798.5,-76 798.5,-76 798.5,-82 792.5,-88 786.5,-88"/>
<text text-anchor="middle" x="705" y="-73.2" font-family="Helvetica,sans-Serif" font-size="11.00" fill="#5a2a10">Meat&#45;eater problem</text>
<text text-anchor="middle" x="705" y="-61.2" font-family="Helvetica,sans-Serif" font-size="11.00" fill="#5a2a10">(saved humans eat animals)</text>
<text text-anchor="middle" x="705" y="-49.2" font-family="Helvetica,sans-Serif" font-size="11.00" fill="#5a2a10">[1+2+7]</text>
<text text-anchor="middle" x="705" y="-37.2" font-family="Helvetica,sans-Serif" font-size="11.00" fill="#5a2a10">→ The Humane League</text>
<text text-anchor="middle" x="705" y="-25.2" font-family="Helvetica,sans-Serif" font-size="11.00" fill="#5a2a10">(Michael Dickens, Vasco Grilo)</text>
</a>
</g>
</g>
<!-- w1_2&#45;&gt;w1_2_7 -->
<g id="edge4" class="edge">
<title>w1_2&#45;&gt;w1_2_7</title>
<path fill="none" stroke="#9aa6b3" d="M488.65,-332.44C553.79,-314.39 631,-293 631,-293 631,-293 669.71,-167.47 691.13,-97.98"/>
<polygon fill="#9aa6b3" stroke="#9aa6b3" points="694.56,-98.74 694.16,-88.16 687.87,-96.68 694.56,-98.74"/>
<text text-anchor="middle" x="759" y="-202.8" font-family="Helvetica,sans-Serif" font-size="9.00" fill="#5b6675">charge humans for the meat they eat</text>
</g>
<!-- w1_2_6_7 -->
<g id="node5" class="node">
<title>w1_2_6_7</title>
<g id="a_node5"><a xlink:href="https://www.squiggle-language.com/playground#code=eJytWNty2zgS%2FZUu126N5BUlSmNbtlJ%2B8EVOUvHseGPPeHdtlwORkIgRSTAAaJrJ%2BN%2FnANT9Emd29iEVmgBOn25092nq607IhyyPzZkM%2BU5vp9Wi4%2BNjulFMpGQkBYp9KfFQpHSfd%2Fz2HhVSxeGT4AUV7cfO48Fjl2rayIy6dXv0PgXEidZ5khkhUwoiIPXIp4wpGUSCxRaofdShNg2ZemQFKx%2BjPGGpni50iKUiYbF%2B1DLhRcTMdOWAdD4cciXS0eNQBrnm4XSpSwln5hH%2FuHrMlBzEPHFc%2BiyIiM0JCU2MrkoT4XkoYk5wdL6sW2SsQRaGukGKIzoi5ZqkcmCKe%2FCDJRxWhMZ7E%2FHKxR80DfM0cBhvKJBJJjVozjfgbBpyIOKV0A5NG5aGLJYppwThj5v0aRbd%2FtMnS9Ue588ZDwwOPrE45ySHDmF%2BEU0Hdsq1oUFeUm7N2IOaLzrWoxtgvbOR5nTJ2Sjn1cG3%2FX%2F2P57c9M9pUNKIp1whhs2snF44D4VZitAuFhuUSlPxsEEEksP6JQ24MtbbRCpc9SxYutpbRYJlWSy4btJ1mTRjOUqlwnXXvmb7DcqO9l%2FqDstd1JH%2Fdzp7%2F8btHHDDqrf2ftlAxMKAyEBaj0ObrXd%2Bg9oPTbpggZGwyRSvoLAhs%2BFPTYO0JG5zQqoRLq1%2FV5yfXP6n9bcHGvBYFkhKe9ZdLn%2FGc1ziOLARUIcF22EemOoauM26VMP9YSxznIpw5%2BdCB%2BBk6HjdQVRC0z90btrHw5c6kcsrYMKHgotRBGzUjUIq2wSKEC2bgppqNzJhWozf0K9wyK51%2FI6PYM2K4koJUDflZsvtZnti%2BKC5PzHMn41iC2bZE%2B7PQsNnniKDZtjbzbuwnAuFJCWO3YFDWohxplDOqkSAU5RTIPDcoNP%2Bxc8f%2B1WeOISKBHC358W0ImZrVEQSJE0hPS2QBA6oyhm7925y8mGayywFJZSHJ4dewkapMHnI6fTnm%2F4ZEqNMBjIWgcsQxKF0aPaCa%2FVJctjsS1lcGuxCmUSu0ACqWZLFPGxW3abyeihGuUJ7qWp9pCZpavsqXNBIlwCtQdjCtm3JIInwMvsgTBDx9IpLIL7jccbDK65%2B0eHWdNqfpZMrnQWQWx7HA46QvkXZnYP3Vgy%2FPQPx2ysoZzaZubKFkbP4lKXjX10jqrDyVAyBVfNtdoHC8llrdEb%2F2%2B7t0jeZ71KtTR69zqvqHpExme61WkVRNEfiiRcAbOJiWjaxVcpsK2Nxy%2FAgSkWAJ9T1CM1KtwKmIw9VkWokPi5vFC45sSV%2B%2Ft48gH7n5RUSkSy8gnto4eMWEsELULWoMtYKpDZeVUTYb8t%2BwyvPqQWosWT4Pdx%2BnGeI32lv4Ia2bNsG2qPiGXSK5wqdLGtCxlqwIpLvsbKQQZ39FSPIkDxpzpxgsVG50ImLBYTS6Nbhxefb689PRyf8UhYj9lu6yW9UbSBVJq1CeQFqjolRqj2gexgtgjFHLzJR%2FBrbdrMz4brX%2FdNE%2B4N%2Flfrfz3I4uP48HpyImy1EdYSul%2BGWY4w5GBuU%2FA0bPO25YQdaoovsVaId358w7e4hx%2F402WSkxflp58M4%2BTE5v769vdpCNmMlas0D0wQ57xnpYbZCmoH4lG4h4nCQj%2FSrnA9mnA8765xtuulAcAwKoZMMl2STNy0G8Qli%2FD%2FQrUyI1nWn0%2B7sdfyjjoVqdw%2BQjXE85N9Vkp1ZQq7m%2FOuBCz5cjUXyxXz5IM%2FG%2F%2B3uK1eyiETpceZB%2BNqIUKhRwXkceqXMbccIOWI59NgIPQtRZp7v%2Be37FOJeSPk9lLvTy57EbT7AglmPPoVCGzcWCmPHzRj6Vw0vZFeUGORuxJ1OgItDooOqhUsqfZ%2F7ftidjGqBxFth7wEzEsYC2yQxYGFOw5JSPGZWqQphotkoBNXjVEFOUopCxYr6G8yx4czbhTkWnXqun1ZYMUU5pMqzBuRcwFnL2w7h9hD68NjOGloq%2BDworUqCD7dBvLtPib4S2iDv0f3OpUQfdwJB40oh7ncaLjI92ixJTlN2adPs9g%2BqebiRo73uYbteB7O5Qz2quaHgm3JWB%2B7qrjVRq09VbXXnNmmr16ec3YkNxOsrzOmlsRylt0j4aliLy3l8lkTufw2L47SI9P9ha8NG9gtzIlNUO%2Fnpoj7nvqyCE4vrM%2FHr1JeAlrmvwb3K%2FOT9T9Siswnl%2Foq0LrBfUte%2FFPolqL8e%2B7XvxTnpZZHddVOovw%2BYTZHfRHUJoL6CsC3iqwSvncTSbSWxdFVJ7ELRLyksbGxisrTJMVmzcwvpw9yuAY6vsEoQKcP3NtplyPVCKm4QyS1m13dutn1yeXnRP19Il1X524K%2Fum8L%2Bns08SG3NfWxUin6yDVnKogWvFoXsC1G1zbOrT5YNZs282O6BHBT2a8szWvuD9vgT8ta1dwb9PX359%2Fpublg46UORRzYXzmOp6pw5z9MRPJm4%2B8kN%2B%2FeX88lsFepitXOwfTHEmirAAv7Bb%2Fw0wss2B2L1u%2FTnZc%2FAKfDjiI%3D" xlink:title="Meat&#45;eater problem\n(saved humans eat animals)\n[1+2+6+7]\n→ The Humane League\n(Michael Dickens, Vasco Grilo)" target="_blank">
<path fill="#eec2a8" stroke="#c65a2e" d="M563.5,-88C563.5,-88 400.5,-88 400.5,-88 394.5,-88 388.5,-82 388.5,-76 388.5,-76 388.5,-28 388.5,-28 388.5,-22 394.5,-16 400.5,-16 400.5,-16 563.5,-16 563.5,-16 569.5,-16 575.5,-22 575.5,-28 575.5,-28 575.5,-76 575.5,-76 575.5,-82 569.5,-88 563.5,-88"/>
<text text-anchor="middle" x="482" y="-73.2" font-family="Helvetica,sans-Serif" font-size="11.00" fill="#5a2a10">Meat&#45;eater problem</text>
<text text-anchor="middle" x="482" y="-61.2" font-family="Helvetica,sans-Serif" font-size="11.00" fill="#5a2a10">(saved humans eat animals)</text>
<text text-anchor="middle" x="482" y="-49.2" font-family="Helvetica,sans-Serif" font-size="11.00" fill="#5a2a10">[1+2+6+7]</text>
<text text-anchor="middle" x="482" y="-37.2" font-family="Helvetica,sans-Serif" font-size="11.00" fill="#5a2a10">→ The Humane League</text>
<text text-anchor="middle" x="482" y="-25.2" font-family="Helvetica,sans-Serif" font-size="11.00" fill="#5a2a10">(Michael Dickens, Vasco Grilo)</text>
</a>
</g>
</g>
<!-- w1_2_6&#45;&gt;w1_2_6_7 -->
<g id="edge5" class="edge">
<title>w1_2_6&#45;&gt;w1_2_6_7</title>
<path fill="none" stroke="#9aa6b3" d="M504.27,-168.98C500.23,-147.9 495.03,-120.84 490.67,-98.17"/>
<polygon fill="#9aa6b3" stroke="#9aa6b3" points="494.06,-97.25 488.74,-88.09 487.19,-98.57 494.06,-97.25"/>
<text text-anchor="middle" x="584" y="-128.8" font-family="Helvetica,sans-Serif" font-size="9.00" fill="#5b6675">charge humans for the meat they eat</text>
</g>
</g>
</svg>
